<?xml version="1.0" encoding="UTF-8" standalone="no"?>
<svg
   width="20"
   height="20"
   viewBox="0 0 20.000001 20"
   version="1.1"
   id="svg1"
   sodipodi:docname="callout-icon-theory.svg"
   inkscape:version="1.3.2 (1:1.3.2+202311252150+091e20ef0f)"
   xml:space="preserve"
   xmlns:inkscape="http://www.inkscape.org/namespaces/inkscape"
   xmlns:sodipodi="http://sodipodi.sourceforge.net/DTD/sodipodi-0.dtd"
   xmlns="http://www.w3.org/2000/svg"
   xmlns:svg="http://www.w3.org/2000/svg"><defs
     id="defs1" /><sodipodi:namedview
     id="namedview1"
     pagecolor="#ffffff"
     bordercolor="#666666"
     borderopacity="1.0"
     inkscape:showpageshadow="2"
     inkscape:pageopacity="0.0"
     inkscape:pagecheckerboard="0"
     inkscape:deskcolor="#d1d1d1"
     inkscape:zoom="18.852135"
     inkscape:cx="10.370178"
     inkscape:cy="10.529311"
     inkscape:window-width="1877"
     inkscape:window-height="1048"
     inkscape:window-x="43"
     inkscape:window-y="0"
     inkscape:window-maximized="1"
     inkscape:current-layer="svg1"><inkscape:page
       x="0"
       y="0"
       width="20.000002"
       height="20"
       id="page1"
       margin="0"
       bleed="0" /></sodipodi:namedview><path
     d="m 4.388862,-0.0107523 h 13.479116 a 0.54098962,0.54098956 0 0 1 0.53936,0.53936013 V 15.572028 c -0.02444,0.420408 -0.567062,0.430185 -1.153677,0.404115 H 4.190065 c -0.8114855,0 -1.4746857,0.663199 -1.4746857,1.474683 0,0.811485 0.6632002,1.474687 1.4746857,1.474687 h 13.063596 v -1.569196 h 1.153677 v 1.994491 c 0,0.363376 -0.296567,0.659943 -0.659943,0.659943 H 4.2470965 C 2.787076,20.012346 1.592663,18.817967 1.592663,17.357946 V 2.7854469 c 0,-1.5382354 1.2579631,-2.7961992 2.796199,-2.7961992 z m 0.5198068,2.1835121 h 0.4660324 c 0.2379052,0 0.4334439,0.1580603 0.4334439,0.3503398 V 13.517247 c 0,0.192279 -0.1955387,0.350338 -0.4334439,0.350338 H 4.9086688 c -0.2379052,0 -0.4334439,-0.158059 -0.4334439,-0.350338 V 2.5230996 c 0.0016,-0.1939089 0.1955387,-0.3503398 0.4334439,-0.3503398 z"
     fill-rule="evenodd"
     clip-rule="evenodd"
     id="path1"
     style="stroke-width:0.162949" /></svg>
