<?xml version="1.0" encoding="UTF-8" standalone="no"?>
<!-- Created with Inkscape (http://www.inkscape.org/) -->

<svg
   width="174.9684mm"
   height="203.08302mm"
   viewBox="0 0 174.9684 203.08302"
   version="1.1"
   id="svg8"
   inkscape:export-filename="/home/areshenk/Documents/repositories/grp-core/areshenk.github.io/content/project/MSMVSampEn/msmv-hex.png"
   inkscape:export-xdpi="48"
   inkscape:export-ydpi="48"
   inkscape:version="1.1.2 (0a00cf5339, 2022-02-04)"
   sodipodi:docname="msmv-hex.svg"
   xmlns:inkscape="http://www.inkscape.org/namespaces/inkscape"
   xmlns:sodipodi="http://sodipodi.sourceforge.net/DTD/sodipodi-0.dtd"
   xmlns="http://www.w3.org/2000/svg"
   xmlns:svg="http://www.w3.org/2000/svg"
   xmlns:rdf="http://www.w3.org/1999/02/22-rdf-syntax-ns#"
   xmlns:cc="http://creativecommons.org/ns#"
   xmlns:dc="http://purl.org/dc/elements/1.1/">
  <defs
     id="defs2">
    <marker
       inkscape:stockid="DotM"
       orient="auto"
       refY="0.0"
       refX="0.0"
       id="marker2131"
       style="overflow:visible"
       inkscape:isstock="true">
      <path
         id="path1893"
         d="M -2.5,-1.0 C -2.5,1.7600000 -4.7400000,4.0 -7.5,4.0 C -10.260000,4.0 -12.5,1.7600000 -12.5,-1.0 C -12.5,-3.7600000 -10.260000,-6.0 -7.5,-6.0 C -4.7400000,-6.0 -2.5,-3.7600000 -2.5,-1.0 z "
         style="fill-rule:evenodd;stroke:#0095f7;stroke-width:1pt;stroke-opacity:1;fill:#0095f7;fill-opacity:1"
         transform="scale(0.4) translate(7.4, 1)" />
    </marker>
    <marker
       inkscape:stockid="Arrow1Mend"
       orient="auto"
       refY="0.0"
       refX="0.0"
       id="marker2092"
       style="overflow:visible;"
       inkscape:isstock="true">
      <path
         id="path1838"
         d="M 0.0,0.0 L 5.0,-5.0 L -12.5,0.0 L 5.0,5.0 L 0.0,0.0 z "
         style="fill-rule:evenodd;stroke:#0095f7;stroke-width:1pt;stroke-opacity:1;fill:#0095f7;fill-opacity:1"
         transform="scale(0.4) rotate(180) translate(10,0)" />
    </marker>
    <inkscape:path-effect
       effect="bspline"
       id="path-effect1783"
       is_visible="true"
       weight="33.333333"
       steps="2"
       helper_size="0"
       apply_no_weight="true"
       apply_with_weight="true"
       only_selected="false" />
    <linearGradient
       id="linearGradient8464"
       inkscape:swatch="solid">
      <stop
         style="stop-color:#000000;stop-opacity:1;"
         offset="0"
         id="stop8462" />
    </linearGradient>
    <marker
       inkscape:stockid="Arrow1Mend"
       orient="auto"
       refY="0"
       refX="0"
       id="Arrow1Mend"
       style="overflow:visible"
       inkscape:isstock="true">
      <path
         id="path6919"
         d="M 0,0 5,-5 -12.5,0 5,5 Z"
         style="fill:#f72008;fill-opacity:1;fill-rule:evenodd;stroke:#f72008;stroke-width:1.00000003pt;stroke-opacity:1"
         transform="matrix(-0.4,0,0,-0.4,-4,0)"
         inkscape:connector-curvature="0" />
    </marker>
    <marker
       inkscape:stockid="DotM"
       orient="auto"
       refY="0"
       refX="0"
       id="DotM"
       style="overflow:visible"
       inkscape:isstock="true">
      <path
         id="path6974"
         d="m -2.5,-1 c 0,2.76 -2.24,5 -5,5 -2.76,0 -5,-2.24 -5,-5 0,-2.76 2.24,-5 5,-5 2.76,0 5,2.24 5,5 z"
         style="fill:#f72008;fill-opacity:1;fill-rule:evenodd;stroke:#f72008;stroke-width:1.00000003pt;stroke-opacity:1"
         transform="matrix(0.4,0,0,0.4,2.96,0.4)"
         inkscape:connector-curvature="0" />
    </marker>
    <marker
       inkscape:stockid="DotL"
       orient="auto"
       refY="0"
       refX="0"
       id="DotL"
       style="overflow:visible"
       inkscape:isstock="true">
      <path
         id="path6971"
         d="m -2.5,-1 c 0,2.76 -2.24,5 -5,5 -2.76,0 -5,-2.24 -5,-5 0,-2.76 2.24,-5 5,-5 2.76,0 5,2.24 5,5 z"
         style="fill:#f72008;fill-opacity:1;fill-rule:evenodd;stroke:#f72008;stroke-width:1.00000003pt;stroke-opacity:1"
         transform="matrix(0.8,0,0,0.8,5.92,0.8)"
         inkscape:connector-curvature="0" />
    </marker>
    <clipPath
       id="clipPath848"
       clipPathUnits="userSpaceOnUse">
      <path
         inkscape:connector-curvature="0"
         id="path846"
         d="M 59.04,73.44 H 699.51 V 363.96 H 59.04 Z" />
    </clipPath>
    <clipPath
       id="clipPath904"
       clipPathUnits="userSpaceOnUse">
      <path
         inkscape:connector-curvature="0"
         id="path902"
         d="M 59.04,73.44 H 699.51 V 363.96 H 59.04 Z" />
    </clipPath>
    <clipPath
       clipPathUnits="userSpaceOnUse"
       id="clipPath1607">
      <rect
         style="opacity:1;fill:#fa7106;fill-opacity:1;stroke:none;stroke-width:0.16500001;stroke-linecap:round;stroke-linejoin:round;stroke-miterlimit:4;stroke-dasharray:none;stroke-dashoffset:0;stroke-opacity:1"
         id="rect1609"
         width="136.4494"
         height="66.145836"
         x="-282.90204"
         y="-16.022772" />
    </clipPath>
    <clipPath
       clipPathUnits="userSpaceOnUse"
       id="clipPath1607-6">
      <rect
         style="opacity:1;fill:#fa7106;fill-opacity:1;stroke:none;stroke-width:0.165;stroke-linecap:round;stroke-linejoin:round;stroke-miterlimit:4;stroke-dasharray:none;stroke-dashoffset:0;stroke-opacity:1"
         id="rect1609-7"
         width="136.4494"
         height="66.145836"
         x="-282.90204"
         y="-16.022772" />
    </clipPath>
    <clipPath
       clipPathUnits="userSpaceOnUse"
       id="clipPath1607-3">
      <rect
         style="opacity:1;fill:#fa7106;fill-opacity:1;stroke:none;stroke-width:0.165;stroke-linecap:round;stroke-linejoin:round;stroke-miterlimit:4;stroke-dasharray:none;stroke-dashoffset:0;stroke-opacity:1"
         id="rect1609-6"
         width="136.4494"
         height="66.145836"
         x="-282.90204"
         y="-16.022772" />
    </clipPath>
    <clipPath
       clipPathUnits="userSpaceOnUse"
       id="clipPath1607-5">
      <rect
         style="opacity:1;fill:#fa7106;fill-opacity:1;stroke:none;stroke-width:0.165;stroke-linecap:round;stroke-linejoin:round;stroke-miterlimit:4;stroke-dasharray:none;stroke-dashoffset:0;stroke-opacity:1"
         id="rect1609-3"
         width="136.4494"
         height="66.145836"
         x="-282.90204"
         y="-16.022772" />
    </clipPath>
  </defs>
  <sodipodi:namedview
     id="base"
     pagecolor="#ffffff"
     bordercolor="#666666"
     borderopacity="1.0"
     inkscape:pageopacity="0.0"
     inkscape:pageshadow="2"
     inkscape:zoom="0.7"
     inkscape:cx="644.28571"
     inkscape:cy="428.57143"
     inkscape:document-units="mm"
     inkscape:current-layer="layer1"
     showgrid="false"
     inkscape:window-width="1884"
     inkscape:window-height="1050"
     inkscape:window-x="36"
     inkscape:window-y="0"
     inkscape:window-maximized="1"
     inkscape:snap-global="false"
     inkscape:pagecheckerboard="0" />
  <metadata
     id="metadata5">
    <rdf:RDF>
      <cc:Work
         rdf:about="">
        <dc:format>image/svg+xml</dc:format>
        <dc:type
           rdf:resource="http://purl.org/dc/dcmitype/StillImage" />
        <dc:title />
      </cc:Work>
    </rdf:RDF>
  </metadata>
  <g
     inkscape:label="Layer 1"
     inkscape:groupmode="layer"
     id="layer1"
     transform="translate(62.541934,73.58496)">
    <rect
       height="92.911484"
       style="fill:none;fill-opacity:1;stroke:#000000;stroke-width:0.696836"
       width="92.911484"
       x="170.20805"
       y="-113.57095"
       inkscape:label="Border"
       id="rect1751"
       transform="matrix(0.86416234,0.50321312,-0.86416234,0.50321312,0,0)" />
    <path
       style="fill:none;stroke:#000000;stroke-width:0.672;stroke-linecap:butt;stroke-linejoin:miter;stroke-miterlimit:4;stroke-dasharray:4.032, 0.672;stroke-dashoffset:0;stroke-opacity:1"
       d="M 205.24832,-65.86664 V 28.575561"
       id="path997" />
    <path
       inkscape:connector-curvature="0"
       id="path482"
       d="m -276.18029,3.4613889 c -0.41795,6.8067011 -0.58032,17.6081241 -1.06952,3.424888 -1.51943,9.2511871 -1.2203,19.4422851 0.89745,13.9164251 0.004,26.556383 4.86795,-21.9869507 0.98874,-3.185434 -0.9027,-4.241541 0.0637,-10.7891871 -0.81667,-14.1558791 z m 4.91205,-6.6904036 c -0.90085,7.9683586 0.10464,15.2469037 -1.31985,9.7374576 -4.00895,8.5491381 2.69792,6.3955381 2.03272,18.3660821 2.38176,-12.450051 1.87684,11.538589 2.80689,-4.909069 0.31191,5.572518 1.46362,15.802413 1.43026,12.301621 2.05405,-10.205624 1.02402,-48.057067 0.55675,-17.30132 -0.73828,8.631907 -0.31472,-20.9255707 -1.89849,-3.118183 -4.43384,12.881705 -2.20279,0.502387 -3.60828,-15.0765887 z m 12.72328,-0.96697 c -0.40011,6.8523606 -1.43459,30.8582117 -2.03424,11.2794376 -1.10897,13.3086831 -0.49513,15.8034071 -0.75288,0.698367 -0.4975,-13.3107726 -1.93814,30.5343961 -1.92668,5.8914581 -3.4805,-17.9855577 1.22508,34.770368 1.21205,6.270689 0.50122,21.894132 1.58105,-5.293272 1.75067,1.697273 1.71672,4.726816 1.39166,-21.59449071 1.79618,-0.795861 -0.14994,18.518191 4.92893,-8.389468 0.36443,-1.26691 -0.15595,-7.915635 0.41543,-15.9954131 -0.40941,-23.7748537 z m 5.78709,1.384697 c -1.49197,3.23626999 -1.12112,28.0248477 -2.3743,13.6641347 0.32193,16.925774 -1.47789,-12.1414527 -1.15656,5.522679 -0.14393,13.313658 3.50492,10.351363 2.84229,-2.757759 0.21168,-6.5813711 0.71759,19.700442 2.71844,9.003974 -0.0649,17.557586 0.57247,3.484677 2.08207,-3.565359 2.20776,9.841815 1.37979,-28.8303577 0.5612,-5.418617 0.0321,8.260537 -0.23373,-20.1511987 -1.50888,0.186029 -0.88951,15.22452 -0.96212,-13.82121871 -2.312,4.394347 -0.94744,-6.424289 -0.26621,-14.2384501 -0.85226,-21.0290317 z m 6.08096,-2.986568 c -1.70073,15.2948536 0.14272,39.9005857 4.47593,33.4418767 1.17372,-9.472336 1.52576,-34.3640797 1.3423,-10.964078 0.3047,15.324797 1.53431,-5.075603 1.69656,8.256957 1.73243,-9.218855 -1.24865,-32.8007107 -0.98513,-18.1408541 -0.35642,-27.8690599 -3.95403,41.8920291 -5.87874,11.0555021 -0.23413,-7.8640981 0.14032,-15.9424837 -0.65092,-23.6494037 z m 11.01774,10.1236486 c -0.93269,17.4266681 -1.14918,-5.02456761 -2.1552,11.9934251 -1.88474,-17.4466627 -1.60907,20.836633 1.85656,2.498903 0.352,-19.8622997 -0.24576,20.608819 3.41852,0.577995 -0.29147,16.011725 1.65337,-8.462986 1.98918,12.187217 1.43367,-3.911059 0.75007,-17.306693 -0.15475,-15.460494 -2.14951,-20.8808017 -4.7852,20.706908 -4.68201,-3.882906 -0.20406,-2.135195 0.95823,-6.8433091 -0.27222,-7.9139391 z m 6.61758,-4.95333661 c -0.63613,4.19309061 -1.73993,28.50166671 0.0241,13.19328371 -0.27022,4.410262 1.54428,16.304005 1.31424,4.698563 2.23309,11.083755 3.69543,34.949933 3.6478,9.167023 0.48872,-19.5944911 1.11435,20.370159 1.33866,-5.721939 -0.42846,-12.7429271 2.87528,8.288989 1.0352,-6.467962 -2.30787,-13.0250577 -2.47229,-17.1437397 -2.77806,-0.804814 0.12027,11.180849 -1.21522,9.637276 -1.18888,0.0398 -0.25618,22.199645 -2.33284,-15.1095167 -2.64904,-0.670511 -0.33637,-4.4536371 -0.172,-9.0663491 -0.74234,-13.43403271 z m 15.03644,4.48626761 c -1.35918,11.4576111 -0.0533,20.7007391 -1.52652,5.137679 -1.55275,19.1296101 0.18923,10.1928891 -3.62488,-1.115102 -3.77802,17.7017381 -1.03267,8.6394681 1.05076,7.4186201 0.93041,17.480087 2.88875,6.210599 2.83483,5.005964 1.30061,22.662735 0.41419,-23.1609447 2.99881,1.896834 0.96873,-7.641359 -1.53423,-11.658765 -1.733,-18.3439951 z m 4.37378,0.433744 c 1.17308,12.2886881 -5.84554,13.7263111 -2.18611,20.2874891 1.3767,-4.002883 0.31753,2.614104 2.71688,-4.589531 0.24697,7.884791 1.71223,-12.4457721 4.11239,1.523973 2.85896,0.71329 -0.68336,-14.1850261 -2.01179,-8.430753 -3.86803,4.248106 -1.17773,-2.517407 -2.63137,-8.7911781 z m 13.43823,-9.0420756 c 0.0686,4.59042599 -0.85315,29.4641627 -2.62323,13.6621466 0.77429,11.7804331 -2.62924,-2.990746 -2.07926,10.5169051 -0.99491,-9.7653141 -2.10284,-20.42656571 -2.7419,-3.458017 -0.92138,7.222339 0.3496,19.647317 1.12353,5.860024 1.34539,18.309176 3.41054,-17.7551591 3.04322,0.791881 0.82809,18.278935 0.16678,-11.181944 2.65101,0.100471 0.71219,-9.564259 0.78595,-21.1992477 1.35934,-4.671505 1.82685,-7.063962 -0.80119,-15.3280831 -0.73271,-22.8019127 z m 6.64232,4.49442599 c -0.44943,8.79028461 -1.95177,34.71465571 -2.54773,15.81713971 0.43579,11.578383 -4.13376,-29.308973 -3.12257,-4.37833 0.66632,10.458607 1.60879,14.879115 3.89004,20.358221 2.2806,-8.725321 1.33292,-32.29703071 2.20912,-9.399815 1.16678,3.828689 0.003,-14.4954101 1.79518,0.69837 2.99251,-10.527848 -1.83182,-8.260739 -1.15516,-17.2585421 -1.03087,15.6612491 0.22732,-2.276461 -1.06888,-5.83654461 z m 10.81628,2.16732801 c 0.0321,12.3681767 -2.37778,7.4562216 -2.64816,10.0066577 -0.30229,10.347287 -0.99615,12.537991 -2.92407,4.659466 -1.01396,14.585445 -2.11804,-12.4988941 -1.59797,7.581372 1.43564,22.185419 1.85331,-16.0965841 3.01256,3.481096 1.63228,12.587036 0.66311,-18.9592981 2.62775,-6.157277 -0.64956,-8.640165 2.12786,-12.0035721 2.71155,-2.191206 -0.60562,-5.565056 -0.33957,-11.6944771 -1.18166,-17.3801087 z m 3.83055,-4.953238 c -1.3753,5.6598626 -1.36384,37.0076307 -2.73492,17.5157027 -1.18896,18.421196 2.95746,9.049537 2.08155,-2.950156 1.44285,-4.8059051 -0.30791,26.276341 1.91717,15.218353 2.73813,-12.615192 1.16101,-4.03601 2.87921,-0.670514 0.36403,-5.664639 1.06022,-24.9205917 1.69262,-8.962289 1.17797,-16.61399271 -2.84188,-16.27644971 -1.69562,0.126352 -0.19685,12.433733 -1.50889,-20.0063517 -1.98401,-1.665538 -1.79105,8.480493 -1.91068,-16.32032271 -2.156,-18.6122007 z m 10.14924,0.37306 c -1.66849,9.6248416 -0.74935,38.5948757 -4.1874,19.5903147 0.7678,6.095498 2.41395,23.058975 3.16434,2.565456 2.43713,-14.2523751 0.56185,-7.668217 2.08886,-0.83068 -1.24056,-12.1096191 2.09405,16.23039 2.74442,2.541283 2.19064,7.510738 -0.68862,-17.6720901 -0.57391,-0.852566 -1.17087,-7.842513 -1.8501,-16.3170381 -3.23631,-23.0141057 z m 12.21809,0.733186 c -0.3512,13.3752387 -1.01825,21.9386017 -1.8734,17.4839697 -1.93598,4.630119 -2.71628,16.343899 -3.48952,0.619777 -1.7075,-22.5421637 -3.0834,26.079863 -0.91858,-2.34968 0.56942,2.500494 0.9357,24.710086 5.13327,8.213781 2.24004,-6.17797 0.54256,-20.1676127 2.35807,-3.603062 -0.0846,-6.814061 -0.32514,-13.8802121 -1.20984,-20.3646867 z m 4.01877,3.16285 c -3.51475,9.5994757 -2.59789,34.5033557 -0.71656,9.1068377 2.136,9.059483 2.28185,47.574175 2.6047,18.859315 1.4797,-11.626132 1.51097,-10.171398 2.21823,-0.314365 0.13671,-5.988155 3.96962,-21.2191411 0.66471,-21.2210321 -1.11001,14.0806691 -0.5412,7.1823471 -1.90956,-0.171116 0.34359,12.6453361 -2.00849,1.268106 -1.3445,14.1417521 -0.37887,-11.107333 -0.96424,-8.384991 -1.51702,-20.4017937 z m 7.84265,1.6510146 c -0.11305,10.3322641 -2.30758,20.2953471 -1.36223,4.02029 -3.32575,6.8431111 1.58863,30.8792041 1.02213,7.5856491 0.74029,-5.0544141 1.58791,2.555409 2.20985,-0.912255 0.27864,11.173688 1.0546,27.263805 1.31934,5.70284 0.77792,8.488751 0.70869,6.292572 2.42019,9.296252 2.31978,-7.132902 -0.36684,-20.9007001 -1.02289,-6.313166 -0.60975,-6.710401 -1.93334,-19.2312821 -2.00766,-3.69389 0.66303,-7.593607 -0.7463,-12.6777651 -2.57873,-15.6857201 z m 10.11625,-2.39255761 c -0.69683,8.95721461 -6.07915,40.81453071 -1.12131,17.52535471 1.8909,-8.3525601 2.2025,12.517398 3.37008,-1.542975 0.6286,4.063565 2.72952,19.564846 2.97756,2.470451 1.51466,-21.8805027 -2.80464,7.973034 -3.29544,-10.5548071 -2.29729,23.4503391 -0.61485,0.555114 -1.93089,-7.89802361 z m 12.42608,-0.913251 c -0.88446,4.45881061 -0.7791,22.97202671 -2.51462,9.43960661 -0.10023,16.7046231 -1.07257,-14.3694666 -1.51838,4.3276921 0.0842,24.96158 -4.80393,-20.8149447 -2.9246,2.968662 0.42673,11.169708 4.33606,16.663236 3.39859,1.245921 0.4259,13.585842 0.95952,7.39683 1.38481,-0.577995 0.47135,22.415719 1.54432,2.395143 2.23871,-7.5314311 0.33076,7.7699911 2.37385,31.8132471 1.21721,10.2681971 0.3063,-6.843409 -0.071,-13.9039881 -1.28172,-20.14124771 z m 4.51082,2.83923601 c -2.61979,5.2733736 -1.51106,22.6958627 -2.74684,14.6695067 -1.23457,9.82142 1.32065,25.159051 1.49157,5.595994 -0.0433,-20.6656197 0.9551,6.341719 4.63185,-0.247717 0.93281,21.665918 4.06997,-23.6506987 1.00533,-0.193995 -0.58349,-7.695178 -1.21701,-11.569229 -1.67033,-4.205727 -2.34655,-3.735272 -1.69386,-6.825004 -2.71158,-15.6177737 z m 7.87897,-10.238453 c -0.21248,12.9544276 -0.91111,24.1531827 -1.60923,30.7036167 1.67932,23.896319 1.61621,-27.4751087 1.70137,-2.49771 2.37698,2.8457 2.32915,9.063163 3.52223,10.513619 1.01981,-12.168313 1.66472,-28.3696541 3.22356,-12.75536 -0.14874,-9.3096821 -2.13315,-23.3982107 -2.72647,-8.4572151 -0.1323,20.9940121 -2.16867,11.5468471 -2.65497,1.4544341 0.19164,17.17637 -0.98669,-17.4368137 -1.45649,-18.9613847 z m 5.89113,19.1002627 0.004,0.0042 z m 1.7848,-6.9772121 c -1.12056,10.0821651 -1.33542,29.8669661 0.56468,9.2407401 1.90106,-11.1321047 0.76695,24.641047 2.40573,5.364898 0.68589,17.206214 2.39535,-18.05997271 2.40296,6.02029 1.4125,22.295446 1.70345,-22.6700967 2.2163,0.638679 1.05236,-12.311172 -0.98368,-14.331464 -1.60458,-3.015518 -0.47724,-11.205423 -2.13744,-16.2266081 -2.3144,-1.574709 0.2181,-16.1242411 -1.63289,-2.772184 -1.50499,-6.46458 0.65416,-8.2572551 -0.978,-6.5068581 -2.1657,-10.2097011 z m 12.4063,-4.95731661 C -88.12526,5.4904379 -86.9301,45.384257 -88.19483,17.627216 -88.60308,2.6528949 -89.96061,2.2775483 -90.05026,17.200437 c -1.47201,15.625035 2.2248,-9.5534161 1.59227,10.925775 1.96705,34.99112 1.20311,-41.972312 4.28113,-6.37753 1.38713,15.953628 0.94271,-12.2172621 1.85728,1.140367 2.20391,-11.214277 -1.85543,-12.88419 -1.69875,-4.666928 -0.66116,-6.266011 -1.00935,-12.6073311 -1.64256,-18.88309171 z m 6.63904,4.37962161 c 0.26541,15.1249361 -5.27192,9.2089041 -0.41952,20.6229431 0.8586,-14.098078 0.62197,-17.7944551 1.1358,-0.786908 2.19929,8.945676 2.44906,-12.552914 3.21344,5.012133 0.36804,-13.071418 0.33597,-13.848775 1.30037,-0.672501 2.97784,-10.289091 -0.19685,-14.584251 -0.17721,-14.893743 -1.20487,-13.86727771 -1.59396,19.218747 -1.80804,-1.073416 -2.29612,23.950041 -1.19966,-2.1909061 -3.24473,-8.2086101 z m 6.97419,0.680459 c -1.26941,10.6826441 -0.44741,33.5759781 0.33797,10.7721771 2.0336,15.427663 0.42297,-13.4413947 2.43239,5.468858 1.3536,5.202243 0.63757,-11.6083291 2.55671,1.433146 4.91758,2.829087 2.0571,-29.4777927 0.49862,-5.673992 -0.53518,-13.9554197 -2.90138,-0.208908 -4.72386,-8.2844131 z m 16.41847,0.991843 c -0.3961,6.8936471 -0.39811,15.6900981 -2.56212,5.6518061 0.27823,14.574998 -0.79934,0.523278 -2.18744,5.688615 -1.66444,-19.4755107 -1.25242,12.253472 -2.00938,-6.9105601 -3.42036,4.4603021 -0.96007,24.3157391 -0.27022,8.0188951 1.24357,24.138262 0.93089,-2.119278 1.58626,0.411858 0.65987,12.360118 1.15864,11.61947 1.54525,2.692896 2.52661,10.641753 1.22351,-12.2219371 2.57973,4.165535 1.85034,-3.445481 2.33573,-14.237852 1.31788,-19.7190451 z m 7.16078,-4.0396906 c -0.48918,12.1480197 -1.07636,23.0041607 -2.04999,4.7933706 -0.91408,5.1248461 -0.7591,19.9272611 -1.79526,4.7081141 -0.76118,8.538691 -1.10227,-9.8151527 -1.2719,4.684039 -4.13335,-26.086629 0.95975,43.004243 1.00842,13.885683 0.40897,-13.633693 0.44157,-1.598288 1.63393,-6.391957 0.61645,-20.1273201 0.81462,14.179256 2.40188,-6.320627 0.22492,-11.2281051 1.41988,21.539777 2.14357,2.287801 0.0489,-14.8656851 -1.77809,9.32152 -1.41723,-8.974624 l -0.27342,-4.4424961 z m 2.09358,-0.81078201 c -1.46839,10.15757171 0.27623,30.19028371 0.1291,8.34052261 0.40865,18.5848431 4.58394,26.5300211 4.25143,5.9392101 0.0281,17.138166 2.14726,10.071718 1.78486,-2.900714 0.69439,-12.01053471 2.78252,33.824385 1.51787,6.323115 0.81321,-23.0074427 -3.42815,-7.604651 -2.45833,1.797948 -1.03793,-20.32250571 -1.97904,-4.184535 -1.93486,6.341322 -1.18097,-9.989647 -2.13198,-11.147823 -3.29014,-25.84140371 z m 17.12016,-1.56098199 c -0.28024,11.7295957 -1.46586,23.3170317 -2.46828,4.2844156 -1.73664,1.889474 -0.92395,17.4641741 -1.63761,1.037506 -1.45997,8.8844931 0.14312,26.5818531 -2.70545,8.6784631 -2.205,4.711597 -1.81098,24.654875 -1.20507,7.480696 1.06442,23.098469 1.48398,-18.7152647 2.58096,6.276555 1.08944,17.884986 0.35882,-18.9566101 2.02731,-3.491143 -0.16076,-6.631012 1.03072,-20.9617817 1.23249,-4.895736 0.80272,-5.723335 1.48338,18.855833 1.99331,0.178064 0.087,-6.488056 1.19164,-13.1649311 0.18241,-19.5490267 z m 0.25939,0.63569399 c -0.80491,9.99541561 0.29147,52.03218971 1.90086,23.16810671 1.88081,-12.296051 2.04839,15.670201 2.23458,-1.083067 1.4366,14.298336 1.45128,-6.610719 4.2163,1.929067 0.42622,-3.952943 -1.40405,-21.4932187 -1.47853,-7.027054 -1.19838,-17.12881671 -2.16261,-6.7618331 -1.90692,4.159168 -0.10624,-3.795957 -0.78069,-18.4259697 -1.20129,-5.133699 -0.66637,-12.4870581 -0.13591,-7.2059251 -1.97683,0.02985 -2.72767,2.68026 -1.20708,-9.3970291 -1.78817,-16.03749171 z m 14.37436,-7.20254199 c 0.78479,13.2642166 -2.71723,37.8534317 -4.90046,13.0643556 -1.87058,-6.7067216 -0.74835,27.7996191 -0.15515,2.607538 0.261,12.6901001 0.64263,13.8011221 2.31168,16.7084021 1.77484,1.839335 3.35168,-24.63229171 3.38223,-0.932151 -0.059,20.078873 4.6357405,-1.160067 0.78375,2.51492 0.10785,-11.463681 -0.47264,-22.7573441 -1.42176,-33.9632637 z"
       style="color:#000000;font-style:normal;font-variant:normal;font-weight:normal;font-stretch:normal;font-size:medium;line-height:normal;font-family:sans-serif;font-variant-ligatures:normal;font-variant-position:normal;font-variant-caps:normal;font-variant-numeric:normal;font-variant-alternates:normal;font-feature-settings:normal;text-indent:0;text-align:start;text-decoration:none;text-decoration-line:none;text-decoration-style:solid;text-decoration-color:#000000;letter-spacing:normal;word-spacing:normal;text-transform:none;writing-mode:lr-tb;direction:ltr;text-orientation:mixed;dominant-baseline:auto;baseline-shift:baseline;text-anchor:start;white-space:normal;shape-padding:0;clip-rule:nonzero;display:inline;overflow:visible;visibility:visible;opacity:1;isolation:auto;mix-blend-mode:normal;color-interpolation:sRGB;color-interpolation-filters:linearRGB;solid-color:#000000;solid-opacity:1;vector-effect:none;fill:#fa7106;fill-opacity:1;fill-rule:nonzero;stroke:none;stroke-width:0.841644;stroke-linecap:butt;stroke-linejoin:round;stroke-miterlimit:10;stroke-dasharray:none;stroke-dashoffset:0;stroke-opacity:1;color-rendering:auto;image-rendering:auto;shape-rendering:auto;text-rendering:auto;enable-background:accumulate"
       clip-path="url(#clipPath1607)"
       transform="matrix(1.2332916,0,0,1,286.3726,-23.477049)" />
    <path
       inkscape:connector-curvature="0"
       id="path482-7"
       d="m -276.18029,3.4613889 c -0.41795,6.8067011 -0.58032,17.6081241 -1.06952,3.424888 -1.51943,9.2511871 -1.2203,19.4422851 0.89745,13.9164251 0.004,26.556383 4.86795,-21.9869507 0.98874,-3.185434 -0.9027,-4.241541 0.0637,-10.7891871 -0.81667,-14.1558791 z m 4.91205,-6.6904036 c -0.90085,7.9683586 0.10464,15.2469037 -1.31985,9.7374576 -4.00895,8.5491381 2.69792,6.3955381 2.03272,18.3660821 2.38176,-12.450051 1.87684,11.538589 2.80689,-4.909069 0.31191,5.572518 1.46362,15.802413 1.43026,12.301621 2.05405,-10.205624 1.02402,-48.057067 0.55675,-17.30132 -0.73828,8.631907 -0.31472,-20.9255707 -1.89849,-3.118183 -4.43384,12.881705 -2.20279,0.502387 -3.60828,-15.0765887 z m 12.72328,-0.96697 c -0.40011,6.8523606 -1.43459,30.8582117 -2.03424,11.2794376 -1.10897,13.3086831 -0.49513,15.8034071 -0.75288,0.698367 -0.4975,-13.3107726 -1.93814,30.5343961 -1.92668,5.8914581 -3.4805,-17.9855577 1.22508,34.770368 1.21205,6.270689 0.50122,21.894132 1.58105,-5.293272 1.75067,1.697273 1.71672,4.726816 1.39166,-21.59449071 1.79618,-0.795861 -0.14994,18.518191 4.92893,-8.389468 0.36443,-1.26691 -0.15595,-7.915635 0.41543,-15.9954131 -0.40941,-23.7748537 z m 5.78709,1.384697 c -1.49197,3.23626999 -1.12112,28.0248477 -2.3743,13.6641347 0.32193,16.925774 -1.47789,-12.1414527 -1.15656,5.522679 -0.14393,13.313658 3.50492,10.351363 2.84229,-2.757759 0.21168,-6.5813711 0.71759,19.700442 2.71844,9.003974 -0.0649,17.557586 0.57247,3.484677 2.08207,-3.565359 2.20776,9.841815 1.37979,-28.8303577 0.5612,-5.418617 0.0321,8.260537 -0.23373,-20.1511987 -1.50888,0.186029 -0.88951,15.22452 -0.96212,-13.82121871 -2.312,4.394347 -0.94744,-6.424289 -0.26621,-14.2384501 -0.85226,-21.0290317 z m 6.08096,-2.986568 c -1.70073,15.2948536 0.14272,39.9005857 4.47593,33.4418767 1.17372,-9.472336 1.52576,-34.3640797 1.3423,-10.964078 0.3047,15.324797 1.53431,-5.075603 1.69656,8.256957 1.73243,-9.218855 -1.24865,-32.8007107 -0.98513,-18.1408541 -0.35642,-27.8690599 -3.95403,41.8920291 -5.87874,11.0555021 -0.23413,-7.8640981 0.14032,-15.9424837 -0.65092,-23.6494037 z m 11.01774,10.1236486 c -0.93269,17.4266681 -1.14918,-5.02456761 -2.1552,11.9934251 -1.88474,-17.4466627 -1.60907,20.836633 1.85656,2.498903 0.352,-19.8622997 -0.24576,20.608819 3.41852,0.577995 -0.29147,16.011725 1.65337,-8.462986 1.98918,12.187217 1.43367,-3.911059 0.75007,-17.306693 -0.15475,-15.460494 -2.14951,-20.8808017 -4.7852,20.706908 -4.68201,-3.882906 -0.20406,-2.135195 0.95823,-6.8433091 -0.27222,-7.9139391 z m 6.61758,-4.95333661 c -0.63613,4.19309061 -1.73993,28.50166671 0.0241,13.19328371 -0.27022,4.410262 1.54428,16.304005 1.31424,4.698563 2.23309,11.083755 3.69543,34.949933 3.6478,9.167023 0.48872,-19.5944911 1.11435,20.370159 1.33866,-5.721939 -0.42846,-12.7429271 2.87528,8.288989 1.0352,-6.467962 -2.30787,-13.0250577 -2.47229,-17.1437397 -2.77806,-0.804814 0.12027,11.180849 -1.21522,9.637276 -1.18888,0.0398 -0.25618,22.199645 -2.33284,-15.1095167 -2.64904,-0.670511 -0.33637,-4.4536371 -0.172,-9.0663491 -0.74234,-13.43403271 z m 15.03644,4.48626761 c -1.35918,11.4576111 -0.0533,20.7007391 -1.52652,5.137679 -1.55275,19.1296101 0.18923,10.1928891 -3.62488,-1.115102 -3.77802,17.7017381 -1.03267,8.6394681 1.05076,7.4186201 0.93041,17.480087 2.88875,6.210599 2.83483,5.005964 1.30061,22.662735 0.41419,-23.1609447 2.99881,1.896834 0.96873,-7.641359 -1.53423,-11.658765 -1.733,-18.3439951 z m 4.37378,0.433744 c 1.17308,12.2886881 -5.84554,13.7263111 -2.18611,20.2874891 1.3767,-4.002883 0.31753,2.614104 2.71688,-4.589531 0.24697,7.884791 1.71223,-12.4457721 4.11239,1.523973 2.85896,0.71329 -0.68336,-14.1850261 -2.01179,-8.430753 -3.86803,4.248106 -1.17773,-2.517407 -2.63137,-8.7911781 z m 13.43823,-9.0420756 c 0.0686,4.59042599 -0.85315,29.4641627 -2.62323,13.6621466 0.77429,11.7804331 -2.62924,-2.990746 -2.07926,10.5169051 -0.99491,-9.7653141 -2.10284,-20.42656571 -2.7419,-3.458017 -0.92138,7.222339 0.3496,19.647317 1.12353,5.860024 1.34539,18.309176 3.41054,-17.7551591 3.04322,0.791881 0.82809,18.278935 0.16678,-11.181944 2.65101,0.100471 0.71219,-9.564259 0.78595,-21.1992477 1.35934,-4.671505 1.82685,-7.063962 -0.80119,-15.3280831 -0.73271,-22.8019127 z m 6.64232,4.49442599 c -0.44943,8.79028461 -1.95177,34.71465571 -2.54773,15.81713971 0.43579,11.578383 -4.13376,-29.308973 -3.12257,-4.37833 0.66632,10.458607 1.60879,14.879115 3.89004,20.358221 2.2806,-8.725321 1.33292,-32.29703071 2.20912,-9.399815 1.16678,3.828689 0.003,-14.4954101 1.79518,0.69837 2.99251,-10.527848 -1.83182,-8.260739 -1.15516,-17.2585421 -1.03087,15.6612491 0.22732,-2.276461 -1.06888,-5.83654461 z m 10.81628,2.16732801 c 0.0321,12.3681767 -2.37778,7.4562216 -2.64816,10.0066577 -0.30229,10.347287 -0.99615,12.537991 -2.92407,4.659466 -1.01396,14.585445 -2.11804,-12.4988941 -1.59797,7.581372 1.43564,22.185419 1.85331,-16.0965841 3.01256,3.481096 1.63228,12.587036 0.66311,-18.9592981 2.62775,-6.157277 -0.64956,-8.640165 2.12786,-12.0035721 2.71155,-2.191206 -0.60562,-5.565056 -0.33957,-11.6944771 -1.18166,-17.3801087 z m 3.83055,-4.953238 c -1.3753,5.6598626 -1.36384,37.0076307 -2.73492,17.5157027 -1.18896,18.421196 2.95746,9.049537 2.08155,-2.950156 1.44285,-4.8059051 -0.30791,26.276341 1.91717,15.218353 2.73813,-12.615192 1.16101,-4.03601 2.87921,-0.670514 0.36403,-5.664639 1.06022,-24.9205917 1.69262,-8.962289 1.17797,-16.61399271 -2.84188,-16.27644971 -1.69562,0.126352 -0.19685,12.433733 -1.50889,-20.0063517 -1.98401,-1.665538 -1.79105,8.480493 -1.91068,-16.32032271 -2.156,-18.6122007 z m 10.14924,0.37306 c -1.66849,9.6248416 -0.74935,38.5948757 -4.1874,19.5903147 0.7678,6.095498 2.41395,23.058975 3.16434,2.565456 2.43713,-14.2523751 0.56185,-7.668217 2.08886,-0.83068 -1.24056,-12.1096191 2.09405,16.23039 2.74442,2.541283 2.19064,7.510738 -0.68862,-17.6720901 -0.57391,-0.852566 -1.17087,-7.842513 -1.8501,-16.3170381 -3.23631,-23.0141057 z m 12.21809,0.733186 c -0.3512,13.3752387 -1.01825,21.9386017 -1.8734,17.4839697 -1.93598,4.630119 -2.71628,16.343899 -3.48952,0.619777 -1.7075,-22.5421637 -3.0834,26.079863 -0.91858,-2.34968 0.56942,2.500494 0.9357,24.710086 5.13327,8.213781 2.24004,-6.17797 0.54256,-20.1676127 2.35807,-3.603062 -0.0846,-6.814061 -0.32514,-13.8802121 -1.20984,-20.3646867 z m 4.01877,3.16285 c -3.51475,9.5994757 -2.59789,34.5033557 -0.71656,9.1068377 2.136,9.059483 2.28185,47.574175 2.6047,18.859315 1.4797,-11.626132 1.51097,-10.171398 2.21823,-0.314365 0.13671,-5.988155 3.96962,-21.2191411 0.66471,-21.2210321 -1.11001,14.0806691 -0.5412,7.1823471 -1.90956,-0.171116 0.34359,12.6453361 -2.00849,1.268106 -1.3445,14.1417521 -0.37887,-11.107333 -0.96424,-8.384991 -1.51702,-20.4017937 z m 7.84265,1.6510146 c -0.11305,10.3322641 -2.30758,20.2953471 -1.36223,4.02029 -3.32575,6.8431111 1.58863,30.8792041 1.02213,7.5856491 0.74029,-5.0544141 1.58791,2.555409 2.20985,-0.912255 0.27864,11.173688 1.0546,27.263805 1.31934,5.70284 0.77792,8.488751 0.70869,6.292572 2.42019,9.296252 2.31978,-7.132902 -0.36684,-20.9007001 -1.02289,-6.313166 -0.60975,-6.710401 -1.93334,-19.2312821 -2.00766,-3.69389 0.66303,-7.593607 -0.7463,-12.6777651 -2.57873,-15.6857201 z m 10.11625,-2.39255761 c -0.69683,8.95721461 -6.07915,40.81453071 -1.12131,17.52535471 1.8909,-8.3525601 2.2025,12.517398 3.37008,-1.542975 0.6286,4.063565 2.72952,19.564846 2.97756,2.470451 1.51466,-21.8805027 -2.80464,7.973034 -3.29544,-10.5548071 -2.29729,23.4503391 -0.61485,0.555114 -1.93089,-7.89802361 z m 12.42608,-0.913251 c -0.88446,4.45881061 -0.7791,22.97202671 -2.51462,9.43960661 -0.10023,16.7046231 -1.07257,-14.3694666 -1.51838,4.3276921 0.0842,24.96158 -4.80393,-20.8149447 -2.9246,2.968662 0.42673,11.169708 4.33606,16.663236 3.39859,1.245921 0.4259,13.585842 0.95952,7.39683 1.38481,-0.577995 0.47135,22.415719 1.54432,2.395143 2.23871,-7.5314311 0.33076,7.7699911 2.37385,31.8132471 1.21721,10.2681971 0.3063,-6.843409 -0.071,-13.9039881 -1.28172,-20.14124771 z m 4.51082,2.83923601 c -2.61979,5.2733736 -1.51106,22.6958627 -2.74684,14.6695067 -1.23457,9.82142 1.32065,25.159051 1.49157,5.595994 -0.0433,-20.6656197 0.9551,6.341719 4.63185,-0.247717 0.93281,21.665918 4.06997,-23.6506987 1.00533,-0.193995 -0.58349,-7.695178 -1.21701,-11.569229 -1.67033,-4.205727 -2.34655,-3.735272 -1.69386,-6.825004 -2.71158,-15.6177737 z m 7.87897,-10.238453 c -0.21248,12.9544276 -0.91111,24.1531827 -1.60923,30.7036167 1.67932,23.896319 1.61621,-27.4751087 1.70137,-2.49771 2.37698,2.8457 2.32915,9.063163 3.52223,10.513619 1.01981,-12.168313 1.66472,-28.3696541 3.22356,-12.75536 -0.14874,-9.3096821 -2.13315,-23.3982107 -2.72647,-8.4572151 -0.1323,20.9940121 -2.16867,11.5468471 -2.65497,1.4544341 0.19164,17.17637 -0.98669,-17.4368137 -1.45649,-18.9613847 z m 5.89113,19.1002627 0.004,0.0042 z m 1.7848,-6.9772121 c -1.12056,10.0821651 -1.33542,29.8669661 0.56468,9.2407401 1.90106,-11.1321047 0.76695,24.641047 2.40573,5.364898 0.68589,17.206214 2.39535,-18.05997271 2.40296,6.02029 1.4125,22.295446 1.70345,-22.6700967 2.2163,0.638679 1.05236,-12.311172 -0.98368,-14.331464 -1.60458,-3.015518 -0.47724,-11.205423 -2.13744,-16.2266081 -2.3144,-1.574709 0.2181,-16.1242411 -1.63289,-2.772184 -1.50499,-6.46458 0.65416,-8.2572551 -0.978,-6.5068581 -2.1657,-10.2097011 z m 12.4063,-4.95731661 C -88.12526,5.4904379 -86.9301,45.384257 -88.19483,17.627216 -88.60308,2.6528949 -89.96061,2.2775483 -90.05026,17.200437 c -1.47201,15.625035 2.2248,-9.5534161 1.59227,10.925775 1.96705,34.99112 1.20311,-41.972312 4.28113,-6.37753 1.38713,15.953628 0.94271,-12.2172621 1.85728,1.140367 2.20391,-11.214277 -1.85543,-12.88419 -1.69875,-4.666928 -0.66116,-6.266011 -1.00935,-12.6073311 -1.64256,-18.88309171 z m 6.63904,4.37962161 c 0.26541,15.1249361 -5.27192,9.2089041 -0.41952,20.6229431 0.8586,-14.098078 0.62197,-17.7944551 1.1358,-0.786908 2.19929,8.945676 2.44906,-12.552914 3.21344,5.012133 0.36804,-13.071418 0.33597,-13.848775 1.30037,-0.672501 2.97784,-10.289091 -0.19685,-14.584251 -0.17721,-14.893743 -1.20487,-13.86727771 -1.59396,19.218747 -1.80804,-1.073416 -2.29612,23.950041 -1.19966,-2.1909061 -3.24473,-8.2086101 z m 6.97419,0.680459 c -1.26941,10.6826441 -0.44741,33.5759781 0.33797,10.7721771 2.0336,15.427663 0.42297,-13.4413947 2.43239,5.468858 1.3536,5.202243 0.63757,-11.6083291 2.55671,1.433146 4.91758,2.829087 2.0571,-29.4777927 0.49862,-5.673992 -0.53518,-13.9554197 -2.90138,-0.208908 -4.72386,-8.2844131 z m 16.41847,0.991843 c -0.3961,6.8936471 -0.39811,15.6900981 -2.56212,5.6518061 0.27823,14.574998 -0.79934,0.523278 -2.18744,5.688615 -1.66444,-19.4755107 -1.25242,12.253472 -2.00938,-6.9105601 -3.42036,4.4603021 -0.96007,24.3157391 -0.27022,8.0188951 1.24357,24.138262 0.93089,-2.119278 1.58626,0.411858 0.65987,12.360118 1.15864,11.61947 1.54525,2.692896 2.52661,10.641753 1.22351,-12.2219371 2.57973,4.165535 1.85034,-3.445481 2.33573,-14.237852 1.31788,-19.7190451 z m 7.16078,-4.0396906 c -0.48918,12.1480197 -1.07636,23.0041607 -2.04999,4.7933706 -0.91408,5.1248461 -0.7591,19.9272611 -1.79526,4.7081141 -0.76118,8.538691 -1.10227,-9.8151527 -1.2719,4.684039 -4.13335,-26.086629 0.95975,43.004243 1.00842,13.885683 0.40897,-13.633693 0.44157,-1.598288 1.63393,-6.391957 0.61645,-20.1273201 0.81462,14.179256 2.40188,-6.320627 0.22492,-11.2281051 1.41988,21.539777 2.14357,2.287801 0.0489,-14.8656851 -1.77809,9.32152 -1.41723,-8.974624 l -0.27342,-4.4424961 z m 2.09358,-0.81078201 c -1.46839,10.15757171 0.27623,30.19028371 0.1291,8.34052261 0.40865,18.5848431 4.58394,26.5300211 4.25143,5.9392101 0.0281,17.138166 2.14726,10.071718 1.78486,-2.900714 0.69439,-12.01053471 2.78252,33.824385 1.51787,6.323115 0.81321,-23.0074427 -3.42815,-7.604651 -2.45833,1.797948 -1.03793,-20.32250571 -1.97904,-4.184535 -1.93486,6.341322 -1.18097,-9.989647 -2.13198,-11.147823 -3.29014,-25.84140371 z m 17.12016,-1.56098199 c -0.28024,11.7295957 -1.46586,23.3170317 -2.46828,4.2844156 -1.73664,1.889474 -0.92395,17.4641741 -1.63761,1.037506 -1.45997,8.8844931 0.14312,26.5818531 -2.70545,8.6784631 -2.205,4.711597 -1.81098,24.654875 -1.20507,7.480696 1.06442,23.098469 1.48398,-18.7152647 2.58096,6.276555 1.08944,17.884986 0.35882,-18.9566101 2.02731,-3.491143 -0.16076,-6.631012 1.03072,-20.9617817 1.23249,-4.895736 0.80272,-5.723335 1.48338,18.855833 1.99331,0.178064 0.087,-6.488056 1.19164,-13.1649311 0.18241,-19.5490267 z m 0.25939,0.63569399 c -0.80491,9.99541561 0.29147,52.03218971 1.90086,23.16810671 1.88081,-12.296051 2.04839,15.670201 2.23458,-1.083067 1.4366,14.298336 1.45128,-6.610719 4.2163,1.929067 0.42622,-3.952943 -1.40405,-21.4932187 -1.47853,-7.027054 -1.19838,-17.12881671 -2.16261,-6.7618331 -1.90692,4.159168 -0.10624,-3.795957 -0.78069,-18.4259697 -1.20129,-5.133699 -0.66637,-12.4870581 -0.13591,-7.2059251 -1.97683,0.02985 -2.72767,2.68026 -1.20708,-9.3970291 -1.78817,-16.03749171 z m 14.37436,-7.20254199 c 0.78479,13.2642166 -2.71723,37.8534317 -4.90046,13.0643556 -1.87058,-6.7067216 -0.74835,27.7996191 -0.15515,2.607538 0.261,12.6901001 0.64263,13.8011221 2.31168,16.7084021 1.77484,1.839335 3.35168,-24.63229171 3.38223,-0.932151 -0.059,20.078873 4.6357405,-1.160067 0.78375,2.51492 0.10785,-11.463681 -0.47264,-22.7573441 -1.42176,-33.9632637 z"
       style="color:#000000;font-style:normal;font-variant:normal;font-weight:normal;font-stretch:normal;font-size:medium;line-height:normal;font-family:sans-serif;font-variant-ligatures:normal;font-variant-position:normal;font-variant-caps:normal;font-variant-numeric:normal;font-variant-alternates:normal;font-feature-settings:normal;text-indent:0;text-align:start;text-decoration:none;text-decoration-line:none;text-decoration-style:solid;text-decoration-color:#000000;letter-spacing:normal;word-spacing:normal;text-transform:none;writing-mode:lr-tb;direction:ltr;text-orientation:mixed;dominant-baseline:auto;baseline-shift:baseline;text-anchor:start;white-space:normal;shape-padding:0;clip-rule:nonzero;display:inline;overflow:visible;visibility:visible;isolation:auto;mix-blend-mode:normal;color-interpolation:sRGB;color-interpolation-filters:linearRGB;solid-color:#000000;solid-opacity:1;vector-effect:none;fill:#0095f7;fill-opacity:1;fill-rule:nonzero;stroke:none;stroke-width:0.841644;stroke-linecap:butt;stroke-linejoin:round;stroke-miterlimit:10;stroke-dasharray:none;stroke-dashoffset:0;stroke-opacity:1;color-rendering:auto;image-rendering:auto;shape-rendering:auto;text-rendering:auto;enable-background:accumulate"
       clip-path="url(#clipPath1607-3)"
       transform="matrix(-1.2332916,0,0,1,-235.64101,12.512228)" />
    <path
       inkscape:connector-curvature="0"
       id="path482-5"
       d="m -276.18029,3.4613889 c -0.41795,6.8067011 -0.58032,17.6081241 -1.06952,3.424888 -1.51943,9.2511871 -1.2203,19.4422851 0.89745,13.9164251 0.004,26.556383 4.86795,-21.9869507 0.98874,-3.185434 -0.9027,-4.241541 0.0637,-10.7891871 -0.81667,-14.1558791 z m 4.91205,-6.6904036 c -0.90085,7.9683586 0.10464,15.2469037 -1.31985,9.7374576 -4.00895,8.5491381 2.69792,6.3955381 2.03272,18.3660821 2.38176,-12.450051 1.87684,11.538589 2.80689,-4.909069 0.31191,5.572518 1.46362,15.802413 1.43026,12.301621 2.05405,-10.205624 1.02402,-48.057067 0.55675,-17.30132 -0.73828,8.631907 -0.31472,-20.9255707 -1.89849,-3.118183 -4.43384,12.881705 -2.20279,0.502387 -3.60828,-15.0765887 z m 12.72328,-0.96697 c -0.40011,6.8523606 -1.43459,30.8582117 -2.03424,11.2794376 -1.10897,13.3086831 -0.49513,15.8034071 -0.75288,0.698367 -0.4975,-13.3107726 -1.93814,30.5343961 -1.92668,5.8914581 -3.4805,-17.9855577 1.22508,34.770368 1.21205,6.270689 0.50122,21.894132 1.58105,-5.293272 1.75067,1.697273 1.71672,4.726816 1.39166,-21.59449071 1.79618,-0.795861 -0.14994,18.518191 4.92893,-8.389468 0.36443,-1.26691 -0.15595,-7.915635 0.41543,-15.9954131 -0.40941,-23.7748537 z m 5.78709,1.384697 c -1.49197,3.23626999 -1.12112,28.0248477 -2.3743,13.6641347 0.32193,16.925774 -1.47789,-12.1414527 -1.15656,5.522679 -0.14393,13.313658 3.50492,10.351363 2.84229,-2.757759 0.21168,-6.5813711 0.71759,19.700442 2.71844,9.003974 -0.0649,17.557586 0.57247,3.484677 2.08207,-3.565359 2.20776,9.841815 1.37979,-28.8303577 0.5612,-5.418617 0.0321,8.260537 -0.23373,-20.1511987 -1.50888,0.186029 -0.88951,15.22452 -0.96212,-13.82121871 -2.312,4.394347 -0.94744,-6.424289 -0.26621,-14.2384501 -0.85226,-21.0290317 z m 6.08096,-2.986568 c -1.70073,15.2948536 0.14272,39.9005857 4.47593,33.4418767 1.17372,-9.472336 1.52576,-34.3640797 1.3423,-10.964078 0.3047,15.324797 1.53431,-5.075603 1.69656,8.256957 1.73243,-9.218855 -1.24865,-32.8007107 -0.98513,-18.1408541 -0.35642,-27.8690599 -3.95403,41.8920291 -5.87874,11.0555021 -0.23413,-7.8640981 0.14032,-15.9424837 -0.65092,-23.6494037 z m 11.01774,10.1236486 c -0.93269,17.4266681 -1.14918,-5.02456761 -2.1552,11.9934251 -1.88474,-17.4466627 -1.60907,20.836633 1.85656,2.498903 0.352,-19.8622997 -0.24576,20.608819 3.41852,0.577995 -0.29147,16.011725 1.65337,-8.462986 1.98918,12.187217 1.43367,-3.911059 0.75007,-17.306693 -0.15475,-15.460494 -2.14951,-20.8808017 -4.7852,20.706908 -4.68201,-3.882906 -0.20406,-2.135195 0.95823,-6.8433091 -0.27222,-7.9139391 z m 6.61758,-4.95333661 c -0.63613,4.19309061 -1.73993,28.50166671 0.0241,13.19328371 -0.27022,4.410262 1.54428,16.304005 1.31424,4.698563 2.23309,11.083755 3.69543,34.949933 3.6478,9.167023 0.48872,-19.5944911 1.11435,20.370159 1.33866,-5.721939 -0.42846,-12.7429271 2.87528,8.288989 1.0352,-6.467962 -2.30787,-13.0250577 -2.47229,-17.1437397 -2.77806,-0.804814 0.12027,11.180849 -1.21522,9.637276 -1.18888,0.0398 -0.25618,22.199645 -2.33284,-15.1095167 -2.64904,-0.670511 -0.33637,-4.4536371 -0.172,-9.0663491 -0.74234,-13.43403271 z m 15.03644,4.48626761 c -1.35918,11.4576111 -0.0533,20.7007391 -1.52652,5.137679 -1.55275,19.1296101 0.18923,10.1928891 -3.62488,-1.115102 -3.77802,17.7017381 -1.03267,8.6394681 1.05076,7.4186201 0.93041,17.480087 2.88875,6.210599 2.83483,5.005964 1.30061,22.662735 0.41419,-23.1609447 2.99881,1.896834 0.96873,-7.641359 -1.53423,-11.658765 -1.733,-18.3439951 z m 4.37378,0.433744 c 1.17308,12.2886881 -5.84554,13.7263111 -2.18611,20.2874891 1.3767,-4.002883 0.31753,2.614104 2.71688,-4.589531 0.24697,7.884791 1.71223,-12.4457721 4.11239,1.523973 2.85896,0.71329 -0.68336,-14.1850261 -2.01179,-8.430753 -3.86803,4.248106 -1.17773,-2.517407 -2.63137,-8.7911781 z m 13.43823,-9.0420756 c 0.0686,4.59042599 -0.85315,29.4641627 -2.62323,13.6621466 0.77429,11.7804331 -2.62924,-2.990746 -2.07926,10.5169051 -0.99491,-9.7653141 -2.10284,-20.42656571 -2.7419,-3.458017 -0.92138,7.222339 0.3496,19.647317 1.12353,5.860024 1.34539,18.309176 3.41054,-17.7551591 3.04322,0.791881 0.82809,18.278935 0.16678,-11.181944 2.65101,0.100471 0.71219,-9.564259 0.78595,-21.1992477 1.35934,-4.671505 1.82685,-7.063962 -0.80119,-15.3280831 -0.73271,-22.8019127 z m 6.64232,4.49442599 c -0.44943,8.79028461 -1.95177,34.71465571 -2.54773,15.81713971 0.43579,11.578383 -4.13376,-29.308973 -3.12257,-4.37833 0.66632,10.458607 1.60879,14.879115 3.89004,20.358221 2.2806,-8.725321 1.33292,-32.29703071 2.20912,-9.399815 1.16678,3.828689 0.003,-14.4954101 1.79518,0.69837 2.99251,-10.527848 -1.83182,-8.260739 -1.15516,-17.2585421 -1.03087,15.6612491 0.22732,-2.276461 -1.06888,-5.83654461 z m 10.81628,2.16732801 c 0.0321,12.3681767 -2.37778,7.4562216 -2.64816,10.0066577 -0.30229,10.347287 -0.99615,12.537991 -2.92407,4.659466 -1.01396,14.585445 -2.11804,-12.4988941 -1.59797,7.581372 1.43564,22.185419 1.85331,-16.0965841 3.01256,3.481096 1.63228,12.587036 0.66311,-18.9592981 2.62775,-6.157277 -0.64956,-8.640165 2.12786,-12.0035721 2.71155,-2.191206 -0.60562,-5.565056 -0.33957,-11.6944771 -1.18166,-17.3801087 z m 3.83055,-4.953238 c -1.3753,5.6598626 -1.36384,37.0076307 -2.73492,17.5157027 -1.18896,18.421196 2.95746,9.049537 2.08155,-2.950156 1.44285,-4.8059051 -0.30791,26.276341 1.91717,15.218353 2.73813,-12.615192 1.16101,-4.03601 2.87921,-0.670514 0.36403,-5.664639 1.06022,-24.9205917 1.69262,-8.962289 1.17797,-16.61399271 -2.84188,-16.27644971 -1.69562,0.126352 -0.19685,12.433733 -1.50889,-20.0063517 -1.98401,-1.665538 -1.79105,8.480493 -1.91068,-16.32032271 -2.156,-18.6122007 z m 10.14924,0.37306 c -1.66849,9.6248416 -0.74935,38.5948757 -4.1874,19.5903147 0.7678,6.095498 2.41395,23.058975 3.16434,2.565456 2.43713,-14.2523751 0.56185,-7.668217 2.08886,-0.83068 -1.24056,-12.1096191 2.09405,16.23039 2.74442,2.541283 2.19064,7.510738 -0.68862,-17.6720901 -0.57391,-0.852566 -1.17087,-7.842513 -1.8501,-16.3170381 -3.23631,-23.0141057 z m 12.21809,0.733186 c -0.3512,13.3752387 -1.01825,21.9386017 -1.8734,17.4839697 -1.93598,4.630119 -2.71628,16.343899 -3.48952,0.619777 -1.7075,-22.5421637 -3.0834,26.079863 -0.91858,-2.34968 0.56942,2.500494 0.9357,24.710086 5.13327,8.213781 2.24004,-6.17797 0.54256,-20.1676127 2.35807,-3.603062 -0.0846,-6.814061 -0.32514,-13.8802121 -1.20984,-20.3646867 z m 4.01877,3.16285 c -3.51475,9.5994757 -2.59789,34.5033557 -0.71656,9.1068377 2.136,9.059483 2.28185,47.574175 2.6047,18.859315 1.4797,-11.626132 1.51097,-10.171398 2.21823,-0.314365 0.13671,-5.988155 3.96962,-21.2191411 0.66471,-21.2210321 -1.11001,14.0806691 -0.5412,7.1823471 -1.90956,-0.171116 0.34359,12.6453361 -2.00849,1.268106 -1.3445,14.1417521 -0.37887,-11.107333 -0.96424,-8.384991 -1.51702,-20.4017937 z m 7.84265,1.6510146 c -0.11305,10.3322641 -2.30758,20.2953471 -1.36223,4.02029 -3.32575,6.8431111 1.58863,30.8792041 1.02213,7.5856491 0.74029,-5.0544141 1.58791,2.555409 2.20985,-0.912255 0.27864,11.173688 1.0546,27.263805 1.31934,5.70284 0.77792,8.488751 0.70869,6.292572 2.42019,9.296252 2.31978,-7.132902 -0.36684,-20.9007001 -1.02289,-6.313166 -0.60975,-6.710401 -1.93334,-19.2312821 -2.00766,-3.69389 0.66303,-7.593607 -0.7463,-12.6777651 -2.57873,-15.6857201 z m 10.11625,-2.39255761 c -0.69683,8.95721461 -6.07915,40.81453071 -1.12131,17.52535471 1.8909,-8.3525601 2.2025,12.517398 3.37008,-1.542975 0.6286,4.063565 2.72952,19.564846 2.97756,2.470451 1.51466,-21.8805027 -2.80464,7.973034 -3.29544,-10.5548071 -2.29729,23.4503391 -0.61485,0.555114 -1.93089,-7.89802361 z m 12.42608,-0.913251 c -0.88446,4.45881061 -0.7791,22.97202671 -2.51462,9.43960661 -0.10023,16.7046231 -1.07257,-14.3694666 -1.51838,4.3276921 0.0842,24.96158 -4.80393,-20.8149447 -2.9246,2.968662 0.42673,11.169708 4.33606,16.663236 3.39859,1.245921 0.4259,13.585842 0.95952,7.39683 1.38481,-0.577995 0.47135,22.415719 1.54432,2.395143 2.23871,-7.5314311 0.33076,7.7699911 2.37385,31.8132471 1.21721,10.2681971 0.3063,-6.843409 -0.071,-13.9039881 -1.28172,-20.14124771 z m 4.51082,2.83923601 c -2.61979,5.2733736 -1.51106,22.6958627 -2.74684,14.6695067 -1.23457,9.82142 1.32065,25.159051 1.49157,5.595994 -0.0433,-20.6656197 0.9551,6.341719 4.63185,-0.247717 0.93281,21.665918 4.06997,-23.6506987 1.00533,-0.193995 -0.58349,-7.695178 -1.21701,-11.569229 -1.67033,-4.205727 -2.34655,-3.735272 -1.69386,-6.825004 -2.71158,-15.6177737 z m 7.87897,-10.238453 c -0.21248,12.9544276 -0.91111,24.1531827 -1.60923,30.7036167 1.67932,23.896319 1.61621,-27.4751087 1.70137,-2.49771 2.37698,2.8457 2.32915,9.063163 3.52223,10.513619 1.01981,-12.168313 1.66472,-28.3696541 3.22356,-12.75536 -0.14874,-9.3096821 -2.13315,-23.3982107 -2.72647,-8.4572151 -0.1323,20.9940121 -2.16867,11.5468471 -2.65497,1.4544341 0.19164,17.17637 -0.98669,-17.4368137 -1.45649,-18.9613847 z m 5.89113,19.1002627 0.004,0.0042 z m 1.7848,-6.9772121 c -1.12056,10.0821651 -1.33542,29.8669661 0.56468,9.2407401 1.90106,-11.1321047 0.76695,24.641047 2.40573,5.364898 0.68589,17.206214 2.39535,-18.05997271 2.40296,6.02029 1.4125,22.295446 1.70345,-22.6700967 2.2163,0.638679 1.05236,-12.311172 -0.98368,-14.331464 -1.60458,-3.015518 -0.47724,-11.205423 -2.13744,-16.2266081 -2.3144,-1.574709 0.2181,-16.1242411 -1.63289,-2.772184 -1.50499,-6.46458 0.65416,-8.2572551 -0.978,-6.5068581 -2.1657,-10.2097011 z m 12.4063,-4.95731661 C -88.12526,5.4904379 -86.9301,45.384257 -88.19483,17.627216 -88.60308,2.6528949 -89.96061,2.2775483 -90.05026,17.200437 c -1.47201,15.625035 2.2248,-9.5534161 1.59227,10.925775 1.96705,34.99112 1.20311,-41.972312 4.28113,-6.37753 1.38713,15.953628 0.94271,-12.2172621 1.85728,1.140367 2.20391,-11.214277 -1.85543,-12.88419 -1.69875,-4.666928 -0.66116,-6.266011 -1.00935,-12.6073311 -1.64256,-18.88309171 z m 6.63904,4.37962161 c 0.26541,15.1249361 -5.27192,9.2089041 -0.41952,20.6229431 0.8586,-14.098078 0.62197,-17.7944551 1.1358,-0.786908 2.19929,8.945676 2.44906,-12.552914 3.21344,5.012133 0.36804,-13.071418 0.33597,-13.848775 1.30037,-0.672501 2.97784,-10.289091 -0.19685,-14.584251 -0.17721,-14.893743 -1.20487,-13.86727771 -1.59396,19.218747 -1.80804,-1.073416 -2.29612,23.950041 -1.19966,-2.1909061 -3.24473,-8.2086101 z m 6.97419,0.680459 c -1.26941,10.6826441 -0.44741,33.5759781 0.33797,10.7721771 2.0336,15.427663 0.42297,-13.4413947 2.43239,5.468858 1.3536,5.202243 0.63757,-11.6083291 2.55671,1.433146 4.91758,2.829087 2.0571,-29.4777927 0.49862,-5.673992 -0.53518,-13.9554197 -2.90138,-0.208908 -4.72386,-8.2844131 z m 16.41847,0.991843 c -0.3961,6.8936471 -0.39811,15.6900981 -2.56212,5.6518061 0.27823,14.574998 -0.79934,0.523278 -2.18744,5.688615 -1.66444,-19.4755107 -1.25242,12.253472 -2.00938,-6.9105601 -3.42036,4.4603021 -0.96007,24.3157391 -0.27022,8.0188951 1.24357,24.138262 0.93089,-2.119278 1.58626,0.411858 0.65987,12.360118 1.15864,11.61947 1.54525,2.692896 2.52661,10.641753 1.22351,-12.2219371 2.57973,4.165535 1.85034,-3.445481 2.33573,-14.237852 1.31788,-19.7190451 z m 7.16078,-4.0396906 c -0.48918,12.1480197 -1.07636,23.0041607 -2.04999,4.7933706 -0.91408,5.1248461 -0.7591,19.9272611 -1.79526,4.7081141 -0.76118,8.538691 -1.10227,-9.8151527 -1.2719,4.684039 -4.13335,-26.086629 0.95975,43.004243 1.00842,13.885683 0.40897,-13.633693 0.44157,-1.598288 1.63393,-6.391957 0.61645,-20.1273201 0.81462,14.179256 2.40188,-6.320627 0.22492,-11.2281051 1.41988,21.539777 2.14357,2.287801 0.0489,-14.8656851 -1.77809,9.32152 -1.41723,-8.974624 l -0.27342,-4.4424961 z m 2.09358,-0.81078201 c -1.46839,10.15757171 0.27623,30.19028371 0.1291,8.34052261 0.40865,18.5848431 4.58394,26.5300211 4.25143,5.9392101 0.0281,17.138166 2.14726,10.071718 1.78486,-2.900714 0.69439,-12.01053471 2.78252,33.824385 1.51787,6.323115 0.81321,-23.0074427 -3.42815,-7.604651 -2.45833,1.797948 -1.03793,-20.32250571 -1.97904,-4.184535 -1.93486,6.341322 -1.18097,-9.989647 -2.13198,-11.147823 -3.29014,-25.84140371 z m 17.12016,-1.56098199 c -0.28024,11.7295957 -1.46586,23.3170317 -2.46828,4.2844156 -1.73664,1.889474 -0.92395,17.4641741 -1.63761,1.037506 -1.45997,8.8844931 0.14312,26.5818531 -2.70545,8.6784631 -2.205,4.711597 -1.81098,24.654875 -1.20507,7.480696 1.06442,23.098469 1.48398,-18.7152647 2.58096,6.276555 1.08944,17.884986 0.35882,-18.9566101 2.02731,-3.491143 -0.16076,-6.631012 1.03072,-20.9617817 1.23249,-4.895736 0.80272,-5.723335 1.48338,18.855833 1.99331,0.178064 0.087,-6.488056 1.19164,-13.1649311 0.18241,-19.5490267 z m 0.25939,0.63569399 c -0.80491,9.99541561 0.29147,52.03218971 1.90086,23.16810671 1.88081,-12.296051 2.04839,15.670201 2.23458,-1.083067 1.4366,14.298336 1.45128,-6.610719 4.2163,1.929067 0.42622,-3.952943 -1.40405,-21.4932187 -1.47853,-7.027054 -1.19838,-17.12881671 -2.16261,-6.7618331 -1.90692,4.159168 -0.10624,-3.795957 -0.78069,-18.4259697 -1.20129,-5.133699 -0.66637,-12.4870581 -0.13591,-7.2059251 -1.97683,0.02985 -2.72767,2.68026 -1.20708,-9.3970291 -1.78817,-16.03749171 z m 14.37436,-7.20254199 c 0.78479,13.2642166 -2.71723,37.8534317 -4.90046,13.0643556 -1.87058,-6.7067216 -0.74835,27.7996191 -0.15515,2.607538 0.261,12.6901001 0.64263,13.8011221 2.31168,16.7084021 1.77484,1.839335 3.35168,-24.63229171 3.38223,-0.932151 -0.059,20.078873 4.6357405,-1.160067 0.78375,2.51492 0.10785,-11.463681 -0.47264,-22.7573441 -1.42176,-33.9632637 z"
       style="color:#000000;font-style:normal;font-variant:normal;font-weight:normal;font-stretch:normal;font-size:medium;line-height:normal;font-family:sans-serif;font-variant-ligatures:normal;font-variant-position:normal;font-variant-caps:normal;font-variant-numeric:normal;font-variant-alternates:normal;font-feature-settings:normal;text-indent:0;text-align:start;text-decoration:none;text-decoration-line:none;text-decoration-style:solid;text-decoration-color:#000000;letter-spacing:normal;word-spacing:normal;text-transform:none;writing-mode:lr-tb;direction:ltr;text-orientation:mixed;dominant-baseline:auto;baseline-shift:baseline;text-anchor:start;white-space:normal;shape-padding:0;clip-rule:nonzero;display:inline;overflow:visible;visibility:visible;isolation:auto;mix-blend-mode:normal;color-interpolation:sRGB;color-interpolation-filters:linearRGB;solid-color:#000000;solid-opacity:1;vector-effect:none;fill:#297106;fill-opacity:1;fill-rule:nonzero;stroke:none;stroke-width:0.841644;stroke-linecap:butt;stroke-linejoin:round;stroke-miterlimit:10;stroke-dasharray:none;stroke-dashoffset:0;stroke-opacity:1;color-rendering:auto;image-rendering:auto;shape-rendering:auto;text-rendering:auto;enable-background:accumulate"
       clip-path="url(#clipPath1607-5)"
       transform="matrix(1.2332916,0,0,-1,287.45758,82.0647)" />
    <path
       sodipodi:type="star"
       style="opacity:1;fill:none;fill-opacity:1;stroke:#7d006f;stroke-width:1.05572128;stroke-linejoin:round;stroke-miterlimit:10;stroke-dasharray:none;stroke-dashoffset:0;stroke-opacity:1"
       id="path826"
       sodipodi:sides="6"
       sodipodi:cx="16.057945"
       sodipodi:cy="17.467712"
       sodipodi:r1="14.183239"
       sodipodi:r2="12.283045"
       sodipodi:arg1="0.52359878"
       sodipodi:arg2="1.0471976"
       inkscape:flatsided="true"
       inkscape:rounded="0"
       inkscape:randomized="0"
       d="M 28.34099,24.559332 16.057945,31.650951 3.7749,24.559332 l 0,-14.183239 12.283045,-7.0916196 12.283046,7.0916196 z"
       transform="matrix(6.8288848,0,0,6.902378,-84.715591,-92.6122)" />
    <text
       xml:space="preserve"
       style="font-style:normal;font-variant:normal;font-weight:bold;font-stretch:normal;font-size:4.23333px;line-height:1.25;font-family:Helvetica;-inkscape-font-specification:'Helvetica Bold';font-variant-ligatures:normal;font-variant-caps:normal;font-variant-numeric:normal;font-feature-settings:normal;text-align:start;letter-spacing:0px;word-spacing:0px;writing-mode:lr-tb;text-anchor:start;fill:#000000;fill-opacity:1;stroke:none;stroke-width:0.264583"
       x="-31.406551"
       y="14.320574"
       id="text8550" />
    <g
       inkscape:label="MajorXGridlines"
       id="g1721"
       transform="matrix(0.7586513,0.44177265,-0.7586513,0.44177265,245.23112,28.500532)">
      <path
         inkscape:connector-curvature="0"
         d="M 26.458333,0 V 105.83333"
         style="fill:none;stroke:#000000;stroke-width:0.529167"
         inkscape:label="MajorXDiv1"
         id="path1715" />
      <path
         inkscape:connector-curvature="0"
         d="M 52.916667,0 V 105.83333"
         style="fill:none;stroke:#000000;stroke-width:0.529167"
         inkscape:label="MajorXDiv2"
         id="path1717" />
      <path
         inkscape:connector-curvature="0"
         d="M 79.375,0 V 105.83333"
         style="fill:none;stroke:#000000;stroke-width:0.529167"
         inkscape:label="MajorXDiv3"
         id="path1719" />
    </g>
    <g
       inkscape:label="MajorYGridlines"
       id="g1729"
       transform="matrix(0.7586513,0.44177265,-0.7586513,0.44177265,245.23112,28.500532)">
      <path
         inkscape:connector-curvature="0"
         d="M 0,26.458333 H 105.83333"
         style="fill:none;stroke:#000000;stroke-width:0.529167"
         inkscape:label="MajorYDiv1"
         id="path1723" />
      <path
         inkscape:connector-curvature="0"
         d="M 0,52.916667 H 105.83333"
         style="fill:none;stroke:#000000;stroke-width:0.529167"
         inkscape:label="MajorYDiv2"
         id="path1725" />
      <path
         inkscape:connector-curvature="0"
         d="M 0,79.375 H 105.83333"
         style="fill:none;stroke:#000000;stroke-width:0.529167"
         inkscape:label="MajorYDiv3"
         id="path1727" />
    </g>
    <g
       inkscape:label="SubMinorXGridlines"
       id="g1739"
       transform="matrix(0.7586513,0.44177265,-0.7586513,0.44177265,245.23112,28.500532)">
      <path
         inkscape:connector-curvature="0"
         d="M 13.229167,0 V 105.83333"
         style="fill:none;stroke:#000000;stroke-width:0.079375"
         inkscape:label="SubminorXDiv0:0:1"
         id="path1731" />
      <path
         inkscape:connector-curvature="0"
         d="M 39.6875,0 V 105.83333"
         style="fill:none;stroke:#000000;stroke-width:0.079375"
         inkscape:label="SubminorXDiv1:0:1"
         id="path1733" />
      <path
         inkscape:connector-curvature="0"
         d="M 66.145833,0 V 105.83333"
         style="fill:none;stroke:#000000;stroke-width:0.079375"
         inkscape:label="SubminorXDiv2:0:1"
         id="path1735" />
      <path
         inkscape:connector-curvature="0"
         d="M 92.604167,0 V 105.83333"
         style="fill:none;stroke:#000000;stroke-width:0.079375"
         inkscape:label="SubminorXDiv3:0:1"
         id="path1737" />
    </g>
    <g
       inkscape:label="SubMinorYGridlines"
       id="g1749"
       transform="matrix(0.7586513,0.44177265,-0.7586513,0.44177265,245.23112,28.500532)"
       style="fill:#ead0a5;fill-opacity:1">
      <path
         inkscape:connector-curvature="0"
         d="M 0,13.229167 H 105.83333"
         style="fill:#ead0a5;fill-opacity:1;stroke:#000000;stroke-width:0.079375"
         inkscape:label="SubminorXDiv0:0:1"
         id="path1741" />
      <path
         inkscape:connector-curvature="0"
         d="M 0,39.6875 H 105.83333"
         style="fill:#ead0a5;fill-opacity:1;stroke:#000000;stroke-width:0.079375"
         inkscape:label="SubminorXDiv1:0:1"
         id="path1743" />
      <path
         inkscape:connector-curvature="0"
         d="M 0,66.145833 H 105.83333"
         style="fill:#ead0a5;fill-opacity:1;stroke:#000000;stroke-width:0.079375"
         inkscape:label="SubminorXDiv2:0:1"
         id="path1745" />
      <path
         inkscape:connector-curvature="0"
         d="M 0,92.604167 H 105.83333"
         style="fill:#ead0a5;fill-opacity:1;stroke:#000000;stroke-width:0.079375"
         inkscape:label="SubminorXDiv3:0:1"
         id="path1747" />
    </g>
    <path
       inkscape:original-d="m 211.39042,89.812946 c -2.76611,-0.12393 -5.53282,-0.247855 -8.30013,-0.371791 -0.35418,1.5288 -0.70881,3.056944 -1.06412,4.585415 2.90929,0.371806 5.81779,0.743582 8.72578,1.11537 2.12842,-1.569468 4.25707,-3.139562 6.38471,-4.709343 -1.84368,-1.734836 -3.68834,-3.470041 -5.53341,-5.205062 -3.54679,0.578389 -7.09353,1.156683 -10.6412,1.735018 2.69679,1.817929 5.39213,3.635286 8.08731,5.452925 4.75322,-2.602284 9.50672,-5.205064 14.2592,-7.807596 -4.89403,-0.867455 -9.78931,-1.735023 -14.68484,-2.602529 0.63913,-3.594379 1.27753,-7.187951 1.91541,-10.781925 2.19974,-1.115363 4.39895,-2.230741 6.59754,-3.34611 2.90874,3.345598 5.81778,6.692227 8.72577,10.038337 4.04408,3.924289 8.0879,7.848908 12.13096,11.773359 6.31413,2.024119 12.62814,4.048386 18.94133,6.072585 3.61833,-2.602349 7.23659,-5.205074 10.85399,-7.807613 -4.25558,-1.569666 -8.51233,-3.139554 -12.76941,-4.709335 -5.95907,0.495771 -11.91754,0.991442 -17.8772,1.487164 -1.48932,-2.685416 -2.97895,-5.37031 -4.4693,-8.05546 1.34853,-2.850505 2.69636,-5.700788 4.04365,-8.551177 5.88854,0.371777 11.77685,0.743581 17.66438,1.115369 1.63208,4.337123 3.2639,8.675112 4.89495,13.012665 4.11512,1.487137 8.22978,2.974323 12.34378,4.461484 2.48327,2.023973 4.96649,4.048383 7.44884,6.072576 4.11485,-1.40443 8.22978,-2.809082 12.34377,-4.213628 -0.425,-3.304446 -0.85071,-6.609611 -1.27695,-9.914411 -4.9653,-0.578334 -9.93118,-1.156681 -14.89765,-1.735016 -3.90163,-3.924912 -7.80295,-7.848908 -11.70532,-11.773364 2.83835,-3.304934 5.6759,-6.60961 8.51296,-9.914409 6.17222,0.61962 12.34438,1.239301 18.51567,1.858949 -0.49594,3.097964 -0.99259,6.196504 -1.48976,9.294764 -6.66796,-0.660972 -13.33637,-1.321922 -20.00545,-1.982886 -8.01646,-3.594281 -16.03213,-7.187945 -24.04909,-10.781922 -6.73914,2.354788 -13.47824,4.709349 -20.21826,7.064021"
       inkscape:path-effect="#path-effect1783"
       inkscape:connector-curvature="0"
       id="path1781"
       d="m 211.39042,89.812946 c -2.76611,-0.123904 -5.53282,-0.247834 -7.09385,0.454521 -1.56103,0.702355 -1.91566,2.230499 -0.63839,3.18074 1.27727,0.950241 4.18577,1.322019 6.70387,0.722997 2.51811,-0.599022 4.64676,-2.169111 4.78871,-3.821129 0.14194,-1.652018 -1.70272,-3.38722 -4.39852,-3.965732 -2.6958,-0.578511 -6.24254,-2.25e-4 -6.66806,1.198095 -0.42553,1.198319 2.26982,3.015673 5.99404,2.623087 3.72422,-0.392586 8.47772,-2.995358 8.40701,-4.730176 -0.0707,-1.734817 -4.966,-2.602386 -7.09447,-4.833431 -2.12848,-2.231045 -1.49008,-5.824618 -0.071,-8.179351 1.41903,-2.354733 3.61824,-3.470117 6.17179,-2.354736 2.55356,1.115381 5.4626,4.46201 8.93866,8.09721 3.47606,3.635201 7.51988,7.559818 12.69859,10.534041 5.17871,2.974223 11.49272,4.998492 16.45841,4.709189 4.96569,-0.289303 8.58395,-2.89203 8.26492,-4.977895 -0.31902,-2.085866 -4.57577,-3.655748 -9.68381,-4.192876 -5.10804,-0.537127 -11.06651,-0.04145 -14.79123,-1.136153 -3.72471,-1.094697 -5.21434,-3.779594 -5.28527,-6.54766 -0.0709,-2.768066 1.27691,-5.618349 4.89506,-6.857521 3.61816,-1.239172 9.50647,-0.867371 13.26601,1.487164 3.75955,2.354535 5.39137,6.692526 8.26468,9.604868 2.87331,2.912341 6.98797,4.399526 10.28652,6.155144 3.29855,1.755617 5.78177,3.78003 9.08046,4.089675 3.29869,0.309645 7.41362,-1.095013 9.25785,-3.449378 1.84423,-2.354364 1.41853,-5.659531 -1.27695,-7.601104 -2.69549,-1.941574 -7.66137,-2.519912 -12.09556,-4.771421 -4.4342,-2.25151 -8.33552,-6.175507 -8.86755,-9.790496 -0.53203,-3.614988 2.30552,-6.919667 6.81033,-8.262079 4.5048,-1.342413 10.67696,-0.722736 13.51435,1.135994 2.83738,1.85873 2.34075,4.957273 -1.24153,6.175993 -3.58229,1.21872 -10.2507,0.557766 -17.59351,-1.569775 -7.34282,-2.127541 -15.35849,-5.721205 -22.73652,-6.341004 -7.37804,-0.619799 -14.11714,1.734763 -20.85709,4.089623"
       style="fill:none;stroke:#0095f7;stroke-width:1.41581;stroke-linecap:butt;stroke-linejoin:miter;stroke-miterlimit:4;stroke-dasharray:none;stroke-opacity:1;marker-start:url(#marker2131);marker-end:url(#marker2092)" />
  </g>
</svg>
