<?xml version="1.0" encoding="UTF-8" standalone="no"?>
<!-- Created with Inkscape (http://www.inkscape.org/) -->

<svg
   width="4.5in"
   height="2in"
   viewBox="0 0 4.5 2"
   version="1.1"
   id="SVGRoot"
   sodipodi:docname="spdm-hex.svg"
   inkscape:version="1.3.2 (1:1.3.2+202311252150+091e20ef0f)"
   inkscape:export-filename="spdm-hex.png"
   inkscape:export-xdpi="100"
   inkscape:export-ydpi="100"
   xmlns:inkscape="http://www.inkscape.org/namespaces/inkscape"
   xmlns:sodipodi="http://sodipodi.sourceforge.net/DTD/sodipodi-0.dtd"
   xmlns="http://www.w3.org/2000/svg"
   xmlns:svg="http://www.w3.org/2000/svg"
   xmlns:rdf="http://www.w3.org/1999/02/22-rdf-syntax-ns#"
   xmlns:cc="http://creativecommons.org/ns#"
   xmlns:dc="http://purl.org/dc/elements/1.1/">
  <defs
     id="defs2468">
    <marker
       inkscape:stockid="Arrow1Mstart"
       orient="auto"
       refY="0"
       refX="0"
       id="Arrow1Mstart"
       style="overflow:visible"
       inkscape:isstock="true">
      <path
         id="path4188"
         d="M 0,0 5,-5 -12.5,0 5,5 Z"
         style="fill:#c82f2f;fill-opacity:1;fill-rule:evenodd;stroke:#c82f2f;stroke-width:1pt;stroke-opacity:1"
         transform="matrix(0.4,0,0,0.4,4,0)" />
    </marker>
    <marker
       inkscape:stockid="Arrow1Sstart"
       orient="auto"
       refY="0"
       refX="0"
       id="Arrow1Sstart"
       style="overflow:visible"
       inkscape:isstock="true">
      <path
         id="path4194"
         d="M 0,0 5,-5 -12.5,0 5,5 Z"
         style="fill:#9fcce8;fill-opacity:1;fill-rule:evenodd;stroke:#9fcce8;stroke-width:1pt;stroke-opacity:1"
         transform="matrix(0.2,0,0,0.2,1.2,0)" />
    </marker>
    <clipPath
       clipPathUnits="userSpaceOnUse"
       id="clipPath3373">
      <rect
         style="opacity:1;fill:none;fill-opacity:0.760784;stroke:#b1b1b1;stroke-width:0.0556299;stroke-linecap:round;stroke-linejoin:miter;stroke-miterlimit:4;stroke-dasharray:none;stroke-dashoffset:0;stroke-opacity:1"
         id="rect3375"
         width="2.5190687"
         height="0.94465083"
         x="-1.1795232"
         y="-1.1374961"
         transform="scale(1,-1)" />
    </clipPath>
    <clipPath
       clipPathUnits="userSpaceOnUse"
       id="clipPath3513">
      <path
         sodipodi:type="star"
         style="opacity:1;fill:none;fill-opacity:0.760784;stroke:#b1b1b1;stroke-width:0.0546979;stroke-linecap:round;stroke-linejoin:miter;stroke-miterlimit:4;stroke-dasharray:none;stroke-dashoffset:0;stroke-opacity:1"
         id="path3515"
         sodipodi:sides="6"
         sodipodi:cx="0.86408043"
         sodipodi:cy="1.0022459"
         sodipodi:r1="0.96617424"
         sodipodi:r2="0.83673149"
         sodipodi:arg1="0.52359878"
         sodipodi:arg2="1.0471976"
         inkscape:flatsided="true"
         inkscape:rounded="0"
         inkscape:randomized="0"
         d="M 1.7008119,1.485333 0.86408042,1.9684201 0.02734899,1.485333 l 0,-0.96617422 0.83673144,-0.48308712 0.83673147,0.48308712 z"
         transform="matrix(0.93856409,0,0,-0.94275889,-0.81259422,2.108613)" />
    </clipPath>
    <clipPath
       clipPathUnits="userSpaceOnUse"
       id="clipPath3824">
      <path
         sodipodi:type="star"
         style="opacity:1;fill:none;fill-opacity:0.760784;stroke:#e6b1b1;stroke-width:0.0546979;stroke-linecap:round;stroke-linejoin:miter;stroke-miterlimit:4;stroke-dasharray:none;stroke-dashoffset:0;stroke-opacity:1"
         id="path3826"
         sodipodi:sides="6"
         sodipodi:cx="0.86408043"
         sodipodi:cy="1.0022459"
         sodipodi:r1="0.96617424"
         sodipodi:r2="0.83673149"
         sodipodi:arg1="0.52359878"
         sodipodi:arg2="1.0471976"
         inkscape:flatsided="true"
         inkscape:rounded="0"
         inkscape:randomized="0"
         d="M 1.7008119,1.485333 0.86408042,1.9684201 0.02734899,1.485333 l 0,-0.96617422 0.83673144,-0.48308712 0.83673147,0.48308712 z"
         transform="matrix(0.93856409,0,0,-0.94275889,-0.81812125,2.1011045)" />
    </clipPath>
  </defs>
  <sodipodi:namedview
     id="base"
     pagecolor="#ffffff"
     bordercolor="#666666"
     borderopacity="1.0"
     inkscape:pageopacity="0.0"
     inkscape:pageshadow="2"
     inkscape:zoom="1.8856181"
     inkscape:cx="214.78368"
     inkscape:cy="116.93778"
     inkscape:document-units="in"
     inkscape:current-layer="layer1"
     showgrid="false"
     inkscape:window-width="1877"
     inkscape:window-height="1048"
     inkscape:window-x="43"
     inkscape:window-y="0"
     inkscape:window-maximized="1"
     inkscape:snap-global="false"
     inkscape:showpageshadow="2"
     inkscape:pagecheckerboard="0"
     inkscape:deskcolor="#d1d1d1" />
  <metadata
     id="metadata2471">
    <rdf:RDF>
      <cc:Work
         rdf:about="">
        <dc:format>image/svg+xml</dc:format>
        <dc:type
           rdf:resource="http://purl.org/dc/dcmitype/StillImage" />
        <dc:title />
      </cc:Work>
    </rdf:RDF>
  </metadata>
  <g
     inkscape:label="Layer 1"
     inkscape:groupmode="layer"
     id="layer1"
     transform="translate(-1.570917e-5,-5.5249307e-5)">
    <path
       id="path3725"
       sodipodi:type="arc"
       sodipodi:start="1.5707963"
       sodipodi:ry="1.0416666"
       sodipodi:rx="0.25434411"
       sodipodi:open="true"
       sodipodi:end="4.712389"
       sodipodi:cy="-2.2273204"
       sodipodi:cx="0.66693181"
       transform="matrix(0.99582695,-0.09126159,-0.09126159,-0.99582695,0,0)"
       style="fill:none;stroke:#35ce5a;stroke-width:0;stroke-miterlimit:4;stroke-dasharray:none;stroke-opacity:1"
       d="m 0.66693181,-1.1856538 a 0.25434411,1.0416666 0 0 1 -0.22026846,-0.5208333 0.25434411,1.0416666 0 0 1 0,-1.0416666 0.25434411,1.0416666 0 0 1 0.22026846,-0.5208334"
       sodipodi:arc-type="arc" />
    <path
       id="path3727"
       sodipodi:type="arc"
       sodipodi:start="1.5707963"
       sodipodi:ry="1.0416666"
       sodipodi:rx="0.49042323"
       sodipodi:open="true"
       sodipodi:end="4.712389"
       sodipodi:cy="-2.2843351"
       sodipodi:cx="0.43309"
       transform="matrix(0.98105595,-0.19372462,-0.19372462,-0.98105595,0,0)"
       style="fill:none;stroke:#35ce5a;stroke-width:0;stroke-miterlimit:4;stroke-dasharray:none;stroke-opacity:1"
       d="m 0.43309,-1.2426685 a 0.49042323,1.0416666 0 0 1 -0.42471897,-0.5208333 0.49042323,1.0416666 0 0 1 -10e-9,-1.0416667 A 0.49042323,1.0416666 0 0 1 0.43309,-3.3260018"
       sodipodi:arc-type="arc" />
    <path
       id="path3729"
       sodipodi:type="arc"
       sodipodi:start="1.5707963"
       sodipodi:ry="1.0416666"
       sodipodi:rx="0.69314897"
       sodipodi:open="true"
       sodipodi:end="4.712389"
       sodipodi:cy="-2.3217905"
       sodipodi:cx="0.12264989"
       transform="matrix(0.94618865,-0.32361557,-0.32361557,-0.94618865,0,0)"
       style="fill:none;stroke:#35ce5a;stroke-width:0;stroke-miterlimit:4;stroke-dasharray:none;stroke-opacity:1"
       d="m 0.12264989,-1.2801238 a 0.69314897,1.0416666 0 0 1 -0.60028461,-0.5208333 0.69314897,1.0416666 0 0 1 0,-1.0416667 0.69314897,1.0416666 0 0 1 0.60028461,-0.5208333"
       sodipodi:arc-type="arc" />
    <path
       id="path3731"
       sodipodi:type="arc"
       sodipodi:start="1.5707963"
       sodipodi:ry="1.0416666"
       sodipodi:rx="0.84870595"
       sodipodi:open="true"
       sodipodi:end="4.712389"
       sodipodi:cy="-2.2980497"
       sodipodi:cx="-0.35315967"
       transform="matrix(0.86036561,-0.50967737,-0.50967737,-0.86036561,0,0)"
       style="fill:none;stroke:#35ce5a;stroke-width:0;stroke-miterlimit:4;stroke-dasharray:none;stroke-opacity:1"
       d="m -0.35315967,-1.2563831 a 0.84870595,1.0416666 0 0 1 -0.73500093,-0.5208333 0.84870595,1.0416666 0 0 1 0,-1.0416666 0.84870595,1.0416666 0 0 1 0.73500093,-0.5208333"
       sodipodi:arc-type="arc" />
    <path
       id="path3733"
       sodipodi:type="arc"
       sodipodi:start="1.5707963"
       sodipodi:ry="1.0416666"
       sodipodi:rx="0.94649309"
       sodipodi:open="true"
       sodipodi:end="4.712389"
       sodipodi:cy="-2.0131645"
       sodipodi:cx="-1.1631519"
       transform="matrix(0.61670964,-0.78719071,-0.78719071,-0.61670964,0,0)"
       style="fill:none;stroke:#35ce5a;stroke-width:0;stroke-miterlimit:4;stroke-dasharray:none;stroke-opacity:1"
       d="m -1.1631519,-0.97149789 a 0.94649309,1.0416666 0 0 1 -0.819687,-0.52083331 0.94649309,1.0416666 0 0 1 0,-1.0416666 0.94649309,1.0416666 0 0 1 0.819687,-0.5208333"
       sodipodi:arc-type="arc" />
    <path
       id="path3737"
       sodipodi:type="arc"
       sodipodi:start="4.712389"
       sodipodi:ry="1.0416666"
       sodipodi:rx="0.94649309"
       sodipodi:open="true"
       sodipodi:end="1.5707963"
       sodipodi:cy="-0.64751863"
       sodipodi:cx="2.2330413"
       transform="matrix(0.61670964,0.78719071,0.78719071,-0.61670964,0,0)"
       style="fill:none;stroke:#35ce5a;stroke-width:0;stroke-miterlimit:4;stroke-dasharray:none;stroke-opacity:1"
       d="M 2.2330413,-1.6891853 A 0.94649309,1.0416666 0 0 1 3.1795344,-0.64751863 0.94649309,1.0416666 0 0 1 2.2330413,0.39414799"
       sodipodi:arc-type="arc" />
    <path
       id="path3739"
       sodipodi:type="arc"
       sodipodi:start="4.712389"
       sodipodi:ry="1.0416666"
       sodipodi:rx="0.84870595"
       sodipodi:open="true"
       sodipodi:end="1.5707963"
       sodipodi:cy="-1.4138435"
       sodipodi:cx="1.845752"
       transform="matrix(0.86036561,0.50967737,0.50967737,-0.86036561,0,0)"
       style="fill:none;stroke:#35ce5a;stroke-width:0;stroke-miterlimit:4;stroke-dasharray:none;stroke-opacity:1"
       d="M 1.845752,-2.4555101 A 0.84870595,1.0416666 0 0 1 2.6944579,-1.4138435 0.84870595,1.0416666 0 0 1 1.845752,-0.37217689"
       sodipodi:arc-type="arc" />
    <path
       id="path3741"
       sodipodi:type="arc"
       sodipodi:start="4.712389"
       sodipodi:ry="1.0416666"
       sodipodi:rx="0.69314897"
       sodipodi:open="true"
       sodipodi:end="1.5707963"
       sodipodi:cy="-1.7603709"
       sodipodi:cx="1.5188313"
       transform="matrix(0.94618865,0.32361557,0.32361557,-0.94618865,0,0)"
       style="fill:none;stroke:#35ce5a;stroke-width:0;stroke-miterlimit:4;stroke-dasharray:none;stroke-opacity:1"
       d="m 1.5188313,-2.8020375 a 0.69314897,1.0416666 0 0 1 0.6931489,1.0416666 0.69314897,1.0416666 0 0 1 -0.6931489,1.04166668"
       sodipodi:arc-type="arc" />
    <path
       id="path3743"
       sodipodi:type="arc"
       sodipodi:start="4.712389"
       sodipodi:ry="1.0416666"
       sodipodi:rx="0.49042323"
       sodipodi:open="true"
       sodipodi:end="1.5707963"
       sodipodi:cy="-1.9482549"
       sodipodi:cx="1.2688801"
       transform="matrix(0.98105595,0.19372462,0.19372462,-0.98105595,0,0)"
       style="fill:none;stroke:#35ce5a;stroke-width:0;stroke-miterlimit:4;stroke-dasharray:none;stroke-opacity:1"
       d="m 1.2688801,-2.9899216 a 0.49042323,1.0416666 0 0 1 0.4904233,1.0416667 0.49042323,1.0416666 0 0 1 -0.4904233,1.04166658"
       sodipodi:arc-type="arc" />
    <path
       id="path3745"
       sodipodi:type="arc"
       sodipodi:start="4.712389"
       sodipodi:ry="1.0416666"
       sodipodi:rx="0.25434411"
       sodipodi:open="true"
       sodipodi:end="1.5707963"
       sodipodi:cy="-2.0689967"
       sodipodi:cx="1.0606636"
       transform="matrix(0.99582695,0.09126159,0.09126159,-0.99582695,0,0)"
       style="fill:none;stroke:#35ce5a;stroke-width:0;stroke-miterlimit:4;stroke-dasharray:none;stroke-opacity:1"
       d="M 1.0606636,-3.1106633 A 0.25434411,1.0416666 0 0 1 1.3150077,-2.0689967 0.25434411,1.0416666 0 0 1 1.0606636,-1.02733"
       sodipodi:arc-type="arc" />
    <circle
       r="1.0416666"
       cy="-2.1571603"
       cx="0.86741745"
       style="fill:none;stroke:#35ce5a;stroke-width:0;stroke-miterlimit:4;stroke-dasharray:none;stroke-opacity:1"
       id="path3785"
       transform="scale(1,-1)" />
    <path
       style="opacity:1;fill:#e9f0e7;fill-opacity:1;stroke:none;stroke-width:0.708053;stroke-linecap:round;stroke-linejoin:miter;stroke-miterlimit:4;stroke-dasharray:none;stroke-dashoffset:0;stroke-opacity:1"
       d=""
       id="path3966"
       inkscape:connector-curvature="0"
       transform="matrix(0.01041667,0,0,0.01041667,1.570917e-5,5.5249307e-5)" />
    <g
       id="g1"
       transform="translate(1.3781795)">
      <path
         sodipodi:type="star"
         style="opacity:1;fill:#29292b;fill-opacity:1;stroke:#e6b1b1;stroke-width:0.0648481;stroke-linecap:round;stroke-linejoin:miter;stroke-miterlimit:4;stroke-dasharray:none;stroke-dashoffset:0;stroke-opacity:1"
         id="path3026-9-9-9"
         sodipodi:sides="6"
         sodipodi:cx="0.86408043"
         sodipodi:cy="1.0022459"
         sodipodi:r1="0.96617424"
         sodipodi:r2="0.83673149"
         sodipodi:arg1="0.52359878"
         sodipodi:arg2="1.0471976"
         inkscape:flatsided="true"
         inkscape:rounded="0"
         inkscape:randomized="0"
         d="M 1.7008119,1.485333 0.86408042,1.9684201 0.02734899,1.485333 l 0,-0.96617422 0.83673144,-0.48308712 0.83673147,0.48308712 z"
         transform="matrix(0.93856409,0,0,0.94275889,0.05435299,0.05200091)" />
      <path
         sodipodi:type="star"
         style="opacity:1;fill:none;fill-opacity:0.760784;stroke:#aa72ab;stroke-width:0.0546979;stroke-linecap:round;stroke-linejoin:miter;stroke-miterlimit:4;stroke-dasharray:none;stroke-dashoffset:0;stroke-opacity:1"
         id="path3026"
         sodipodi:sides="6"
         sodipodi:cx="0.86408043"
         sodipodi:cy="1.0022459"
         sodipodi:r1="0.96617424"
         sodipodi:r2="0.83673149"
         sodipodi:arg1="0.52359878"
         sodipodi:arg2="1.0471976"
         inkscape:flatsided="true"
         inkscape:rounded="0"
         inkscape:randomized="0"
         d="M 1.7008119,1.485333 0.86408042,1.9684201 0.02734899,1.485333 l 0,-0.96617422 0.83673144,-0.48308712 0.83673147,0.48308712 z"
         transform="matrix(1.0010828,0,0,1.0022323,1.5697545e-5,-0.00444656)" />
      <path
         style="opacity:1;fill:#c6d9c2;fill-opacity:1;stroke:none;stroke-width:0.0208612;stroke-linecap:round;stroke-linejoin:miter;stroke-miterlimit:4;stroke-dasharray:none;stroke-dashoffset:0;stroke-opacity:1"
         d="m 1.061499,1.3947068 c -0.019336,-0.00141 -0.070752,-0.00386 -0.11425787,-0.00546 l -0.0791016,-0.0029 V 1.3417888 1.297235 l 0.0419922,0.00211 c 0.0230957,0.00116 0.0657227,0.00308 0.0947266,0.00428 0.083223,0.00342 0.07575,-6.802e-4 0.085829,0.04712 0.00472,0.022363 0.00799,0.041979 0.00727,0.043592 -7.167e-4,0.00161 -0.017124,0.00178 -0.036459,3.761e-4 z"
         id="path3884"
         inkscape:connector-curvature="0" />
      <path
         style="opacity:1;fill:#c6d9c2;fill-opacity:1;stroke:none;stroke-width:0.0208612;stroke-linecap:round;stroke-linejoin:miter;stroke-miterlimit:4;stroke-dasharray:none;stroke-dashoffset:0;stroke-opacity:1"
         d="m 0.63543487,1.3909223 c 0.0187559,-0.084225 0.0174127,-0.080605 0.0307899,-0.082974 0.006854,-0.00121 0.037071,-0.00318 0.0671491,-0.00438 0.0300781,-0.00119 0.0709473,-0.00312 0.0908203,-0.00428 l 0.0361328,-0.00211 v 0.044376 0.044376 l -0.1072903,0.00476 c -0.0590097,0.00262 -0.11007554,0.00583 -0.11347971,0.00713 -0.004869,0.00187 -0.005748,3.948e-4 -0.004122,-0.00691 z"
         id="path3886"
         inkscape:connector-curvature="0" />
      <path
         style="opacity:1;fill:#c6d9c2;fill-opacity:1;stroke:none;stroke-width:0.0208612;stroke-linecap:round;stroke-linejoin:miter;stroke-miterlimit:4;stroke-dasharray:none;stroke-dashoffset:0;stroke-opacity:1"
         d="m 0.41501439,1.423498 c 0,-0.00565 0.030462,-0.079743 0.0344078,-0.083688 0.003944,-0.00394 0.0510497,-0.012365 0.11479668,-0.020522 0.0264337,-0.00338 0.0542962,-0.00696 0.0619167,-0.00795 l 0.0138554,-0.0018 -0.00969,0.044541 -0.00969,0.044541 -0.0236969,0.00252 c -0.0235743,0.0025 -0.13930556,0.019044 -0.1672516,0.023903 -0.009213,0.0016 -0.0146484,0.00103 -0.0146484,-0.00154 z"
         id="path3888"
         inkscape:connector-curvature="0" />
      <path
         style="opacity:1;fill:#c6d9c2;fill-opacity:1;stroke:none;stroke-width:0.0208612;stroke-linecap:round;stroke-linejoin:miter;stroke-miterlimit:4;stroke-dasharray:none;stroke-dashoffset:0;stroke-opacity:1"
         d="m 0.22751433,1.4698499 c 0,-0.00475 0.031262,-0.061598 0.0433631,-0.078848 0.005533,-0.00789 0.0155671,-0.012562 0.0447348,-0.020839 0.031413,-0.00891 0.11285117,-0.029539 0.1166386,-0.029539 6.126e-4,0 -0.006507,0.018897 -0.0158202,0.041992 -0.009314,0.023096 -0.0173976,0.043276 -0.0179642,0.044846 -5.6656e-4,0.00157 -0.0353075,0.011588 -0.0772021,0.022264 -0.0418945,0.010676 -0.080127,0.020583 -0.084961,0.022016 -0.005534,0.00164 -0.008789,9.407e-4 -0.008789,-0.00189 z"
         id="path3890"
         inkscape:connector-curvature="0" />
      <path
         style="opacity:1;fill:#c6d9c2;fill-opacity:1;stroke:none;stroke-width:0.0208612;stroke-linecap:round;stroke-linejoin:miter;stroke-miterlimit:4;stroke-dasharray:none;stroke-dashoffset:0;stroke-opacity:1"
         d="m 0.16195706,1.4718843 c -0.0154536,-0.00881 -0.0275385,-0.017784 -0.0268554,-0.019933 0.002497,-0.00785 0.0328637,-0.025582 0.0734016,-0.042852 0.0228447,-0.00973 0.0425745,-0.017695 0.043844,-0.017695 0.001269,0 -0.003035,0.00906 -0.009566,0.020138 -0.006531,0.011076 -0.0178175,0.031941 -0.0250816,0.046365 -0.007454,0.014802 -0.016352,0.027049 -0.0204263,0.028114 -0.004115,0.00108 -0.0192989,-0.005 -0.0353162,-0.014139 z"
         id="path3892"
         inkscape:connector-curvature="0" />
      <path
         style="opacity:1;fill:#c6d9c2;fill-opacity:1;stroke:none;stroke-width:0.0208612;stroke-linecap:round;stroke-linejoin:miter;stroke-miterlimit:4;stroke-dasharray:none;stroke-dashoffset:0;stroke-opacity:1"
         d="m 1.2743897,1.4203635 c -0.016113,-0.00294 -0.058298,-0.00905 -0.093745,-0.013569 -0.035446,-0.00452 -0.0651,-0.00887 -0.065898,-0.00967 -7.979e-4,-7.98e-4 -0.00479,-0.017792 -0.00887,-0.037766 -0.00408,-0.019974 -0.00838,-0.039374 -0.00955,-0.043111 -0.00188,-0.00601 5.2e-5,-0.00654 0.016678,-0.00456 0.055117,0.00656 0.1084791,0.014088 0.1385588,0.019557 l 0.033816,0.00615 0.010562,0.024075 c 0.00581,0.013241 0.013788,0.033303 0.017731,0.044583 l 0.00717,0.020508 -0.00858,-4.229e-4 c -0.00472,-2.323e-4 -0.021762,-0.00283 -0.037875,-0.00577 z"
         id="path3894"
         inkscape:connector-curvature="0" />
      <path
         style="opacity:1;fill:#c6d9c2;fill-opacity:1;stroke:none;stroke-width:0.0208612;stroke-linecap:round;stroke-linejoin:miter;stroke-miterlimit:4;stroke-dasharray:none;stroke-dashoffset:0;stroke-opacity:1"
         d="m 1.4599366,1.4614348 c -0.021484,-0.00628 -0.056641,-0.01528 -0.078125,-0.019991 -0.021484,-0.00471 -0.040975,-0.00997 -0.043313,-0.011678 -0.00234,-0.00171 -0.00636,-0.010145 -0.00893,-0.01874 -0.00258,-0.0086 -0.00993,-0.027326 -0.016346,-0.041624 -0.00642,-0.014298 -0.011058,-0.026603 -0.010318,-0.027343 0.00197,-0.00197 0.089402,0.019834 0.1259683,0.031416 l 0.031434,0.00996 0.017906,0.030354 c 0.018973,0.032164 0.030555,0.053959 0.030555,0.057504 0,0.00366 -0.00844,0.00196 -0.048828,-0.00985 z"
         id="path3896"
         inkscape:connector-curvature="0" />
      <path
         id="path3749"
         sodipodi:type="arc"
         sodipodi:start="0.79566881"
         sodipodi:ry="0.16274364"
         sodipodi:rx="0.47290677"
         sodipodi:open="true"
         sodipodi:end="2.3459238"
         sodipodi:cy="-1.2850018"
         sodipodi:cx="0.86741745"
         style="fill:none;stroke:#35ce5a;stroke-width:0;stroke-miterlimit:4;stroke-dasharray:none;stroke-opacity:1"
         d="m 1.198361,-1.1687488 a 0.47290677,0.16274364 0 0 1 -0.66188708,0"
         transform="scale(1,-1)"
         sodipodi:arc-type="arc" />
      <path
         id="path3751"
         sodipodi:type="arc"
         sodipodi:start="0.52471001"
         sodipodi:ry="0.21041083"
         sodipodi:rx="0.61227632"
         sodipodi:open="true"
         sodipodi:end="2.6168826"
         sodipodi:cy="-1.3652569"
         sodipodi:cx="0.86741745"
         style="fill:none;stroke:#35ce5a;stroke-width:0;stroke-miterlimit:4;stroke-dasharray:none;stroke-opacity:1"
         d="m 1.3973238,-1.2598491 a 0.61227632,0.21041083 0 0 1 -0.52990635,0.105003 0.61227632,0.21041083 0 0 1 -0.52990631,-0.105003"
         transform="scale(1,-1)"
         sodipodi:arc-type="arc" />
      <path
         id="path3753"
         sodipodi:type="arc"
         sodipodi:start="0.37252697"
         sodipodi:ry="0.25292164"
         sodipodi:rx="0.73656958"
         sodipodi:open="true"
         sodipodi:end="2.7690657"
         sodipodi:cy="-1.4650114"
         sodipodi:cx="0.86741745"
         style="fill:none;stroke:#35ce5a;stroke-width:0;stroke-miterlimit:4;stroke-dasharray:none;stroke-opacity:1"
         d="M 1.5534662,-1.3729554 A 0.73656958,0.25292164 0 0 1 0.86741745,-1.2120897 0.73656958,0.25292164 0 0 1 0.18136875,-1.3729554"
         transform="scale(1,-1)"
         sodipodi:arc-type="arc" />
      <path
         id="path3755"
         sodipodi:type="arc"
         sodipodi:start="0.26762305"
         sodipodi:ry="0.28922927"
         sodipodi:rx="0.84272605"
         sodipodi:open="true"
         sodipodi:end="2.8739696"
         sodipodi:cy="-1.5818088"
         sodipodi:cx="0.86741745"
         style="fill:none;stroke:#35ce5a;stroke-width:0;stroke-miterlimit:4;stroke-dasharray:none;stroke-opacity:1"
         d="M 1.6801443,-1.5053251 A 0.84272605,0.28922927 0 0 1 0.86741745,-1.2925795 0.84272605,0.28922927 0 0 1 0.05469061,-1.5053251"
         transform="scale(1,-1)"
         sodipodi:arc-type="arc" />
      <path
         id="path3757"
         sodipodi:type="arc"
         sodipodi:start="0.18653192"
         sodipodi:ry="0.31843978"
         sodipodi:rx="0.92813182"
         sodipodi:open="true"
         sodipodi:end="2.9550607"
         sodipodi:cy="-1.7127734"
         sodipodi:cx="0.86741745"
         style="fill:none;stroke:#35ce5a;stroke-width:0;stroke-miterlimit:4;stroke-dasharray:none;stroke-opacity:1"
         d="M 1.7794493,-1.6537181 A 0.92813182,0.31843978 0 0 1 0.86741745,-1.3943337 0.92813182,0.31843978 0 0 1 -0.04461434,-1.6537181"
         transform="scale(1,-1)"
         sodipodi:arc-type="arc" />
      <path
         id="path3759"
         sodipodi:type="arc"
         sodipodi:start="0.11853851"
         sodipodi:ry="0.33983383"
         sodipodi:rx="0.99068385"
         sodipodi:open="true"
         sodipodi:end="3.0230541"
         sodipodi:cy="-1.8546802"
         sodipodi:cx="0.86741745"
         style="fill:none;stroke:#35ce5a;stroke-width:0;stroke-miterlimit:4;stroke-dasharray:none;stroke-opacity:1"
         d="M 1.8511492,-1.8144911 A 0.99068385,0.33983383 0 0 1 0.86741745,-1.5148464 0.99068385,0.33983383 0 0 1 -0.1163143,-1.814491"
         transform="scale(1,-1)"
         sodipodi:arc-type="arc" />
      <path
         id="path3761"
         sodipodi:type="arc"
         sodipodi:start="0.057679199"
         sodipodi:ry="0.35288471"
         sodipodi:rx="1.028842"
         sodipodi:open="true"
         sodipodi:end="3.0839135"
         sodipodi:cy="-2.004035"
         sodipodi:cx="0.86741745"
         style="fill:none;stroke:#35ce5a;stroke-width:0;stroke-miterlimit:4;stroke-dasharray:none;stroke-opacity:1"
         d="M 1.8945485,-1.9836922 A 1.028842,0.35288471 0 0 1 0.86741745,-1.6511503 1.028842,0.35288471 0 0 1 -0.15971357,-1.9836922"
         transform="scale(1,-1)"
         sodipodi:arc-type="arc" />
      <path
         id="path3763"
         sodipodi:type="arc"
         sodipodi:start="0"
         sodipodi:ry="0.35727099"
         sodipodi:rx="1.0416666"
         sodipodi:open="true"
         sodipodi:end="3.1415927"
         sodipodi:cy="-2.1571603"
         sodipodi:cx="0.86741745"
         style="fill:none;stroke:#35ce5a;stroke-width:0;stroke-miterlimit:4;stroke-dasharray:none;stroke-opacity:1"
         d="m 1.9090841,-2.1571603 a 1.0416666,0.35727099 0 0 1 -0.5208333,0.3094058 1.0416666,0.35727099 0 0 1 -1.04166669,0 1.0416666,0.35727099 0 0 1 -0.52083328,-0.3094058"
         transform="scale(1,-1)"
         sodipodi:arc-type="arc" />
      <path
         style="opacity:1;fill:#c6d9c2;fill-opacity:1;stroke:none;stroke-width:0.0208612;stroke-linecap:round;stroke-linejoin:miter;stroke-miterlimit:4;stroke-dasharray:none;stroke-dashoffset:0;stroke-opacity:1"
         d="m 1.5271402,1.4766082 c -0.00306,-0.00497 -0.014644,-0.026304 -0.025747,-0.047415 -0.018317,-0.034828 -0.019363,-0.038135 -0.011291,-0.035698 0.015168,0.00458 0.1033422,0.047402 0.1058055,0.051388 0.00177,0.00287 -0.041628,0.031265 -0.060436,0.039538 -0.00152,6.709e-4 -0.00527,-0.00285 -0.00833,-0.00781 z"
         id="path3898"
         inkscape:connector-curvature="0" />
      <path
         style="opacity:1;fill:#bdd3b8;fill-opacity:1;stroke:none;stroke-width:0.00737556;stroke-linecap:round;stroke-linejoin:miter;stroke-miterlimit:4;stroke-dasharray:none;stroke-dashoffset:0;stroke-opacity:1"
         d="m 0.26610141,1.5332181 -0.0548276,-0.031874 0.001738,-0.00431 c 0.001533,-0.0038 0.003276,-0.00485 0.0147766,-0.00887 0.0186572,-0.00652 0.0610272,-0.018675 0.0930457,-0.026686 0.0265434,-0.00664 0.069611,-0.016402 0.0723695,-0.016402 7.3646e-4,0 -4.8719e-4,0.00606 -0.002719,0.013465 -0.005902,0.019583 -0.0141026,0.051856 -0.0192136,0.075614 -0.002451,0.011394 -0.004619,0.020912 -0.004817,0.021152 -3.7531e-4,4.532e-4 -0.0436198,0.00994 -0.0448342,0.00984 -3.7979e-4,-3.13e-5 -0.0253629,-0.014403 -0.0555181,-0.031934 z"
         id="path3900"
         inkscape:connector-curvature="0" />
      <path
         style="opacity:1;fill:#bdd3b8;fill-opacity:1;stroke:none;stroke-width:0.00737556;stroke-linecap:round;stroke-linejoin:miter;stroke-miterlimit:4;stroke-dasharray:none;stroke-dashoffset:0;stroke-opacity:1"
         d="m 0.38019189,1.5469361 c 0.002738,-0.017459 0.0214563,-0.089632 0.0261757,-0.1009273 l 0.001835,-0.00439 0.0378463,-0.00656 c 0.0208155,-0.00361 0.0462363,-0.00779 0.0564907,-0.00929 0.0392125,-0.00575 0.1156816,-0.01468 0.11662815,-0.013619 2.3604e-4,2.646e-4 -0.001388,0.0126 -0.003609,0.027412 -0.002221,0.014812 -0.005467,0.0389 -0.007212,0.05353 -0.001746,0.014629 -0.003549,0.026974 -0.004007,0.027432 -4.5823e-4,4.583e-4 -0.0146122,0.00231 -0.0314532,0.00411 -0.0592812,0.00634 -0.11193276,0.01379 -0.16524147,0.023398 -0.0145929,0.00263 -0.0269466,0.00478 -0.0274526,0.00478 -5.0604e-4,0 -5.0594e-4,-0.00264 3.9e-7,-0.00587 z"
         id="path3902"
         inkscape:connector-curvature="0" />
      <path
         style="opacity:1;fill:#bdd3b8;fill-opacity:1;stroke:none;stroke-width:0.00737556;stroke-linecap:round;stroke-linejoin:miter;stroke-miterlimit:4;stroke-dasharray:none;stroke-dashoffset:0;stroke-opacity:1"
         d="m 0.61716817,1.5171294 c 0,-0.00696 0.0132522,-0.1050117 0.0143504,-0.1061762 5.4687e-4,-5.802e-4 0.031159,-0.00311 0.0622989,-0.00516 0.0340527,-0.00224 0.0856667,-0.00433 0.13638051,-0.00553 l 0.0314193,-7.448e-4 v 0.054428 0.054428 l -0.0100128,7.604e-4 c -0.005507,4.188e-4 -0.0305216,0.00107 -0.055588,0.00146 -0.0463283,7.094e-4 -0.099028,0.00322 -0.14639326,0.00697 -0.033329,0.00264 -0.0324551,0.00265 -0.0324551,-4.343e-4 z"
         id="path3904"
         inkscape:connector-curvature="0" />
      <path
         style="opacity:1;fill:#bdd3b8;fill-opacity:1;stroke:none;stroke-width:0.00737556;stroke-linecap:round;stroke-linejoin:miter;stroke-miterlimit:4;stroke-dasharray:none;stroke-dashoffset:0;stroke-opacity:1"
         d="m 1.1031892,1.519139 c -0.00222,-0.00201 -0.11025665,-0.0077 -0.16146996,-0.00851 -0.0254462,-4.01e-4 -0.051393,-0.00108 -0.0576596,-0.0015 l -0.0113938,-7.677e-4 v -0.054412 -0.054412 l 0.0321098,7.219e-4 c 0.0491862,0.00111 0.10347336,0.0033 0.13707106,0.00555 0.033968,0.00227 0.060377,0.00459 0.061159,0.00537 9.542e-4,9.542e-4 0.00703,0.042064 0.010581,0.071618 0.00194,0.016098 0.00382,0.030977 0.00418,0.033066 6.52e-4,0.00375 5.666e-4,0.0038 -0.00667,0.0038 -0.00403,0 -0.00759,-2.344e-4 -0.00791,-5.209e-4 z"
         id="path3906"
         inkscape:connector-curvature="0" />
      <path
         style="opacity:1;fill:#bdd3b8;fill-opacity:1;stroke:none;stroke-width:0.00737556;stroke-linecap:round;stroke-linejoin:miter;stroke-miterlimit:4;stroke-dasharray:none;stroke-dashoffset:0;stroke-opacity:1"
         d="m 1.3256562,1.5478192 c -0.047241,-0.0087 -0.1118527,-0.017801 -0.1696483,-0.023893 -0.01393,-0.00147 -0.025558,-0.0029 -0.02584,-0.00318 -2.823e-4,-2.823e-4 -0.00179,-0.011362 -0.00334,-0.024622 -0.00155,-0.01326 -0.00476,-0.037343 -0.00713,-0.05352 -0.00236,-0.016176 -0.00394,-0.029771 -0.0035,-0.030211 0.001,-10e-4 0.058182,0.0053 0.09759,0.010753 0.042093,0.00582 0.1125127,0.017786 0.1137426,0.019319 0.00203,0.00253 0.018433,0.063968 0.024298,0.091007 0.00157,0.00722 0.00316,0.014518 0.00355,0.016228 8.885e-4,0.0039 0.00203,0.00397 -0.029728,-0.00188 z"
         id="path3908"
         inkscape:connector-curvature="0" />
      <path
         style="opacity:1;fill:#bdd3b8;fill-opacity:1;stroke:none;stroke-width:0.00737556;stroke-linecap:round;stroke-linejoin:miter;stroke-miterlimit:4;stroke-dasharray:none;stroke-dashoffset:0;stroke-opacity:1"
         d="m 1.3838564,1.5590106 c -0.00787,-0.00175 -0.014776,-0.00371 -0.015351,-0.00435 -5.739e-4,-6.385e-4 -0.00179,-0.0052 -0.0027,-0.010139 -0.00263,-0.014286 -0.013494,-0.058339 -0.019542,-0.079234 -0.00305,-0.010536 -0.00524,-0.019464 -0.00486,-0.01984 0.00146,-0.00146 0.081543,0.017529 0.1169793,0.027744 0.03305,0.00953 0.062002,0.018947 0.062002,0.020175 0,0.00174 -0.1170024,0.069125 -0.1197587,0.068973 -0.00136,-7.29e-5 -0.0089,-0.00157 -0.016772,-0.00333 z"
         id="path3910"
         inkscape:connector-curvature="0" />
      <path
         style="opacity:1;fill:#b2cbac;fill-opacity:1;stroke:none;stroke-width:0.00737556;stroke-linecap:round;stroke-linejoin:miter;stroke-miterlimit:4;stroke-dasharray:none;stroke-dashoffset:0;stroke-opacity:1"
         d="m 1.2192466,1.6669563 c -3.427e-4,-3.156e-4 -0.016471,-0.00223 -0.03584,-0.00426 -0.01937,-0.00203 -0.037145,-0.00398 -0.039502,-0.00433 L 1.1396146,1.657718 1.1386552,1.636681 C 1.1376573,1.614792 1.1329152,1.551605 1.1313852,1.539815 l -8.792e-4,-0.00678 0.0116,9.385e-4 c 0.046763,0.00378 0.1603804,0.020045 0.2093091,0.029957 l 0.00712,0.00144 0.00151,0.00867 c 8.302e-4,0.00477 0.0015,0.00955 0.0015,0.010632 -1.04e-5,0.00171 -0.1352444,0.08138 -0.1399538,0.082453 -9.489e-4,2.156e-4 -0.00201,1.354e-4 -0.00235,-1.802e-4 z"
         id="path3912"
         inkscape:connector-curvature="0" />
      <path
         style="opacity:1;fill:#b2cbac;fill-opacity:1;stroke:none;stroke-width:0.00737556;stroke-linecap:round;stroke-linejoin:miter;stroke-miterlimit:4;stroke-dasharray:none;stroke-dashoffset:0;stroke-opacity:1"
         d="m 1.0922556,1.6542049 c -0.042567,-0.00356 -0.0944355,-0.00613 -0.1564059,-0.00776 l -0.0631839,-0.00166 v -0.06209 -0.06209 l 0.0521353,8.77e-4 c 0.0286744,4.823e-4 0.064565,0.00152 0.0797566,0.00231 0.034005,0.00176 0.1048135,0.00673 0.1105935,0.00776 l 0.00425,7.562e-4 0.00164,0.01819 c 0.00188,0.020799 0.00517,0.065761 0.00655,0.08966 l 9.417e-4,0.016228 -0.00744,-1.948e-4 c -0.00409,-1.073e-4 -0.017071,-10e-4 -0.028845,-0.00199 z"
         id="path3914"
         inkscape:connector-curvature="0" />
      <path
         style="opacity:1;fill:#b2cbac;fill-opacity:1;stroke:none;stroke-width:0.00737556;stroke-linecap:round;stroke-linejoin:miter;stroke-miterlimit:4;stroke-dasharray:none;stroke-dashoffset:0;stroke-opacity:1"
         d="m 0.60675703,1.646373 c 4.1396e-4,-0.00551 0.001389,-0.020267 0.002166,-0.032801 0.001659,-0.026749 0.005221,-0.070594 0.00625,-0.076942 8.7469e-4,-0.00539 -3.2948e-4,-0.00514 0.0379027,-0.008 C 0.70562493,1.5247 0.75708614,1.52235 0.80970856,1.52147 l 0.0523622,-8.76e-4 -9.1416e-4,0.032332 c -5.0281e-4,0.017783 -9.1563e-4,0.045733 -9.174e-4,0.062112 l -3.18e-6,0.02978 -0.0618028,0.00165 c -0.062438,0.00167 -0.11242776,0.00414 -0.15915439,0.00787 -0.0140448,0.00112 -0.0272772,0.00204 -0.0294053,0.00204 h -0.003869 z"
         id="path3916"
         inkscape:connector-curvature="0" />
      <path
         style="opacity:1;fill:#b2cbac;fill-opacity:1;stroke:none;stroke-width:0.00737556;stroke-linecap:round;stroke-linejoin:miter;stroke-miterlimit:4;stroke-dasharray:none;stroke-dashoffset:0;stroke-opacity:1"
         d="M 0.43823083,1.6331733 C 0.40476003,1.6136503 0.37601473,1.5967477 0.37435238,1.595612 l -0.003022,-0.00206 0.002229,-0.01312 c 0.001226,-0.00722 0.002706,-0.013635 0.003289,-0.014265 0.00206,-0.00222 0.0718294,-0.014176 0.12638155,-0.021649 0.0397792,-0.00545 0.0984696,-0.011779 0.0995162,-0.010733 4.7312e-4,4.729e-4 -4.3261e-4,0.016911 -0.002013,0.036528 -0.002917,0.036211 -0.005662,0.076738 -0.005662,0.083574 0,0.00454 0.00385,0.0038 -0.0490279,0.00947 -0.022028,0.00236 -0.0416047,0.00453 -0.0435037,0.00481 -0.00255,3.781e-4 -0.0193611,-0.00877 -0.0643087,-0.034984 z"
         id="path3918"
         inkscape:connector-curvature="0" />
      <path
         style="opacity:1;fill:#a4c19c;fill-opacity:1;stroke:none;stroke-width:0.00737556;stroke-linecap:round;stroke-linejoin:miter;stroke-miterlimit:4;stroke-dasharray:none;stroke-dashoffset:0;stroke-opacity:1"
         d="m 0.55407576,1.7001981 c -0.0198889,-0.011564 -0.0357366,-0.021411 -0.0352172,-0.021884 9.7844e-4,-8.896e-4 0.0643204,-0.00813 0.0710336,-0.00812 l 0.003798,6e-6 v 0.012908 c 0,0.016106 -0.001519,0.038204 -0.002624,0.038155 -4.5594e-4,-2.08e-5 -0.0171017,-0.0095 -0.0369906,-0.021061 z"
         id="path3920"
         inkscape:connector-curvature="0" />
      <path
         style="opacity:1;fill:#a4c19c;fill-opacity:1;stroke:none;stroke-width:0.00737556;stroke-linecap:round;stroke-linejoin:miter;stroke-miterlimit:4;stroke-dasharray:none;stroke-dashoffset:0;stroke-opacity:1"
         d="m 0.66242281,1.7631674 -0.059016,-0.034276 7.1948e-4,-0.021406 c 3.9573e-4,-0.011774 0.001051,-0.025251 0.001457,-0.029951 6.8323e-4,-0.00792 0.001009,-0.0086 0.004435,-0.00928 0.004628,-9.27e-4 0.0746558,-0.00581 0.1112075,-0.00775 0.0207777,-0.0011 0.1082185,-0.00373 0.13590321,-0.00407 l 0.003107,-4.16e-5 v 0.068831 0.068831 l -0.0493732,9.02e-4 c -0.0271553,4.959e-4 -0.0583847,0.00126 -0.0693987,0.0017 l -0.0200255,7.968e-4 z"
         id="path3922"
         inkscape:connector-curvature="0" />
      <path
         style="opacity:1;fill:#a4c19c;fill-opacity:1;stroke:none;stroke-width:0.00737556;stroke-linecap:round;stroke-linejoin:miter;stroke-miterlimit:4;stroke-dasharray:none;stroke-dashoffset:0;stroke-opacity:1"
         d="m 0.96174473,1.7957994 c -0.0136726,-5.292e-4 -0.0393087,-0.00104 -0.0569691,-0.00113 L 0.87266581,1.794493 V 1.725404 1.656316 l 0.0362531,7.802e-4 c 0.050858,0.00109 0.10220239,0.00312 0.14259529,0.00562 0.037463,0.00232 0.076549,0.00551 0.077241,0.0063 2.386e-4,2.729e-4 8.334e-4,0.011993 0.00132,0.026046 l 8.885e-4,0.02555 -0.066345,0.038325 c -0.060398,0.034889 -0.0668685,0.038303 -0.0721808,0.038078 -0.003209,-1.354e-4 -0.0170221,-6.791e-4 -0.0306947,-0.00121 z"
         id="path3924"
         inkscape:connector-curvature="0" />
      <path
         style="opacity:1;fill:#a4c19c;fill-opacity:1;stroke:none;stroke-width:0.00737556;stroke-linecap:round;stroke-linejoin:miter;stroke-miterlimit:4;stroke-dasharray:none;stroke-dashoffset:0;stroke-opacity:1"
         d="m 1.141967,1.7050683 c -3.9e-6,-0.00437 -4.083e-4,-0.014001 -8.989e-4,-0.021407 l -8.917e-4,-0.013465 0.00539,7.29e-5 c 0.00296,4.17e-5 0.017817,0.00145 0.033009,0.00314 l 0.027621,0.00307 -0.01312,0.0077 c -0.031147,0.018274 -0.049569,0.028833 -0.050307,0.028833 -4.354e-4,0 -7.958e-4,-0.00357 -8e-4,-0.00794 z"
         id="path3926"
         inkscape:connector-curvature="0" />
      <path
         style="opacity:1;fill:#8cb181;fill-opacity:1;stroke:none;stroke-width:0.00737556;stroke-linecap:round;stroke-linejoin:miter;stroke-miterlimit:4;stroke-dasharray:none;stroke-dashoffset:0;stroke-opacity:1"
         d="M 0.87266581,1.8373056 V 1.805541 h 0.0170393 c 0.0304242,0 0.0879219,0.0018 0.0879219,0.00275 0,9.323e-4 -0.10250988,0.060778 -0.1041069,0.060778 -4.6989e-4,0 -8.5427e-4,-0.014294 -8.5427e-4,-0.031765 z"
         id="path3928"
         inkscape:connector-curvature="0" />
      <path
         style="opacity:1;fill:#8cb181;fill-opacity:1;stroke:none;stroke-width:0.00737556;stroke-linecap:round;stroke-linejoin:miter;stroke-miterlimit:4;stroke-dasharray:none;stroke-dashoffset:0;stroke-opacity:1"
         d="m 0.80060295,1.8431456 -0.0589427,-0.034152 0.009224,-8.718e-4 c 0.005073,-4.792e-4 0.0317529,-0.00134 0.059288,-0.00192 l 0.0500637,-0.00105 v 0.036102 c 0,0.019856 -1.5541e-4,0.036088 -3.4531e-4,0.036072 -1.8989e-4,-2.08e-5 -0.0268695,-0.015398 -0.0592877,-0.03418 z"
         id="path3930"
         inkscape:connector-curvature="0" />
      <path
         style="opacity:1;fill:#b2cbac;fill-opacity:1;stroke:none;stroke-width:0.00737556;stroke-linecap:round;stroke-linejoin:miter;stroke-miterlimit:4;stroke-dasharray:none;stroke-dashoffset:0;stroke-opacity:1"
         d="m 1.3720698,1.5768613 c -4.615e-4,-0.0012 -8.385e-4,-0.00375 -8.385e-4,-0.00567 0,-0.00292 5.083e-4,-0.00337 0.00311,-0.00274 0.00171,4.104e-4 0.0055,0.00118 0.00842,0.00171 l 0.00531,9.635e-4 -0.00669,0.00394 c -0.00783,0.00461 -0.0082,0.00468 -0.00931,0.0018 z"
         id="path3932"
         inkscape:connector-curvature="0" />
      <path
         style="opacity:1;fill:#b2cbac;fill-opacity:1;stroke:none;stroke-width:0.00737556;stroke-linecap:round;stroke-linejoin:miter;stroke-miterlimit:4;stroke-dasharray:none;stroke-dashoffset:0;stroke-opacity:1"
         d="m 0.3479904,1.5805839 -0.0115862,-0.00675 0.009526,-0.0021 c 0.019159,-0.00423 0.0189824,-0.00421 0.0181459,-0.00203 -4.2427e-4,0.00111 -0.001211,0.00553 -0.001748,0.00982 -5.3688e-4,0.0043 -0.001376,0.00781 -0.001864,0.00781 -4.8833e-4,0 -0.006102,-0.00304 -0.0124737,-0.00675 z"
         id="path3934"
         inkscape:connector-curvature="0" />
      <path
         style="opacity:1;fill:#d3e2d0;fill-opacity:1;stroke:none;stroke-width:0.00737556;stroke-linecap:round;stroke-linejoin:miter;stroke-miterlimit:4;stroke-dasharray:none;stroke-dashoffset:0;stroke-opacity:1"
         d="m 0.16689679,1.4104865 c 0.002623,-0.00338 0.0187772,-0.020155 0.0358974,-0.037278 0.0307734,-0.030778 0.0313083,-0.031228 0.0470098,-0.039586 0.022463,-0.011957 0.0729245,-0.034243 0.0743589,-0.032841 2.5947e-4,2.542e-4 -0.004651,0.00626 -0.0109113,0.01334 -0.0126632,0.014327 -0.0269188,0.032393 -0.0380001,0.048156 -0.007002,0.00996 -0.007736,0.01056 -0.0167308,0.013667 -0.0189124,0.00653 -0.0486108,0.018672 -0.0701743,0.028684 -0.0121534,0.00564 -0.0230246,0.010652 -0.0241583,0.011131 -0.001134,4.792e-4 8.542e-5,-0.00189 0.002709,-0.00527 z"
         id="path3936"
         inkscape:connector-curvature="0" />
      <path
         style="opacity:1;fill:#d3e2d0;fill-opacity:1;stroke:none;stroke-width:0.00737556;stroke-linecap:round;stroke-linejoin:miter;stroke-miterlimit:4;stroke-dasharray:none;stroke-dashoffset:0;stroke-opacity:1"
         d="m 0.28709282,1.3653788 c 0,-0.00285 0.0346624,-0.044729 0.0509185,-0.06152 l 0.0130451,-0.013474 0.0173914,-0.00546 c 0.0336827,-0.010571 0.0603709,-0.017517 0.11426123,-0.029738 0.002347,-5.323e-4 3.5156e-4,0.00326 -0.009667,0.018361 -0.009357,0.014106 -0.0267348,0.043928 -0.030476,0.052299 -5.625e-5,1.261e-4 -0.0144068,0.00339 -0.0318898,0.00725 -0.0338399,0.00747 -0.0770918,0.018689 -0.10597435,0.027482 -0.009685,0.00295 -0.0176086,0.00511 -0.0176091,0.0048 z"
         id="path3938"
         inkscape:connector-curvature="0" />
      <path
         style="opacity:1;fill:#d3e2d0;fill-opacity:1;stroke:none;stroke-width:0.00737556;stroke-linecap:round;stroke-linejoin:miter;stroke-miterlimit:4;stroke-dasharray:none;stroke-dashoffset:0;stroke-opacity:1"
         d="m 0.45696423,1.3229874 c 0,-0.00328 0.0296014,-0.05067 0.0410591,-0.06573 l 0.004728,-0.00621 0.0202648,-0.00374 c 0.0281343,-0.0052 0.0802616,-0.01283 0.11072479,-0.016216 0.0140524,-0.00156 0.0275434,-0.00311 0.0299802,-0.00343 l 0.00443,-5.885e-4 -0.002867,0.00715 c -0.004087,0.010201 -0.0116394,0.032489 -0.0164311,0.048493 -0.002259,0.00754 -0.004259,0.013868 -0.004444,0.014054 -1.8521e-4,1.854e-4 -0.009964,0.00135 -0.0217305,0.00259 -0.0515277,0.00543 -0.13813822,0.017963 -0.16260793,0.023537 -0.001709,3.896e-4 -0.003107,4.323e-4 -0.003107,9.37e-5 z"
         id="path3940"
         inkscape:connector-curvature="0" />
      <path
         style="opacity:1;fill:#d3e2d0;fill-opacity:1;stroke:none;stroke-width:0.00737556;stroke-linecap:round;stroke-linejoin:miter;stroke-miterlimit:4;stroke-dasharray:none;stroke-dashoffset:0;stroke-opacity:1"
         d="m 0.65721915,1.2948562 c 0,-0.00258 0.0125801,-0.040768 0.0181889,-0.055208 0.005068,-0.013046 0.005788,-0.014157 0.009192,-0.014165 0.002031,-5e-6 0.0151906,-9.031e-4 0.029243,-0.002 0.0281592,-0.00219 0.078389,-0.00447 0.12049821,-0.00547 l 0.0272761,-6.489e-4 v 0.035137 0.035137 h -0.0314387 c -0.0433283,0 -0.13192298,0.00418 -0.16501822,0.00778 -0.005103,5.552e-4 -0.007941,3.542e-4 -0.007941,-5.635e-4 z"
         id="path3942"
         inkscape:connector-curvature="0" />
      <path
         style="opacity:1;fill:#d3e2d0;fill-opacity:1;stroke:none;stroke-width:0.00737556;stroke-linecap:round;stroke-linejoin:miter;stroke-miterlimit:4;stroke-dasharray:none;stroke-dashoffset:0;stroke-opacity:1"
         d="M 1.0377034,1.2931207 C 0.9934442,1.2897607 0.9419531,1.2876407 0.90446061,1.2876407 H 0.87266581 V 1.252377 1.2171136 l 0.0196802,7.197e-4 c 0.0108241,3.959e-4 0.0324206,0.00105 0.0479921,0.00146 0.0264339,6.875e-4 0.0800763,0.00377 0.10347539,0.00594 l 0.010253,9.521e-4 0.00371,0.00906 c 0.00435,0.010636 0.012126,0.033168 0.016999,0.049286 l 0.00344,0.011394 -0.00438,-1.969e-4 c -0.00241,-1.083e-4 -0.018671,-0.00128 -0.036141,-0.00261 z"
         id="path3944"
         inkscape:connector-curvature="0" />
      <path
         style="opacity:1;fill:#d3e2d0;fill-opacity:1;stroke:none;stroke-width:0.00737556;stroke-linecap:round;stroke-linejoin:miter;stroke-miterlimit:4;stroke-dasharray:none;stroke-dashoffset:0;stroke-opacity:1"
         d="m 1.2744074,1.3229385 c -0.00225,-0.00225 -0.1067145,-0.01757 -0.156602,-0.02296 -0.015192,-0.00164 -0.027652,-0.00307 -0.027689,-0.00317 -4.17e-5,-1.042e-4 -0.00218,-0.00734 -0.00476,-0.016071 -0.00258,-0.00874 -0.00768,-0.024211 -0.011347,-0.034391 -0.00366,-0.01018 -0.00649,-0.018658 -0.00629,-0.01884 0.00158,-0.00143 0.093756,0.010915 0.1350204,0.018081 0.027544,0.00478 0.028417,0.00504 0.032166,0.00933 0.00884,0.010118 0.042411,0.063622 0.042411,0.067588 0,0.00113 -0.00193,0.00142 -0.00291,4.354e-4 z"
         id="path3946"
         inkscape:connector-curvature="0" />
      <path
         style="opacity:1;fill:#d3e2d0;fill-opacity:1;stroke:none;stroke-width:0.00737556;stroke-linecap:round;stroke-linejoin:miter;stroke-miterlimit:4;stroke-dasharray:none;stroke-dashoffset:0;stroke-opacity:1"
         d="m 1.4319985,1.3613268 c -0.025657,-0.00841 -0.084192,-0.023407 -0.1286574,-0.032964 l -0.010576,-0.00227 -0.00928,-0.016808 c -0.0051,-0.00924 -0.014779,-0.02516 -0.021504,-0.035367 -0.00672,-0.010208 -0.012052,-0.018734 -0.011839,-0.018948 0.00158,-0.00158 0.079847,0.018579 0.1146413,0.029529 l 0.020487,0.00645 0.015047,0.016372 c 0.020386,0.02218 0.050166,0.059261 0.047308,0.058904 -6.219e-4,-7.29e-5 -0.00766,-0.00228 -0.015631,-0.00489 z"
         id="path3948"
         inkscape:connector-curvature="0" />
      <path
         style="opacity:1;fill:#d3e2d0;fill-opacity:1;stroke:none;stroke-width:0.00737556;stroke-linecap:round;stroke-linejoin:miter;stroke-miterlimit:4;stroke-dasharray:none;stroke-dashoffset:0;stroke-opacity:1"
         d="m 1.5514609,1.4069858 c -0.017031,-0.00842 -0.057357,-0.025101 -0.076083,-0.031471 -0.00837,-0.00285 -0.00892,-0.00334 -0.017866,-0.01599 -0.00989,-0.013996 -0.024254,-0.03212 -0.037807,-0.047716 -0.00462,-0.00532 -0.00783,-0.00986 -0.00713,-0.010095 0.00231,-7.781e-4 0.036286,0.01387 0.061389,0.026469 0.024009,0.01205 0.02519,0.012846 0.04198,0.028318 0.015579,0.014355 0.054168,0.055006 0.05531,0.058266 7.688e-4,0.00219 -0.00115,0.00144 -0.019795,-0.00778 z"
         id="path3950"
         inkscape:connector-curvature="0" />
      <path
         style="opacity:1;fill:#dbe7d9;fill-opacity:1;stroke:none;stroke-width:0.00737556;stroke-linecap:round;stroke-linejoin:miter;stroke-miterlimit:4;stroke-dasharray:none;stroke-dashoffset:0;stroke-opacity:1"
         d="m 1.4433029,1.3013726 c -0.0048,-0.00221 -0.018735,-0.00781 -0.030974,-0.012435 -0.021876,-0.00828 -0.022442,-0.00859 -0.033402,-0.018802 -0.00613,-0.00571 -0.01625,-0.014518 -0.022484,-0.019572 -0.00623,-0.00505 -0.01078,-0.00938 -0.0101,-0.00962 0.00176,-6.157e-4 0.032295,0.014903 0.048851,0.02483 0.00771,0.00462 0.022717,0.014216 0.033352,0.02132 0.028886,0.019296 0.031828,0.022142 0.014757,0.014279 z"
         id="path3952"
         inkscape:connector-curvature="0" />
      <path
         style="opacity:1;fill:#dbe7d9;fill-opacity:1;stroke:none;stroke-width:0.00737556;stroke-linecap:round;stroke-linejoin:miter;stroke-miterlimit:4;stroke-dasharray:none;stroke-dashoffset:0;stroke-opacity:1"
         d="m 1.3449912,1.2667064 c -0.01649,-0.00509 -0.067008,-0.017781 -0.08971,-0.022533 -0.00946,-0.00198 -0.017255,-0.00373 -0.017318,-0.00389 -7.458e-4,-0.0019 -0.026236,-0.03017 -0.033566,-0.037233 -0.00532,-0.00513 -0.00896,-0.00932 -0.00808,-0.00931 0.00373,3.13e-5 0.053199,0.012778 0.074789,0.019276 0.021986,0.00662 0.024444,0.00771 0.03867,0.017154 0.015098,0.010026 0.038082,0.02739 0.047996,0.03626 0.00636,0.00569 0.00486,0.00572 -0.012779,2.761e-4 z"
         id="path3954"
         inkscape:connector-curvature="0" />
      <path
         style="opacity:1;fill:#dbe7d9;fill-opacity:1;stroke:none;stroke-width:0.00737556;stroke-linecap:round;stroke-linejoin:miter;stroke-miterlimit:4;stroke-dasharray:none;stroke-dashoffset:0;stroke-opacity:1"
         d="m 1.1992885,1.2336054 c -0.022044,-0.00414 -0.076207,-0.011754 -0.1080054,-0.015186 l -0.029284,-0.00316 -0.00675,-0.013884 c -0.00371,-0.00764 -0.0093,-0.018074 -0.012407,-0.023195 -0.00311,-0.00512 -0.00523,-0.00931 -0.00471,-0.0093 0.010241,1.437e-4 0.085673,0.010641 0.1132813,0.015766 0.016795,0.00312 0.018986,0.00387 0.024859,0.00858 0.00832,0.00667 0.040099,0.037746 0.041818,0.040896 0.00166,0.00304 -8.34e-5,0.003 -0.018804,-5.188e-4 z"
         id="path3956"
         inkscape:connector-curvature="0" />
      <path
         style="opacity:1;fill:#dbe7d9;fill-opacity:1;stroke:none;stroke-width:0.00737556;stroke-linecap:round;stroke-linejoin:miter;stroke-miterlimit:4;stroke-dasharray:none;stroke-dashoffset:0;stroke-opacity:1"
         d="m 1.0225117,1.2122838 c -0.028532,-0.0023 -0.0726467,-0.00443 -0.11566444,-0.00558 l -0.0341815,-9.135e-4 v -0.022823 -0.022823 l 0.0369436,9.573e-4 c 0.0348367,9.021e-4 0.0906188,0.00395 0.10610294,0.0058 0.00682,8.145e-4 0.00717,0.00108 0.012819,0.00973 0.007,0.010717 0.01953,0.033943 0.01953,0.03619 0,8.865e-4 -7.771e-4,0.00153 -0.00173,0.00142 -9.489e-4,-1.042e-4 -0.01167,-9.906e-4 -0.023823,-0.00197 z"
         id="path3958"
         inkscape:connector-curvature="0" />
      <path
         style="opacity:1;fill:#dbe7d9;fill-opacity:1;stroke:none;stroke-width:0.00737556;stroke-linecap:round;stroke-linejoin:miter;stroke-miterlimit:4;stroke-dasharray:none;stroke-dashoffset:0;stroke-opacity:1"
         d="m 0.68622159,1.2136119 c 0,-0.00193 0.0152403,-0.029775 0.0206744,-0.037777 0.00515,-0.00758 0.005889,-0.00813 0.0120857,-0.00888 0.0201434,-0.00244 0.0971929,-0.00634 0.12571753,-0.00636 l 0.0169181,-1.04e-5 v 0.022625 0.022625 l -0.034872,9.104e-4 c -0.0518326,0.00135 -0.11735253,0.00481 -0.13465417,0.00709 -0.003228,4.271e-4 -0.00587,3.26e-4 -0.00587,-2.25e-4 z"
         id="path3960"
         inkscape:connector-curvature="0" />
      <path
         style="opacity:1;fill:#dbe7d9;fill-opacity:1;stroke:none;stroke-width:0.00737556;stroke-linecap:round;stroke-linejoin:miter;stroke-miterlimit:4;stroke-dasharray:none;stroke-dashoffset:0;stroke-opacity:1"
         d="m 0.52159695,1.2285997 c 0.007933,-0.00913 0.0236873,-0.024397 0.0349723,-0.033895 0.00736,-0.00619 0.008546,-0.00668 0.0227876,-0.0093 0.0230116,-0.00424 0.0553488,-0.00914 0.081315,-0.012313 0.012913,-0.00158 0.0265225,-0.00325 0.0302433,-0.0037 l 0.006765,-8.323e-4 -0.004398,0.00741 c -0.002419,0.00407 -0.008056,0.014605 -0.0125273,0.0234 l -0.00813,0.015992 -0.0232403,0.0024 c -0.0320618,0.00331 -0.0690424,0.00834 -0.10298437,0.014006 -0.0157545,0.00263 -0.0293332,0.00478 -0.0301749,0.00478 -8.4167e-4,0 0.001575,-0.00357 0.005371,-0.00794 z"
         id="path3962"
         inkscape:connector-curvature="0" />
      <path
         style="opacity:1;fill:#dbe7d9;fill-opacity:1;stroke:none;stroke-width:0.00737556;stroke-linecap:round;stroke-linejoin:miter;stroke-miterlimit:4;stroke-dasharray:none;stroke-dashoffset:0;stroke-opacity:1"
         d="m 0.37824334,1.2655816 c 0.009199,-0.0084 0.0305899,-0.024631 0.0461446,-0.035015 0.014604,-0.00975 0.0246328,-0.013669 0.0608882,-0.023801 0.0161251,-0.00451 0.0509311,-0.01298 0.0534857,-0.013022 5.5281e-4,-9.1e-6 -0.005424,0.00648 -0.0132813,0.014427 -0.007857,0.00794 -0.0175473,0.018462 -0.0215328,0.023374 -0.007173,0.00884 -0.007354,0.00895 -0.0177927,0.011204 -0.0270658,0.00583 -0.059198,0.013657 -0.0827772,0.020158 -0.0142037,0.00392 -0.0270679,0.0074 -0.0285871,0.00773 -0.001857,4.136e-4 -7.2531e-4,-0.00125 0.003453,-0.00506 z"
         id="path3964"
         inkscape:connector-curvature="0" />
      <path
         style="opacity:1;fill:#dbe7d9;fill-opacity:1;stroke:none;stroke-width:0.00737556;stroke-linecap:round;stroke-linejoin:miter;stroke-miterlimit:4;stroke-dasharray:none;stroke-dashoffset:0;stroke-opacity:1"
         d="m 0.28349263,1.3030709 c 0.001354,-0.00219 0.0334528,-0.023451 0.0544754,-0.03608 0.0217936,-0.013092 0.0494333,-0.027277 0.0506944,-0.026016 3.9166e-4,3.917e-4 -0.003652,0.00424 -0.008985,0.00855 -0.005333,0.00431 -0.0158233,0.013325 -0.0233109,0.020034 -0.0103769,0.0093 -0.0153875,0.012783 -0.021073,0.014653 -0.004103,0.00135 -0.0173372,0.0064 -0.0294105,0.011229 -0.023411,0.00936 -0.0234692,0.00938 -0.0223904,0.00763 z"
         id="path3968"
         inkscape:connector-curvature="0" />
      <path
         style="opacity:1;fill:#e9f0e7;fill-opacity:1;stroke:none;stroke-width:0.00737556;stroke-linecap:round;stroke-linejoin:miter;stroke-miterlimit:4;stroke-dasharray:none;stroke-dashoffset:0;stroke-opacity:1"
         d="m 0.50392056,1.187994 c 0.0134578,-0.00645 0.0752824,-0.027167 0.0767326,-0.025717 3.1427e-4,3.145e-4 -0.004151,0.00379 -0.009923,0.00773 -0.0102073,0.00697 -0.0112557,0.00734 -0.0383067,0.013533 -0.0347437,0.00796 -0.036349,0.00821 -0.0285027,0.00445 z"
         id="path3970"
         inkscape:connector-curvature="0" />
      <path
         style="opacity:1;fill:#e9f0e7;fill-opacity:1;stroke:none;stroke-width:0.00737556;stroke-linecap:round;stroke-linejoin:miter;stroke-miterlimit:4;stroke-dasharray:none;stroke-dashoffset:0;stroke-opacity:1"
         d="m 0.59337284,1.1688666 c 0.0220463,-0.013442 0.0403071,-0.019933 0.0695822,-0.024737 0.023825,-0.00391 0.056062,-0.00841 0.0602513,-0.00841 0.001035,0 -0.002357,0.00463 -0.007539,0.010295 -0.008843,0.00966 -0.009844,0.010341 -0.0163261,0.011059 -0.0294228,0.00326 -0.0684585,0.00828 -0.0864968,0.011139 -0.025914,0.0041 -0.0250831,0.00407 -0.0194721,6.51e-4 z"
         id="path3972"
         inkscape:connector-curvature="0" />
      <path
         style="opacity:1;fill:#e9f0e7;fill-opacity:1;stroke:none;stroke-width:0.00737556;stroke-linecap:round;stroke-linejoin:miter;stroke-miterlimit:4;stroke-dasharray:none;stroke-dashoffset:0;stroke-opacity:1"
         d="m 0.72427198,1.1532992 c 9.7219e-4,-0.00253 0.0141657,-0.013946 0.020179,-0.017454 0.003448,-0.00201 0.009307,-0.00307 0.0232537,-0.0042 0.0139966,-0.00113 0.0753939,-0.00392 0.0921863,-0.00418 0.001237,-2.08e-5 0.001726,0.00304 0.001726,0.010802 v 0.010828 l -0.0397057,8.969e-4 c -0.0368135,8.323e-4 -0.068848,0.00242 -0.0897682,0.00445 -0.007151,6.937e-4 -0.0085,4.979e-4 -0.007871,-0.00114 z"
         id="path3974"
         inkscape:connector-curvature="0" />
      <path
         style="opacity:1;fill:#e9f0e7;fill-opacity:1;stroke:none;stroke-width:0.00737556;stroke-linecap:round;stroke-linejoin:miter;stroke-miterlimit:4;stroke-dasharray:none;stroke-dashoffset:0;stroke-opacity:1"
         d="m 0.99074716,1.1535831 c -0.0222666,-0.00196 -0.0731412,-0.00405 -0.0986568,-0.00405 h -0.0249488 l 2.083e-5,-0.00932 c 1.146e-5,-0.00513 5.3802e-4,-0.010137 0.00117,-0.011133 9.3938e-4,-0.00148 0.00842,-0.00155 0.0410656,-3.521e-4 0.0219544,8.031e-4 0.048307,0.00215 0.0585615,0.003 l 0.0186444,0.00154 0.008286,0.00593 c 0.004558,0.00326 0.0104282,0.00817 0.0130459,0.0109 l 0.00476,0.00497 -0.00476,-1.896e-4 c -0.00262,-1.042e-4 -0.0103528,-6.823e-4 -0.0171891,-0.00128 z"
         id="path3976"
         inkscape:connector-curvature="0" />
      <path
         style="opacity:1;fill:#e9f0e7;fill-opacity:1;stroke:none;stroke-width:0.00737556;stroke-linecap:round;stroke-linejoin:miter;stroke-miterlimit:4;stroke-dasharray:none;stroke-dashoffset:0;stroke-opacity:1"
         d="m 1.1385215,1.1708744 c -0.00286,-0.00111 -0.059023,-0.00889 -0.0841,-0.011637 l -0.026095,-0.00286 -0.00566,-0.00653 c -0.00311,-0.00359 -0.00744,-0.00824 -0.00961,-0.010326 -0.00471,-0.00452 -0.00506,-0.00449 0.016635,-0.00171 0.030955,0.00397 0.067127,0.010523 0.075535,0.01369 0.00792,0.00298 0.033569,0.01554 0.038129,0.018666 0.00173,0.00119 0.00162,0.00141 -6.906e-4,0.00133 -0.00152,-5.21e-5 -0.00338,-3.302e-4 -0.00414,-6.26e-4 z"
         id="path3978"
         inkscape:connector-curvature="0" />
      <path
         style="opacity:1;fill:#e9f0e7;fill-opacity:1;stroke:none;stroke-width:0.00737556;stroke-linecap:round;stroke-linejoin:miter;stroke-miterlimit:4;stroke-dasharray:none;stroke-dashoffset:0;stroke-opacity:1"
         d="m 1.2316285,1.1903928 c -3.167e-4,-3.146e-4 -0.013278,-0.00341 -0.028804,-0.00687 -0.027802,-0.0062 -0.028389,-0.00641 -0.038873,-0.013583 -0.00585,-0.00401 -0.010175,-0.00746 -0.0096,-0.00768 0.00254,-9.635e-4 0.073863,0.023033 0.081536,0.027435 0.00165,9.49e-4 0.00149,0.0012 -8.052e-4,0.00123 -0.00158,2.08e-5 -0.00314,-2.157e-4 -0.00345,-5.313e-4 z"
         id="path3980"
         inkscape:connector-curvature="0" />
      <path
         style="opacity:1;fill:#e9f0e7;fill-opacity:1;stroke:none;stroke-width:0.00368778;stroke-linecap:round;stroke-linejoin:miter;stroke-miterlimit:4;stroke-dasharray:none;stroke-dashoffset:0;stroke-opacity:1"
         d="m 1.606659,1.4366849 c -0.00539,-0.00343 -0.00691,-0.00491 -0.013897,-0.013576 -0.00431,-0.00535 -0.011013,-0.013403 -0.014886,-0.017901 -0.00387,-0.0045 -0.0069,-0.00832 -0.00673,-0.00849 5.291e-4,-5.292e-4 0.043998,0.042672 0.043593,0.043327 -6.719e-4,0.00109 -0.0019,5.771e-4 -0.00808,-0.00336 z"
         id="path3982"
         inkscape:connector-curvature="0" />
      <path
         style="opacity:1;fill:#e9f0e7;fill-opacity:1;stroke:none;stroke-width:0.00368778;stroke-linecap:round;stroke-linejoin:miter;stroke-miterlimit:4;stroke-dasharray:none;stroke-dashoffset:0;stroke-opacity:1"
         d="m 0.12138243,1.4380733 c 0.004394,-0.00484 0.0135172,-0.013927 0.0337615,-0.033631 0.003881,-0.00378 0.007205,-0.00672 0.007388,-0.00653 1.8281e-4,1.823e-4 -0.002319,0.00343 -0.005559,0.00722 -0.003241,0.00379 -0.009646,0.011544 -0.014235,0.017241 -0.008296,0.0103 -0.008391,0.010388 -0.0169341,0.01571 -0.004725,0.00294 -0.008746,0.00535 -0.008936,0.00535 -1.8969e-4,0 0.001842,-0.00241 0.004515,-0.00535 z"
         id="path3984"
         inkscape:connector-curvature="0" />
      <text
         xml:space="preserve"
         style="font-style:normal;font-variant:normal;font-weight:bold;font-stretch:normal;font-size:0.166667px;line-height:1.25;font-family:Kalimati;-inkscape-font-specification:'Kalimati Bold';font-variant-ligatures:normal;font-variant-caps:normal;font-variant-numeric:normal;font-feature-settings:normal;text-align:start;letter-spacing:0px;word-spacing:0px;writing-mode:lr-tb;text-anchor:start;fill:#d4d4d7;fill-opacity:1;stroke:none;stroke-width:0.0104167"
         x="0.26173413"
         y="0.87892461"
         id="text3988"><tspan
           sodipodi:role="line"
           id="tspan3986"
           x="0.26173413"
           y="0.87892461"
           style="font-style:normal;font-variant:normal;font-weight:bold;font-stretch:normal;font-size:0.444444px;font-family:Laksaman;-inkscape-font-specification:'Laksaman Bold';fill:#d4d4d7;fill-opacity:1;stroke-width:0.0104167">spdm</tspan></text>
      <ellipse
         style="opacity:1;fill:#c82f2f;fill-opacity:1;stroke:#9d3232;stroke-width:0;stroke-linecap:round;stroke-linejoin:miter;stroke-miterlimit:4;stroke-dasharray:none;stroke-dashoffset:0;stroke-opacity:1"
         id="path3990-3"
         cx="0.54394567"
         cy="1.3496233"
         rx="0.023437511"
         ry="0.023799073"
         transform="matrix(1,0,-0.17364818,0.98480775,0,0)" />
      <ellipse
         style="opacity:1;fill:#c82f2f;fill-opacity:1;stroke:#9d3232;stroke-width:0;stroke-linecap:round;stroke-linejoin:miter;stroke-miterlimit:4;stroke-dasharray:none;stroke-dashoffset:0;stroke-opacity:1"
         id="path3990-3-7"
         cx="0.53186136"
         cy="1.4410485"
         rx="0.023437511"
         ry="0.023527039"
         transform="matrix(1,0,-0.08715574,0.9961947,0,0)" />
      <ellipse
         style="opacity:1;fill:#c82f2f;fill-opacity:1;stroke:#9d3232;stroke-width:0;stroke-linecap:round;stroke-linejoin:miter;stroke-miterlimit:4;stroke-dasharray:none;stroke-dashoffset:0;stroke-opacity:1"
         id="path3990-3-7-1"
         cx="0.77217102"
         cy="1.2626352"
         rx="0.023437511"
         ry="0.023527039"
         transform="matrix(1,0,-0.08715574,0.9961947,0,0)" />
      <ellipse
         style="opacity:1;fill:#f01cc8;fill-opacity:1;stroke:none;stroke-width:0;stroke-linecap:round;stroke-linejoin:miter;stroke-miterlimit:4;stroke-dasharray:none;stroke-dashoffset:0;stroke-opacity:1"
         id="path3990-2"
         cx="1.1250157"
         cy="1.5237973"
         rx="0.037968766"
         ry="0.034171887" />
      <ellipse
         style="opacity:1;fill:#f01cc8;fill-opacity:1;stroke:none;stroke-width:0;stroke-linecap:round;stroke-linejoin:miter;stroke-miterlimit:4;stroke-dasharray:none;stroke-dashoffset:0;stroke-opacity:1"
         id="path3990-3-7-1-2"
         cx="1.3457189"
         cy="1.4868833"
         rx="0.028125014"
         ry="0.025312513" />
      <circle
         style="opacity:1;fill:#f01cc8;fill-opacity:1;stroke:none;stroke-width:0;stroke-linecap:round;stroke-linejoin:miter;stroke-miterlimit:4;stroke-dasharray:none;stroke-dashoffset:0;stroke-opacity:1"
         id="path3990-3-7-15"
         cx="1.1308751"
         cy="1.6621274"
         r="0.028125014" />
      <path
         id="path3727-9"
         sodipodi:type="arc"
         sodipodi:start="2.9527825"
         sodipodi:ry="1.0416666"
         sodipodi:rx="0.49042323"
         sodipodi:open="true"
         sodipodi:end="3.6097847"
         sodipodi:cy="1.3065134"
         sodipodi:cx="1.5545232"
         transform="matrix(-0.32665293,0.94514436,0.94514436,0.32665293,0,0)"
         style="fill:none;stroke:#c82f2f;stroke-width:0.01;stroke-miterlimit:4;stroke-dasharray:none;stroke-opacity:1;marker-start:url(#Arrow1Mstart)"
         d="M 1.0728157,1.5020242 A 0.49042323,1.0416666 0 0 1 1.1168766,0.83643675"
         sodipodi:arc-type="arc" />
      <ellipse
         style="opacity:1;fill:#f01cc8;fill-opacity:1;stroke:none;stroke-width:0;stroke-linecap:round;stroke-linejoin:miter;stroke-miterlimit:4;stroke-dasharray:none;stroke-dashoffset:0;stroke-opacity:1"
         id="path3990-3-0"
         cx="0.86525011"
         cy="1.4534848"
         rx="0.028125014"
         ry="0.025312513" />
      <ellipse
         style="opacity:1;fill:#c82f2f;fill-opacity:1;stroke:#9d3232;stroke-width:0;stroke-linecap:round;stroke-linejoin:miter;stroke-miterlimit:4;stroke-dasharray:none;stroke-dashoffset:0;stroke-opacity:1"
         id="path3990"
         cx="0.56063467"
         cy="1.3341969"
         rx="0.031640638"
         ry="0.031761497"
         transform="matrix(1,0,-0.08715574,0.9961947,0,0)" />
    </g>
  </g>
</svg>
