<?xml version="1.0" encoding="UTF-8" standalone="no"?>
<!-- Created with Inkscape (http://www.inkscape.org/) -->

<svg
   width="1.7300321in"
   height="1.9999628in"
   viewBox="0 0 1.7300321 1.9999628"
   version="1.1"
   id="SVGRoot"
   sodipodi:docname="glass-hex.svg"
   inkscape:version="1.1.2 (0a00cf5339, 2022-02-04)"
   inkscape:export-filename="/media/areshenk/Work/repositories/grp-core/areshenk-site/sources/content/project/glass/glass-hex.png"
   inkscape:export-xdpi="250"
   inkscape:export-ydpi="250"
   xmlns:inkscape="http://www.inkscape.org/namespaces/inkscape"
   xmlns:sodipodi="http://sodipodi.sourceforge.net/DTD/sodipodi-0.dtd"
   xmlns="http://www.w3.org/2000/svg"
   xmlns:svg="http://www.w3.org/2000/svg"
   xmlns:rdf="http://www.w3.org/1999/02/22-rdf-syntax-ns#"
   xmlns:cc="http://creativecommons.org/ns#"
   xmlns:dc="http://purl.org/dc/elements/1.1/">
  <defs
     id="defs2468">
    <marker
       inkscape:stockid="Arrow1Mstart"
       orient="auto"
       refY="0"
       refX="0"
       id="Arrow1Mstart"
       style="overflow:visible"
       inkscape:isstock="true">
      <path
         id="path4188"
         d="M 0,0 5,-5 -12.5,0 5,5 Z"
         style="fill:#c82f2f;fill-opacity:1;fill-rule:evenodd;stroke:#c82f2f;stroke-width:1pt;stroke-opacity:1"
         transform="matrix(0.4,0,0,0.4,4,0)" />
    </marker>
    <marker
       inkscape:stockid="Arrow1Sstart"
       orient="auto"
       refY="0"
       refX="0"
       id="Arrow1Sstart"
       style="overflow:visible"
       inkscape:isstock="true">
      <path
         id="path4194"
         d="M 0,0 5,-5 -12.5,0 5,5 Z"
         style="fill:#9fcce8;fill-opacity:1;fill-rule:evenodd;stroke:#9fcce8;stroke-width:1pt;stroke-opacity:1"
         transform="matrix(0.2,0,0,0.2,1.2,0)" />
    </marker>
    <clipPath
       clipPathUnits="userSpaceOnUse"
       id="clipPath3373">
      <rect
         style="opacity:1;fill:none;fill-opacity:0.760784;stroke:#b1b1b1;stroke-width:0.0556299;stroke-linecap:round;stroke-linejoin:miter;stroke-miterlimit:4;stroke-dasharray:none;stroke-dashoffset:0;stroke-opacity:1"
         id="rect3375"
         width="2.5190687"
         height="0.94465083"
         x="-1.1795232"
         y="-1.1374961"
         transform="scale(1,-1)" />
    </clipPath>
    <clipPath
       clipPathUnits="userSpaceOnUse"
       id="clipPath3513">
      <path
         sodipodi:type="star"
         style="opacity:1;fill:none;fill-opacity:0.760784;stroke:#b1b1b1;stroke-width:0.0546979;stroke-linecap:round;stroke-linejoin:miter;stroke-miterlimit:4;stroke-dasharray:none;stroke-dashoffset:0;stroke-opacity:1"
         id="path3515"
         sodipodi:sides="6"
         sodipodi:cx="0.86408043"
         sodipodi:cy="1.0022459"
         sodipodi:r1="0.96617424"
         sodipodi:r2="0.83673149"
         sodipodi:arg1="0.52359878"
         sodipodi:arg2="1.0471976"
         inkscape:flatsided="true"
         inkscape:rounded="0"
         inkscape:randomized="0"
         d="M 1.7008119,1.485333 0.86408042,1.9684201 0.02734899,1.485333 l 0,-0.96617422 0.83673144,-0.48308712 0.83673147,0.48308712 z"
         transform="matrix(0.93856409,0,0,-0.94275889,-0.81259422,2.108613)" />
    </clipPath>
    <clipPath
       clipPathUnits="userSpaceOnUse"
       id="clipPath3824">
      <path
         sodipodi:type="star"
         style="opacity:1;fill:none;fill-opacity:0.760784;stroke:#e6b1b1;stroke-width:0.0546979;stroke-linecap:round;stroke-linejoin:miter;stroke-miterlimit:4;stroke-dasharray:none;stroke-dashoffset:0;stroke-opacity:1"
         id="path3826"
         sodipodi:sides="6"
         sodipodi:cx="0.86408043"
         sodipodi:cy="1.0022459"
         sodipodi:r1="0.96617424"
         sodipodi:r2="0.83673149"
         sodipodi:arg1="0.52359878"
         sodipodi:arg2="1.0471976"
         inkscape:flatsided="true"
         inkscape:rounded="0"
         inkscape:randomized="0"
         d="M 1.7008119,1.485333 0.86408042,1.9684201 0.02734899,1.485333 l 0,-0.96617422 0.83673144,-0.48308712 0.83673147,0.48308712 z"
         transform="matrix(0.93856409,0,0,-0.94275889,-0.81812125,2.1011045)" />
    </clipPath>
    <marker
       inkscape:stockid="Arrow1Mstart"
       orient="auto"
       refY="0"
       refX="0"
       id="Arrow1Mstart-3"
       style="overflow:visible"
       inkscape:isstock="true">
      <path
         id="path4188-6"
         d="M 0,0 5,-5 -12.5,0 5,5 Z"
         style="fill:#c82f2f;fill-opacity:1;fill-rule:evenodd;stroke:#c82f2f;stroke-width:1pt;stroke-opacity:1"
         transform="matrix(0.4,0,0,0.4,4,0)" />
    </marker>
  </defs>
  <sodipodi:namedview
     id="base"
     pagecolor="#ffffff"
     bordercolor="#666666"
     borderopacity="1.0"
     inkscape:pageopacity="0.0"
     inkscape:pageshadow="2"
     inkscape:zoom="1.3333333"
     inkscape:cx="93.375002"
     inkscape:cy="100.5"
     inkscape:document-units="in"
     inkscape:current-layer="layer1"
     showgrid="false"
     inkscape:window-width="1884"
     inkscape:window-height="1050"
     inkscape:window-x="36"
     inkscape:window-y="0"
     inkscape:window-maximized="1"
     inkscape:snap-global="false"
     inkscape:pagecheckerboard="0" />
  <metadata
     id="metadata2471">
    <rdf:RDF>
      <cc:Work
         rdf:about="">
        <dc:format>image/svg+xml</dc:format>
        <dc:type
           rdf:resource="http://purl.org/dc/dcmitype/StillImage" />
        <dc:title />
      </cc:Work>
    </rdf:RDF>
  </metadata>
  <g
     inkscape:label="Layer 1"
     inkscape:groupmode="layer"
     id="layer1"
     transform="translate(2.0578213,0.01142655)">
    <path
       id="path3723"
       sodipodi:type="arc"
       sodipodi:start="1.5707963"
       sodipodi:ry="1.0416666"
       sodipodi:rx="0.001"
       sodipodi:open="true"
       sodipodi:end="4.712389"
       sodipodi:cy="-2.1571603"
       sodipodi:cx="0.86741745"
       style="fill:none;stroke:#35ce5a;stroke-width:0;stroke-miterlimit:4;stroke-dasharray:none;stroke-opacity:1"
       d="m 0.86741745,-1.1154937 a 0.001,1.0416666 0 0 1 -8.6602e-4,-0.5208333 0.001,1.0416666 0 0 1 0,-1.0416666 0.001,1.0416666 0 0 1 8.6602e-4,-0.5208333"
       transform="scale(1,-1)"
       sodipodi:arc-type="arc" />
    <path
       id="path3725"
       sodipodi:type="arc"
       sodipodi:start="1.5707963"
       sodipodi:ry="1.0416666"
       sodipodi:rx="0.25434411"
       sodipodi:open="true"
       sodipodi:end="4.712389"
       sodipodi:cy="-2.2273204"
       sodipodi:cx="0.66693181"
       transform="matrix(0.99582695,-0.09126159,-0.09126159,-0.99582695,0,0)"
       style="fill:none;stroke:#35ce5a;stroke-width:0;stroke-miterlimit:4;stroke-dasharray:none;stroke-opacity:1"
       d="m 0.66693181,-1.1856538 a 0.25434411,1.0416666 0 0 1 -0.22026846,-0.5208333 0.25434411,1.0416666 0 0 1 0,-1.0416666 0.25434411,1.0416666 0 0 1 0.22026846,-0.5208334"
       sodipodi:arc-type="arc" />
    <path
       id="path3727"
       sodipodi:type="arc"
       sodipodi:start="1.5707963"
       sodipodi:ry="1.0416666"
       sodipodi:rx="0.49042323"
       sodipodi:open="true"
       sodipodi:end="4.712389"
       sodipodi:cy="-2.2843351"
       sodipodi:cx="0.43309"
       transform="matrix(0.98105595,-0.19372462,-0.19372462,-0.98105595,0,0)"
       style="fill:none;stroke:#35ce5a;stroke-width:0;stroke-miterlimit:4;stroke-dasharray:none;stroke-opacity:1"
       d="m 0.43309,-1.2426685 a 0.49042323,1.0416666 0 0 1 -0.42471897,-0.5208333 0.49042323,1.0416666 0 0 1 -10e-9,-1.0416667 A 0.49042323,1.0416666 0 0 1 0.43309,-3.3260018"
       sodipodi:arc-type="arc" />
    <path
       id="path3729"
       sodipodi:type="arc"
       sodipodi:start="1.5707963"
       sodipodi:ry="1.0416666"
       sodipodi:rx="0.69314897"
       sodipodi:open="true"
       sodipodi:end="4.712389"
       sodipodi:cy="-2.3217905"
       sodipodi:cx="0.12264989"
       transform="matrix(0.94618865,-0.32361557,-0.32361557,-0.94618865,0,0)"
       style="fill:none;stroke:#35ce5a;stroke-width:0;stroke-miterlimit:4;stroke-dasharray:none;stroke-opacity:1"
       d="m 0.12264989,-1.2801238 a 0.69314897,1.0416666 0 0 1 -0.60028461,-0.5208333 0.69314897,1.0416666 0 0 1 0,-1.0416667 0.69314897,1.0416666 0 0 1 0.60028461,-0.5208333"
       sodipodi:arc-type="arc" />
    <path
       id="path3731"
       sodipodi:type="arc"
       sodipodi:start="1.5707963"
       sodipodi:ry="1.0416666"
       sodipodi:rx="0.84870595"
       sodipodi:open="true"
       sodipodi:end="4.712389"
       sodipodi:cy="-2.2980497"
       sodipodi:cx="-0.35315967"
       transform="matrix(0.86036561,-0.50967737,-0.50967737,-0.86036561,0,0)"
       style="fill:none;stroke:#35ce5a;stroke-width:0;stroke-miterlimit:4;stroke-dasharray:none;stroke-opacity:1"
       d="m -0.35315967,-1.2563831 a 0.84870595,1.0416666 0 0 1 -0.73500093,-0.5208333 0.84870595,1.0416666 0 0 1 0,-1.0416666 0.84870595,1.0416666 0 0 1 0.73500093,-0.5208333"
       sodipodi:arc-type="arc" />
    <path
       id="path3735"
       sodipodi:type="arc"
       sodipodi:start="1.5707963"
       sodipodi:ry="1.0416666"
       sodipodi:rx="0.97984648"
       sodipodi:open="true"
       sodipodi:end="4.712389"
       sodipodi:cy="-0.86741745"
       sodipodi:cx="-2.1571603"
       transform="matrix(0,-1,-1,0,0,0)"
       style="fill:none;stroke:#35ce5a;stroke-width:0;stroke-miterlimit:4;stroke-dasharray:none;stroke-opacity:1"
       d="m -2.1571603,0.17424917 a 0.97984648,1.0416666 0 0 1 -0.8485719,-0.5208333 0.97984648,1.0416666 0 0 1 0,-1.04166667 0.97984648,1.0416666 0 0 1 0.8485719,-0.5208333"
       sodipodi:arc-type="arc" />
    <path
       id="path3737"
       sodipodi:type="arc"
       sodipodi:start="4.712389"
       sodipodi:ry="1.0416666"
       sodipodi:rx="0.94649309"
       sodipodi:open="true"
       sodipodi:end="1.5707963"
       sodipodi:cy="-0.64751863"
       sodipodi:cx="2.2330413"
       transform="matrix(0.61670964,0.78719071,0.78719071,-0.61670964,0,0)"
       style="fill:none;stroke:#35ce5a;stroke-width:0;stroke-miterlimit:4;stroke-dasharray:none;stroke-opacity:1"
       d="M 2.2330413,-1.6891853 A 0.94649309,1.0416666 0 0 1 3.1795344,-0.64751863 0.94649309,1.0416666 0 0 1 2.2330413,0.39414799"
       sodipodi:arc-type="arc" />
    <path
       id="path3739"
       sodipodi:type="arc"
       sodipodi:start="4.712389"
       sodipodi:ry="1.0416666"
       sodipodi:rx="0.84870595"
       sodipodi:open="true"
       sodipodi:end="1.5707963"
       sodipodi:cy="-1.4138435"
       sodipodi:cx="1.845752"
       transform="matrix(0.86036561,0.50967737,0.50967737,-0.86036561,0,0)"
       style="fill:none;stroke:#35ce5a;stroke-width:0;stroke-miterlimit:4;stroke-dasharray:none;stroke-opacity:1"
       d="M 1.845752,-2.4555101 A 0.84870595,1.0416666 0 0 1 2.6944579,-1.4138435 0.84870595,1.0416666 0 0 1 1.845752,-0.37217689"
       sodipodi:arc-type="arc" />
    <path
       id="path3741"
       sodipodi:type="arc"
       sodipodi:start="4.712389"
       sodipodi:ry="1.0416666"
       sodipodi:rx="0.69314897"
       sodipodi:open="true"
       sodipodi:end="1.5707963"
       sodipodi:cy="-1.7603709"
       sodipodi:cx="1.5188313"
       transform="matrix(0.94618865,0.32361557,0.32361557,-0.94618865,0,0)"
       style="fill:none;stroke:#35ce5a;stroke-width:0;stroke-miterlimit:4;stroke-dasharray:none;stroke-opacity:1"
       d="m 1.5188313,-2.8020375 a 0.69314897,1.0416666 0 0 1 0.6931489,1.0416666 0.69314897,1.0416666 0 0 1 -0.6931489,1.04166668"
       sodipodi:arc-type="arc" />
    <path
       id="path3743"
       sodipodi:type="arc"
       sodipodi:start="4.712389"
       sodipodi:ry="1.0416666"
       sodipodi:rx="0.49042323"
       sodipodi:open="true"
       sodipodi:end="1.5707963"
       sodipodi:cy="-1.9482549"
       sodipodi:cx="1.2688801"
       transform="matrix(0.98105595,0.19372462,0.19372462,-0.98105595,0,0)"
       style="fill:none;stroke:#35ce5a;stroke-width:0;stroke-miterlimit:4;stroke-dasharray:none;stroke-opacity:1"
       d="m 1.2688801,-2.9899216 a 0.49042323,1.0416666 0 0 1 0.4904233,1.0416667 0.49042323,1.0416666 0 0 1 -0.4904233,1.04166658"
       sodipodi:arc-type="arc" />
    <path
       id="path3745"
       sodipodi:type="arc"
       sodipodi:start="4.712389"
       sodipodi:ry="1.0416666"
       sodipodi:rx="0.25434411"
       sodipodi:open="true"
       sodipodi:end="1.5707963"
       sodipodi:cy="-2.0689967"
       sodipodi:cx="1.0606636"
       transform="matrix(0.99582695,0.09126159,0.09126159,-0.99582695,0,0)"
       style="fill:none;stroke:#35ce5a;stroke-width:0;stroke-miterlimit:4;stroke-dasharray:none;stroke-opacity:1"
       d="M 1.0606636,-3.1106633 A 0.25434411,1.0416666 0 0 1 1.3150077,-2.0689967 0.25434411,1.0416666 0 0 1 1.0606636,-1.02733"
       sodipodi:arc-type="arc" />
    <path
       id="path3775"
       sodipodi:type="arc"
       sodipodi:start="5.7584753"
       sodipodi:ry="0.21041083"
       sodipodi:rx="0.61227632"
       sodipodi:open="true"
       sodipodi:end="3.6663027"
       sodipodi:cy="-2.9490638"
       sodipodi:cx="0.86741745"
       style="fill:none;stroke:#35ce5a;stroke-width:0;stroke-miterlimit:4;stroke-dasharray:none;stroke-opacity:1"
       d="m 1.3973238,-3.0544716 a 0.61227632,0.21041083 0 0 1 -0.136169,0.2665418 0.61227632,0.21041083 0 0 1 -0.78747469,0 0.61227632,0.21041083 0 0 1 -0.13616897,-0.2665418"
       transform="scale(1,-1)"
       sodipodi:arc-type="arc" />
    <path
       id="path3777"
       sodipodi:type="arc"
       sodipodi:start="5.4875165"
       sodipodi:ry="0.16274364"
       sodipodi:rx="0.47290677"
       sodipodi:open="true"
       sodipodi:end="3.9372615"
       sodipodi:cy="-3.029319"
       sodipodi:cx="0.86741745"
       style="fill:none;stroke:#35ce5a;stroke-width:0;stroke-miterlimit:4;stroke-dasharray:none;stroke-opacity:1"
       d="M 1.198361,-3.145572 A 0.47290677,0.16274364 0 0 1 1.3052499,-2.9678127 0.47290677,0.16274364 0 0 1 0.86741745,-2.8665754 0.47290677,0.16274364 0 0 1 0.42958497,-2.9678127 0.47290677,0.16274364 0 0 1 0.53647392,-3.145572"
       transform="scale(1,-1)"
       sodipodi:arc-type="arc" />
    <ellipse
       id="path3779"
       style="fill:none;stroke:#35ce5a;stroke-width:0;stroke-miterlimit:4;stroke-dasharray:none;stroke-opacity:1"
       cx="0.86741745"
       cy="-3.0880988"
       rx="0.32189271"
       ry="0.11109379"
       transform="scale(1,-1)" />
    <ellipse
       id="path3781"
       style="fill:none;stroke:#35ce5a;stroke-width:0;stroke-miterlimit:4;stroke-dasharray:none;stroke-opacity:1"
       cx="0.86741745"
       cy="-3.1239557"
       rx="0.16295257"
       ry="0.056733061"
       transform="scale(1,-1)" />
    <path
       style="opacity:1;fill:#e9f0e7;fill-opacity:1;stroke:none;stroke-width:0.708053;stroke-linecap:round;stroke-linejoin:miter;stroke-miterlimit:4;stroke-dasharray:none;stroke-dashoffset:0;stroke-opacity:1"
       d=""
       id="path3966"
       inkscape:connector-curvature="0"
       transform="matrix(0.01041667,0,0,0.01041667,1.570917e-5,5.5249307e-5)" />
    <path
       sodipodi:type="star"
       style="opacity:1;fill:#353535;fill-opacity:1;stroke:#0091ff;stroke-width:0.0648481;stroke-linecap:round;stroke-linejoin:miter;stroke-miterlimit:4;stroke-dasharray:none;stroke-dashoffset:0;stroke-opacity:1"
       id="path3026-9-9-9-7"
       sodipodi:sides="6"
       sodipodi:cx="0.86408043"
       sodipodi:cy="1.0022459"
       sodipodi:r1="0.96617424"
       sodipodi:r2="0.83673149"
       sodipodi:arg1="0.52359878"
       sodipodi:arg2="1.0471976"
       inkscape:flatsided="true"
       inkscape:rounded="0"
       inkscape:randomized="0"
       transform="matrix(0.93856409,0,0,0.94275889,-2.003484,0.04051908)"
       d="M 1.7008119,1.485333 0.86408042,1.9684201 0.02734899,1.485333 l 0,-0.96617422 0.83673144,-0.48308712 0.83673147,0.48308712 z" />
    <path
       sodipodi:type="star"
       style="opacity:1;fill:none;fill-opacity:0.760784;stroke:#c65402;stroke-width:0.0546979;stroke-linecap:round;stroke-linejoin:miter;stroke-miterlimit:4;stroke-dasharray:none;stroke-dashoffset:0;stroke-opacity:1"
       id="path3026-5"
       sodipodi:sides="6"
       sodipodi:cx="0.86408043"
       sodipodi:cy="1.0022459"
       sodipodi:r1="0.96617424"
       sodipodi:r2="0.83673149"
       sodipodi:arg1="0.52359878"
       sodipodi:arg2="1.0471976"
       inkscape:flatsided="true"
       inkscape:rounded="0"
       inkscape:randomized="0"
       transform="matrix(1.0010828,0,0,1.0022323,-2.0578213,-0.01592839)"
       d="M 1.7008119,1.485333 0.86408042,1.9684201 0.02734899,1.485333 l 0,-0.96617422 0.83673144,-0.48308712 0.83673147,0.48308712 z" />
    <text
       xml:space="preserve"
       style="font-style:normal;font-variant:normal;font-weight:bold;font-stretch:normal;font-size:0.444444px;line-height:1.25;font-family:Laksaman;-inkscape-font-specification:'Laksaman, Bold';font-variant-ligatures:normal;font-variant-caps:normal;font-variant-numeric:normal;font-variant-east-asian:normal;text-align:start;letter-spacing:0px;word-spacing:0px;writing-mode:lr-tb;text-anchor:start;fill:#d4d4d7;fill-opacity:1;stroke:none;stroke-width:0.0104167"
       x="-1.7096059"
       y="0.72772336"
       id="text3988-6"><tspan
         sodipodi:role="line"
         id="tspan108252"
         x="-1.7096059"
         y="0.72772336">glass</tspan></text>
    <path
       style="fill:#cc5600;fill-opacity:0.960784;stroke:#ffffff;stroke-width:0.00132582;stroke-miterlimit:4;stroke-dasharray:none;stroke-opacity:1"
       d="m -1.5264744,1.0727592 c -5.22e-4,-0.0012 -0.00232,-0.016223 -0.004,-0.033374 l -0.00305,-0.031182 0.02769,-0.0273449 0.02769,-0.0273449 0.027471,-5.6321e-4 c 0.015109,-3.1426e-4 0.028036,1.2917e-4 0.028726,9.8536e-4 0.00151,0.001856 0.00537,0.11112635 0.00398,0.11226005 -5.342e-4,4.334e-4 -0.022181,0.00224 -0.048104,0.00402 -0.025923,0.00178 -0.049903,0.00357 -0.053289,0.00398 -0.00339,4.129e-4 -0.00658,-2.35e-4 -0.00711,-0.00144 z"
       id="path6271" />
    <path
       style="fill:#cc5600;fill-opacity:0.960784;stroke:#ffffff;stroke-width:0.00132582;stroke-miterlimit:4;stroke-dasharray:none;stroke-opacity:1"
       d="m -1.608727,1.138819 -0.010639,-0.00286 -0.00538,-0.033541 -0.00538,-0.033541 0.012702,-0.02818 c 0.00699,-0.015499 0.0137,-0.029083 0.014925,-0.030185 0.00231,-0.00207 0.053349,-0.00568 0.054815,-0.00386 4.547e-4,5.606e-4 0.00266,0.018521 0.00491,0.039911 l 0.00408,0.038891 -0.021583,0.028601 C -1.583888,1.145344 -1.58409,1.145448 -1.608721,1.138827 Z"
       id="path6310" />
    <path
       style="fill:#cc5600;fill-opacity:0.960784;stroke:#ffffff;stroke-width:0.00132582;stroke-miterlimit:4;stroke-dasharray:none;stroke-opacity:1"
       d="m -1.7026444,1.1573258 c -0.00976,-0.00806 -0.017868,-0.0148 -0.018023,-0.014977 -1.554e-4,-1.775e-4 6.68e-5,-0.011533 5.006e-4,-0.025235 l 7.886e-4,-0.024912 0.038483,-0.00661 c 0.021166,-0.00363 0.03878,-0.00617 0.039144,-0.00564 0.00128,0.00187 0.00957,0.059373 0.00863,0.059914 -5.204e-4,3.007e-4 -0.01097,0.0068 -0.023222,0.01443 -0.012252,0.00763 -0.023692,0.014736 -0.025422,0.015779 -0.00182,0.0011 -0.010595,-0.00425 -0.020886,-0.012757 z"
       id="path6349" />
    <path
       style="fill:#cc5600;fill-opacity:0.960784;stroke:#ffffff;stroke-width:0.00132582;stroke-miterlimit:4;stroke-dasharray:none;stroke-opacity:1"
       d="m -1.720929,1.0541575 c -5.677e-4,-0.0148 1.496e-4,-0.025822 0.00177,-0.027062 0.0015,-0.00115 0.020981,-0.013889 0.043296,-0.0283081 0.034489,-0.0222843 0.042509,-0.026303 0.053477,-0.0267958 0.00726,-3.2828e-4 0.01279,5.0663e-4 0.012644,0.001905 -1.421e-4,0.001363 -0.0035,0.009448 -0.00745,0.0179577 -0.00515,0.0110768 -0.00637,0.0161106 -0.00429,0.0177164 0.00205,0.00158 -5.846e-4,0.010003 -0.00887,0.028416 -0.00648,0.014394 -0.012072,0.026474 -0.012442,0.026841 -3.642e-4,3.683e-4 -0.011994,0.00267 -0.025844,0.00513 -0.01385,0.00245 -0.031064,0.00552 -0.038254,0.00682 l -0.013071,0.00236 z"
       id="path6388" />
    <path
       style="fill:#cc5600;fill-opacity:0.960784;stroke:#ffffff;stroke-width:0.00132582;stroke-miterlimit:4;stroke-dasharray:none;stroke-opacity:1"
       d="m -1.6031503,0.99254615 c 0.0021,-0.0100798 0.014811,-0.0239939 0.05123,-0.0560618 0.045668,-0.0402113 0.043217,-0.0390453 0.062334,-0.0296484 0.00531,0.002615 0.00575,0.004752 0.00406,0.0201511 l -0.00188,0.0172298 -0.02435,0.0239531 -0.024349,0.0239532 -0.030306,0.001615 c -0.033979,0.001815 -0.037347,0.001705 -0.036744,-0.001198 z"
       id="path6427" />
    <path
       style="fill:#ff9300;fill-opacity:0.980392;stroke:#ffffff;stroke-width:0.00132582;stroke-miterlimit:4;stroke-dasharray:none;stroke-opacity:1"
       d="m -1.7177251,0.98554689 6.404e-4,-0.0247441 0.020566,-0.0155554 c 0.05451,-0.0412305 0.074224,-0.0553908 0.075288,-0.0540804 6.375e-4,7.8598e-4 -0.0047,0.0173455 -0.011872,0.036798 l -0.01303,0.0353691 -0.020878,0.0137855 c -0.011482,0.00758 -0.027734,0.0181467 -0.036114,0.0234782 l -0.015237,0.00969 z"
       id="path8375" />
    <path
       style="fill:#ff9300;fill-opacity:0.980392;stroke:#ffffff;stroke-width:0.00132582;stroke-miterlimit:4;stroke-dasharray:none;stroke-opacity:1"
       d="m -0.92225307,0.88079266 c -0.0231389,-0.0123471 -0.0262193,-0.015386 -0.0252946,-0.0249266 5.0427e-4,-0.005206 0.003058,-0.005794 0.0272689,-0.006235 0.0234451,-4.301e-4 0.0284661,2.7458e-4 0.0410591,0.00573 0.0116196,0.005043 0.0142276,0.007366 0.0137186,0.0122463 -3.4546e-4,0.003312 -2.7035e-4,0.009835 1.6671e-4,0.0144995 7.1281e-4,0.007625 -1.176e-5,0.008555 -0.007216,0.009221 -0.0232594,0.002159 -0.0276735,0.001226 -0.0497084,-0.0105336 z"
       id="path8609" />
    <path
       style="fill:#ff9300;fill-opacity:0.980392;stroke:#ffffff;stroke-width:0.00132582;stroke-miterlimit:4;stroke-dasharray:none;stroke-opacity:1"
       d="m -0.88733501,1.0276465 c -0.002225,-0.0047 -0.004831,-0.025686 -0.006009,-0.0483171 -0.00204,-0.0393389 -0.001959,-0.0403117 0.004746,-0.0573571 l 0.006826,-0.0173395 0.0121142,-3.5517e-4 c 0.0114266,-3.3642e-4 0.0129639,5.2089e-4 0.0270702,0.0150455 0.0122169,0.0125793 0.0144999,0.0164188 0.012462,0.020968 -0.001375,0.003064 -0.004945,0.0231217 -0.007947,0.0445741 l -0.005456,0.0390045 -0.0134301,-0.0014 c -0.0123192,-0.00128 -0.0134877,-8.591e-4 -0.0141138,0.00514 -0.001076,0.010315 -0.0113703,0.010333 -0.0162532,3.41e-5 z"
       id="path8648" />
    <path
       style="fill:#ff9300;fill-opacity:0.980392;stroke:#ffffff;stroke-width:0.00132582;stroke-miterlimit:4;stroke-dasharray:none;stroke-opacity:1"
       d="m -1.0966558,1.5219266 c -0.00132,-0.013463 -5.724e-4,-0.015911 0.012929,-0.04231 l 0.014334,-0.02802 0.043025,-0.016589 c 0.033518,-0.012924 0.0454343,-0.018943 0.0539281,-0.027241 l 0.0109038,-0.010651 0.0125545,0.017372 0.0125544,0.017373 0.0235004,-0.00103 c 0.0129251,-5.622e-4 0.0258197,-0.00146 0.0286528,-0.00198 0.003977,-7.314e-4 0.00251,0.00225 -0.006419,0.013058 -0.0107719,0.01305 -0.0169749,0.016612 -0.0902469,0.051811 -0.0432742,0.020789 -0.0834612,0.038478 -0.0893049,0.03931 -0.026882,0.00382 -0.024863,0.00468 -0.026416,-0.01111 z"
       id="path8687" />
    <path
       style="fill:#ff9300;fill-opacity:0.980392;stroke:#ffffff;stroke-width:0.00132582;stroke-miterlimit:4;stroke-dasharray:none;stroke-opacity:1"
       d="m -0.93740744,1.4077373 c -0.0154898,-0.020752 -0.0182869,-0.015045 0.0339926,-0.069367 0.0261092,-0.027129 0.0484664,-0.049806 0.0496819,-0.050393 0.001217,-5.872e-4 0.0151848,0.00668 0.0310419,0.016152 l 0.0288312,0.017219 3.9139e-4,0.019826 3.9139e-4,0.019826 -0.0346586,0.026934 -0.0346581,0.026934 -0.0268196,0.00189 c -0.0377465,0.00266 -0.0397569,0.00229 -0.0481935,-0.00902 z"
       id="path8726" />
    <path
       style="fill:#ff9300;fill-opacity:0.980392;stroke:#ffffff;stroke-width:0.00132582;stroke-miterlimit:4;stroke-dasharray:none;stroke-opacity:1"
       d="m -1.8083874,1.3352265 -0.020015,-0.023895 -0.00165,-0.024836 c -0.00175,-0.026471 -5.695e-4,-0.032326 0.0064,-0.031599 0.00363,3.787e-4 0.00428,-0.00169 0.00382,-0.012099 -3.454e-4,-0.00768 4.898e-4,-0.012446 0.00215,-0.012273 0.00519,5.415e-4 0.0564,0.047419 0.057261,0.052414 0.00131,0.00761 7.422e-4,0.072988 -6.389e-4,0.074083 -6.653e-4,5.254e-4 -0.00708,0.00121 -0.014256,0.00153 l -0.013044,5.698e-4 z"
       id="path8765" />
    <path
       style="fill:#ff9300;fill-opacity:0.980392;stroke:#ffffff;stroke-width:0.00132582;stroke-miterlimit:4;stroke-dasharray:none;stroke-opacity:1"
       d="m -1.7380119,1.3940618 c -0.017111,-0.019681 -0.018662,-0.022395 -0.013555,-0.023701 0.00395,-0.00101 0.0055,-0.00322 0.00492,-0.00699 -7.395e-4,-0.00486 0.00108,-0.00553 0.015409,-0.0057 0.016121,-1.887e-4 0.016517,-6.6e-6 0.049322,0.02205 0.021805,0.014663 0.03291,0.023775 0.0326,0.026749 -3.703e-4,0.00355 -0.0063,0.00493 -0.027755,0.0065 -0.015006,0.00109 -0.03051,0.00229 -0.034453,0.00265 -0.00593,5.479e-4 -0.010496,-0.00317 -0.026491,-0.02156 z"
       id="path8804" />
    <path
       style="fill:#ff9300;fill-opacity:0.980392;stroke:#ffffff;stroke-width:0.00132582;stroke-miterlimit:4;stroke-dasharray:none;stroke-opacity:1"
       d="m -1.8545574,1.2468127 c -0.00136,-0.03489 -0.00283,-0.065662 -0.00328,-0.068382 -6.025e-4,-0.00362 7.922e-4,-0.00477 0.00522,-0.00431 0.00553,5.768e-4 0.00603,-4.172e-4 0.00593,-0.011878 l -1.03e-4,-0.012508 0.010231,0.00107 0.010229,0.00107 6.951e-4,0.031315 c 6.541e-4,0.029394 3.843e-4,0.031403 -0.00433,0.032766 -0.00478,0.00138 -0.00583,0.00933 -0.0031,0.023361 3.758e-4,0.00193 -0.00238,0.00395 -0.00614,0.00449 -0.00557,7.962e-4 -0.00672,0.00234 -0.00628,0.0084 3.03e-4,0.00408 0.00135,0.017506 0.00232,0.029826 0.00223,0.028325 0.00209,0.029379 -0.00394,0.028749 -0.00442,-4.606e-4 -0.00527,-0.00786 -0.00745,-0.063957 z"
       id="path8882" />
    <path
       style="fill:#ff9300;fill-opacity:0.980392;stroke:#ffffff;stroke-width:0.000662913;stroke-miterlimit:4;stroke-dasharray:none;stroke-opacity:1"
       d="m -1.7737124,1.3941917 c -0.00525,-0.00467 -0.02083,-0.016525 -0.034623,-0.02634 l -0.02508,-0.017846 -0.00379,-0.013398 c -0.00358,-0.01263 -0.00364,-0.013408 -0.00106,-0.013567 0.00193,-1.199e-4 0.00844,0.00647 0.022166,0.022462 0.010685,0.012447 0.020324,0.023484 0.02142,0.024528 0.00157,0.00149 0.00427,0.00174 0.012723,0.00116 0.00764,-5.207e-4 0.010671,-2.945e-4 0.010523,7.803e-4 -1.181e-4,8.318e-4 0.00497,0.00748 0.011304,0.014765 l 0.011512,0.013252 -0.00428,0.00114 c -0.00923,0.00246 -0.010863,0.00191 -0.020814,-0.00695 z"
       id="path8921" />
    <path
       style="fill:#5e800f;fill-opacity:1;stroke:#ffffff;stroke-width:0.0009375;stroke-miterlimit:4;stroke-dasharray:none;stroke-opacity:1"
       d="m -1.1190433,0.86826417 -0.00907,-0.004304 0.018264,-0.017936 0.018264,-0.017936 0.017626,4.5101e-4 c 0.029767,7.6212e-4 0.028632,-9.8e-6 0.030375,0.0208114 8.17e-4,0.009808 0.00116,0.0181267 7.358e-4,0.0184901 -9.148e-4,7.991e-4 -0.062335,0.005586 -0.065143,0.005077 -0.00109,-1.9696e-4 -0.00606,-0.002292 -0.01105,-0.004661 z"
       id="path26054" />
    <path
       style="fill:#5e800f;fill-opacity:1;stroke:#ffffff;stroke-width:0.0009375;stroke-miterlimit:4;stroke-dasharray:none;stroke-opacity:1"
       d="m -1.237517,0.9846173 c 9.588e-4,-0.003339 0.00696,-0.0274545 0.013322,-0.0535971 0.00637,-0.0261426 0.011925,-0.0478199 0.012364,-0.0481693 4.324e-4,-3.5054e-4 0.016942,-0.002808 0.036686,-0.005454 l 0.035901,-0.004822 0.014521,0.006441 c 0.014461,0.006415 0.014513,0.006471 0.012633,0.012139 -0.00574,0.0172973 -0.00723,0.0188452 -0.019784,0.0204258 l -0.011773,0.001487 -0.032501,0.0386097 c -0.020716,0.0246097 -0.033941,0.0387581 -0.036472,0.0390189 -0.00219,2.2453e-4 -0.00907,3.1062e-4 -0.015303,1.9353e-4 l -0.011333,-2.1225e-4 z"
       id="path26093" />
    <path
       style="fill:#073510;fill-opacity:1;stroke:#ffffff;stroke-width:0.00046875;stroke-miterlimit:4;stroke-dasharray:none;stroke-opacity:1"
       d="m -0.70351079,1.2645838 c -3.2971e-4,-0.00126 -0.001884,-0.00773 -0.003451,-0.014375 l -0.002852,-0.01208 -0.0135106,-0.011122 c -0.007431,-0.00611 -0.013473,-0.011483 -0.0134272,-0.011921 1.4939e-4,-0.00143 0.0520414,-0.09213 0.0532819,-0.093126 9.0974e-4,-7.305e-4 0.0526288,-0.00863 0.0549284,-0.00839 2.4109e-4,2.51e-5 0.0128833,0.019569 0.0280937,0.043432 l 0.0276553,0.043386 5.0561e-4,0.016253 c 2.7836e-4,0.00894 4.7674e-4,0.016723 4.4117e-4,0.017295 -3.636e-5,5.796e-4 -0.003843,0.00115 -0.008574,0.00129 -0.00468,1.361e-4 -0.008628,3.569e-4 -0.00877,4.928e-4 -1.435e-4,1.337e-4 -5.098e-5,0.00545 2.0609e-4,0.011818 4.2356e-4,0.010494 3.2024e-4,0.011601 -0.001109,0.01186 -8.6667e-4,1.568e-4 -0.0255914,0.00178 -0.0549441,0.00362 -0.0293526,0.00183 -0.0543823,0.00346 -0.0556208,0.0036 -0.001692,2.016e-4 -0.002402,-3.028e-4 -0.002852,-0.00203 z"
       id="path34535" />
    <path
       style="fill:#073510;fill-opacity:1;stroke:#ffffff;stroke-width:0.00046875;stroke-miterlimit:4;stroke-dasharray:none;stroke-opacity:1"
       d="m -0.80280181,1.2082099 c 4.301e-5,-4.124e-4 -0.001111,-0.00101 -0.002566,-0.00133 -0.001887,-4.189e-4 -0.002658,-0.00122 -0.002723,-0.00281 -6.621e-5,-0.00177 -5.4296e-4,-0.00216 -0.002366,-0.0019 -0.002011,2.877e-4 -0.00231,-1.205e-4 -0.002506,-0.00345 -3.7338e-4,-0.00625 0.00751,-0.07925 0.008479,-0.078502 4.7481e-4,3.668e-4 0.0136947,-0.011373 0.0293784,-0.026088 0.0156833,-0.014715 0.0288143,-0.026843 0.0291801,-0.026949 3.6583e-4,-1.074e-4 0.0123694,0.010651 0.0266745,0.023908 l 0.0260093,0.024103 -0.0265493,0.046512 c -0.0146021,0.025581 -0.026851,0.04614 -0.0272197,0.045686 -5.6246e-4,-6.932e-4 -0.0159805,-2.994e-4 -0.049713,0.00128 -0.003395,1.581e-4 -0.006128,-4.95e-5 -0.006085,-4.619e-4 z"
       id="path34574" />
    <path
       style="fill:#073510;fill-opacity:1;stroke:#ffffff;stroke-width:0.00046875;stroke-miterlimit:4;stroke-dasharray:none;stroke-opacity:1"
       d="m -0.60758734,1.0193001 c -2.6486e-4,-9.63e-4 -0.0176759,-0.0292887 -0.0386912,-0.0629475 -0.0341015,-0.0546164 -0.0387197,-0.0625071 -0.042953,-0.0733869 -0.002608,-0.006707 -0.004593,-0.012313 -0.00441,-0.0124617 5.184e-4,-4.2049e-4 0.0938403,0.11855697 0.0939646,0.11979675 2.4191e-4,0.002408 -0.007459,0.0306405 -0.00791,0.0289993 z"
       id="path34613" />
    <path
       style="fill:#ff0000;fill-opacity:1;stroke:#ffffff;stroke-width:0.00046875;stroke-miterlimit:4;stroke-dasharray:none;stroke-opacity:1"
       d="m -0.71052071,1.0837019 c -0.0153915,-0.014279 -0.0278078,-0.026457 -0.0275919,-0.027062 9.8805e-4,-0.00277 0.0347042,-0.0732068 0.0353128,-0.0737707 7.0168e-4,-6.5042e-4 0.06218,0.0529654 0.0633267,0.0552276 6.3588e-4,0.00125 0.003736,0.064111 0.003192,0.064695 -1.6098e-4,1.727e-4 -0.0106338,0.00179 -0.0232738,0.00359 l -0.0229814,0.00328 z"
       id="path38513" />
    <path
       style="fill:#ff0000;fill-opacity:1;stroke:#ffffff;stroke-width:0.00046875;stroke-miterlimit:4;stroke-dasharray:none;stroke-opacity:1"
       d="m -0.65999868,1.004259 c -0.0137037,-0.0121581 -0.0244759,-0.022203 -0.0239382,-0.0223218 5.8668e-4,-1.3024e-4 5.257e-4,-0.0129785 -1.5255e-4,-0.0321211 -6.2199e-4,-0.0175472 -9.7042e-4,-0.0322034 -7.7453e-4,-0.0325681 4.2647e-4,-7.9525e-4 0.0654174,0.1032194 0.0656332,0.1050437 9.426e-5,7.961e-4 -0.002645,0.00182 -0.007371,0.00277 -0.004136,8.255e-4 -0.007737,0.00145 -0.008002,0.00141 -2.6417e-4,-5.59e-5 -0.0116927,-0.010047 -0.0253962,-0.022207 z"
       id="path38552" />
    <path
       style="fill:#73000b;fill-opacity:1;stroke:#ffffff;stroke-width:0.00046875;stroke-miterlimit:4;stroke-dasharray:none;stroke-opacity:1"
       d="m -0.80908842,1.0601255 c -0.0111441,-0.017891 -0.0203665,-0.031698 -0.0211119,-0.031608 -0.00109,1.325e-4 -5.8084e-4,-0.0059 0.002919,-0.0345004 0.00376,-0.0307127 0.004599,-0.0357236 0.007373,-0.0439845 l 0.003124,-0.009326 0.0224357,-0.0128458 c 0.0190375,-0.0108999 0.0226503,-0.0126384 0.0238555,-0.0114782 0.007865,0.007577 0.0577589,0.0590828 0.0577274,0.0595882 -2.264e-5,3.6773e-4 -0.008408,0.0182753 -0.0186332,0.0397947 l -0.0185915,0.039126 -0.0189155,0.017837 c -0.0104039,0.00981 -0.0192483,0.018135 -0.0196551,0.0185 -4.0684e-4,3.639e-4 -0.009644,-0.013633 -0.0205268,-0.031106 z"
       id="path45490" />
    <path
       style="fill:#73000b;fill-opacity:1;stroke:#ffffff;stroke-width:0.00046875;stroke-miterlimit:4;stroke-dasharray:none;stroke-opacity:1"
       d="m -0.69784021,0.97080423 c -0.001287,-0.00125 -0.002993,-0.002202 -0.003791,-0.002125 -7.9771e-4,7.897e-5 -0.0160378,-0.0147976 -0.0338669,-0.0330588 -0.0178292,-0.0182611 -0.0330184,-0.0337635 -0.0337539,-0.0344495 -9.6217e-4,-8.9666e-4 -0.001463,-0.007281 -0.001801,-0.0227385 l -4.629e-4,-0.021492 -0.003247,-0.002128 c -0.00319,-0.002092 -0.003206,-0.002134 -7.6388e-4,-0.002412 0.001364,-1.5668e-4 0.005663,-4.0862e-4 0.00954,-5.6336e-4 l 0.007057,-2.794e-4 0.0297616,0.0237969 c 0.0163689,0.0130877 0.0302739,0.024163 0.0309003,0.0246104 0.001076,7.6928e-4 0.004172,0.0719429 0.003165,0.0727599 -2.3203e-4,1.8825e-4 -0.001474,-6.7972e-4 -0.002762,-0.001927 z"
       id="path45529" />
    <path
       style="fill:#c65502;fill-opacity:1;stroke:#ffffff;stroke-width:0.00046875;stroke-miterlimit:4;stroke-dasharray:none;stroke-opacity:1"
       d="m -0.72711056,0.8624589 -0.0227792,-0.0182587 -2.3683e-4,-0.006922 c -1.3055e-4,-0.003804 -1.5695e-4,-0.007004 -5.82e-5,-0.007114 9.779e-5,-1.0411e-4 0.007272,0.001497 0.0159421,0.003563 0.0145433,0.003457 0.0158942,0.00396 0.017449,0.006425 9.2608e-4,0.001474 0.001507,0.003194 0.001288,0.003834 -2.1817e-4,6.3781e-4 0.002556,0.008994 0.006164,0.0185757 0.003609,0.009576 0.006537,0.0176394 0.006509,0.0179129 -1.2449e-4,0.001194 -0.00273,-7.3711e-4 -0.0242782,-0.0180088 z"
       id="path50445" />
    <path
       style="fill:#073510;fill-opacity:1;stroke:#ffffff;stroke-width:0.0009375;stroke-miterlimit:4;stroke-dasharray:none;stroke-opacity:1"
       d="m -0.74260423,1.367264 -0.0381065,-0.00455 6.933e-5,-0.00781 6.934e-5,-0.00782 0.0393611,-0.024444 0.0393611,-0.024443 -0.002697,-0.00968 -0.002697,-0.00968 0.05767,-0.00375 c 0.0524406,-0.00341 0.057757,-0.00344 0.0586319,-3.594e-4 5.2887e-4,0.00186 5.3669e-4,0.01342 1.538e-5,0.025686 l -9.4675e-4,0.022302 -0.0532829,0.023749 c -0.0293055,0.013061 -0.0536471,0.024416 -0.0540923,0.025233 -4.4525e-4,8.166e-4 -0.001808,0.00118 -0.00303,8.1e-4 -0.001221,-3.735e-4 -0.0193682,-0.00273 -0.0403265,-0.00523 z"
       id="path59530" />
    <path
       style="fill:#ba0006;fill-opacity:0.992157;stroke:#ffffff;stroke-width:0.0009375;stroke-miterlimit:4;stroke-dasharray:none;stroke-opacity:1"
       d="m -1.6913265,1.2290146 c 8.821e-4,-0.00286 0.0035,-0.013856 0.0058,-0.024416 0.00231,-0.01056 0.00484,-0.019715 0.00563,-0.020345 7.883e-4,-6.3e-4 0.013715,-0.00876 0.028726,-0.018062 0.029913,-0.018539 0.028966,-0.018319 0.052322,-0.012135 0.00736,0.00194 0.029648,0.00579 0.049534,0.00853 l 0.036157,0.005 -0.060727,0.032886 -0.060726,0.032887 -0.020645,2.496e-4 c -0.011354,1.328e-4 -0.024478,3.325e-4 -0.029163,4.37e-4 -0.00842,1.87e-4 -0.0085,1.29e-4 -0.00692,-0.00503 z"
       id="path63469" />
    <path
       style="fill:#ba0006;fill-opacity:0.992157;stroke:#ffffff;stroke-width:0.0009375;stroke-miterlimit:4;stroke-dasharray:none;stroke-opacity:1"
       d="m -1.7044153,1.349418 -0.008,-0.00584 -0.017044,0.00122 c -0.00937,6.716e-4 -0.017156,0.0011 -0.017292,9.412e-4 -1.365e-4,-1.482e-4 -2.723e-4,-0.01397 -3.153e-4,-0.030715 -3.31e-5,-0.016744 -2.763e-4,-0.032439 -5.348e-4,-0.034876 -3.612e-4,-0.00342 0.00337,-0.00784 0.016332,-0.019322 0.013743,-0.012181 0.017863,-0.014802 0.02264,-0.014398 0.00321,2.719e-4 0.019505,1.744e-4 0.036207,-2.15e-4 0.016702,-3.895e-4 0.030676,-3.295e-4 0.031053,1.321e-4 6.681e-4,8.238e-4 0.00137,0.1042067 7.14e-4,0.1045086 -8.854e-4,4.051e-4 -0.053984,0.00496 -0.054809,0.0047 -5.234e-4,-1.635e-4 -0.00455,-0.00293 -0.00895,-0.00614 z"
       id="path63508" />
    <path
       style="fill:#ba0006;fill-opacity:0.992157;stroke:#ffffff;stroke-width:0.0009375;stroke-miterlimit:4;stroke-dasharray:none;stroke-opacity:1"
       d="m -1.6048145,1.4202695 c -0.032073,-0.016051 -0.032459,-0.016305 -0.032656,-0.02151 -1.135e-4,-0.00302 -0.00292,-0.00637 -0.00843,-0.010089 -0.00454,-0.00307 -0.013613,-0.00928 -0.02016,-0.013815 l -0.011904,-0.00824 0.016872,-0.00173 c 0.00928,-9.526e-4 0.024328,-0.00177 0.03344,-0.0018 l 0.01657,-8.15e-5 0.045949,0.031396 c 0.025272,0.017268 0.046958,0.032524 0.048192,0.033903 0.00211,0.00236 -0.00935,0.00314 -0.057126,0.0039 -0.00465,7.5e-5 -0.013952,-0.00354 -0.030749,-0.011944 z"
       id="path63547" />
    <path
       style="fill:#ba0006;fill-opacity:0.992157;stroke:#ffffff;stroke-width:0.0009375;stroke-miterlimit:4;stroke-dasharray:none;stroke-opacity:1"
       d="m -1.3601884,1.5958943 c -0.00495,-0.00429 -0.00946,-0.00939 -0.010019,-0.011329 -5.581e-4,-0.00194 -0.00182,-0.013702 -0.00279,-0.026134 l -0.00178,-0.022603 0.016778,-0.01378 c 0.00923,-0.00758 0.022338,-0.0177 0.029133,-0.022493 l 0.012355,-0.00872 0.016594,0.010398 c 0.00913,0.00572 0.017288,0.011435 0.018135,0.012704 0.00248,0.00372 0.00956,0.082501 0.00754,0.083916 -0.00145,0.00101 -0.041031,0.0041 -0.072,0.0056 -0.0033,1.602e-4 -0.00791,-0.00234 -0.01394,-0.00756 z"
       id="path63586" />
    <path
       style="fill:#ba0006;fill-opacity:0.992157;stroke:#ffffff;stroke-width:0.0009375;stroke-miterlimit:4;stroke-dasharray:none;stroke-opacity:1"
       d="m -1.1257566,1.447512 c 8.31e-5,-7.968e-4 0.00305,-0.011849 0.00659,-0.02456 0.00503,-0.018065 0.00746,-0.023906 0.011135,-0.026749 0.00258,-0.002 0.024985,-0.018481 0.049782,-0.03662 l 0.045085,-0.032983 0.017914,-2.429e-4 c 0.0149196,-2.034e-4 0.0216273,7.175e-4 0.0401365,0.00552 0.0358497,0.00931 0.0347463,0.00577 0.009844,0.031498 -0.0438102,0.045265 -0.0402934,0.042857 -0.0876386,0.059993 -0.02301,0.00833 -0.043265,0.016141 -0.045013,0.017361 -0.00175,0.00123 -0.012124,0.00327 -0.023059,0.00456 -0.010934,0.00128 -0.021018,0.00264 -0.022405,0.003 -0.00139,3.666e-4 -0.00245,1.42e-5 -0.00237,-7.826e-4 z"
       id="path63625" />
    <path
       style="fill:#ba0006;fill-opacity:0.992157;stroke:#ffffff;stroke-width:0.0009375;stroke-miterlimit:4;stroke-dasharray:none;stroke-opacity:1"
       d="m -0.92949605,1.3262072 c -0.008387,-0.00239 -0.0223743,-0.00615 -0.0310745,-0.00836 l -0.0158181,-0.00401 0.0291387,-0.032267 c 0.0160265,-0.017746 0.0304882,-0.033128 0.0321372,-0.03418 0.001648,-0.00105 0.0115564,-0.00163 0.0220179,-0.00129 0.0104602,3.402e-4 0.020978,3.683e-4 0.0233714,6.49e-5 0.003678,-4.688e-4 0.004539,6.337e-4 0.005562,0.00712 0.003622,0.023014 0.004583,0.020934 -0.0226898,0.049425 -0.0135993,0.014208 -0.0253248,0.026289 -0.0260567,0.026847 -7.3187e-4,5.572e-4 -0.008197,-9.389e-4 -0.0165872,-0.00333 z"
       id="path63664" />
    <path
       style="fill:#75000b;fill-opacity:0.984314;stroke:#ffffff;stroke-width:0.0009375;stroke-miterlimit:4;stroke-dasharray:none;stroke-opacity:1"
       d="m -1.2599662,1.5950921 c -9.27e-4,-0.00384 -0.00825,-0.08086 -0.00795,-0.08367 1.691e-4,-0.00162 0.013949,-0.00397 0.040486,-0.0069 l 0.040229,-0.00444 0.028752,-0.021923 c 0.017791,-0.013564 0.029181,-0.021034 0.029877,-0.019593 8.089e-4,0.00167 0.00643,0.00168 0.020049,10e-6 0.010409,-0.00128 0.019784,-0.00223 0.020832,-0.00212 0.00104,1.09e-4 -0.00369,0.010765 -0.010523,0.023677 l -0.012423,0.023479 0.00155,0.018768 c 0.00131,0.015888 0.00109,0.019105 -0.00138,0.02097 -0.0033,0.00248 -0.085288,0.051487 -0.089214,0.053322 -0.00248,0.00116 -0.046504,0.00227 -0.055238,0.00139 -0.00244,-2.449e-4 -0.00471,-0.00158 -0.00504,-0.00296 z"
       id="path67837" />
    <path
       style="fill:#5e800f;fill-opacity:1;stroke:#ffffff;stroke-width:0.0009375;stroke-miterlimit:4;stroke-dasharray:none;stroke-opacity:1"
       d="m -0.78146616,1.3281648 c 0.001268,-0.012736 7.4289e-4,-0.013269 -0.0345338,-0.034979 l -0.0337275,-0.020758 -0.001462,-0.013552 c -8.011e-4,-0.00745 -7.3595e-4,-0.013476 1.393e-4,-0.013385 8.8331e-4,9.21e-5 0.008145,-0.00531 0.0161444,-0.012023 l 0.0145381,-0.012191 0.0340719,-0.00141 0.0340719,-0.00141 0.0160111,0.013374 c 0.0143546,0.01199 0.0162357,0.014358 0.0181821,0.022882 0.002673,0.011708 0.00258,0.012779 -0.001076,0.012397 -0.003633,-3.79e-4 -0.00419,0.00403 -0.001421,0.011241 0.005267,0.01372 0.006033,0.012738 -0.0251413,0.032263 -0.0159279,0.00998 -0.0306251,0.019277 -0.0326603,0.020668 -0.003395,0.00232 -0.003654,0.00206 -0.003139,-0.00311 z"
       id="path67993" />
    <path
       style="fill:#0091ff;fill-opacity:1;stroke:#ffffff;stroke-width:0.000662913;stroke-miterlimit:4;stroke-dasharray:none;stroke-opacity:1"
       d="m -1.3410946,1.0341233 c -0.014193,-0.00304 -0.02596,-0.00567 -0.026148,-0.00585 -8.756e-4,-8.538e-4 -0.00446,-0.0630017 -0.00365,-0.0632276 5.091e-4,-1.4085e-4 0.00303,-0.001253 0.0056,-0.002473 0.00432,-0.002053 0.00464,-0.002623 0.00429,-0.007536 -0.00108,-0.0148666 -0.00365,-0.0118476 0.043993,-0.0516106 0.036173,-0.0301863 0.046241,-0.0394076 0.060641,-0.0555397 0.0095,-0.0106394 0.017649,-0.0193183 0.018117,-0.0192856 4.669e-4,3.191e-5 0.00381,0.0117826 0.00743,0.0261138 l 0.00658,0.0260555 -0.01358,0.0554866 -0.013579,0.0554866 -0.00501,0.004334 c -0.00275,0.002387 -0.01524,0.0132686 -0.027747,0.0241829 -0.019192,0.016749 -0.023394,0.019809 -0.026935,0.019613 -0.00231,-1.277e-4 -0.015809,-0.00272 -0.030002,-0.00575 z"
       id="path71831" />
    <path
       style="fill:#ff91ff;fill-opacity:1;stroke:#ffffff;stroke-width:0.000662913;stroke-miterlimit:4;stroke-dasharray:none;stroke-opacity:1"
       d="m -1.4715705,0.92049751 0.00204,-0.0196027 -0.01205,-0.004524 c -0.00663,-0.002491 -0.012266,-0.004969 -0.01253,-0.00552 -2.644e-4,-5.4769e-4 0.014902,-0.008598 0.033704,-0.0178911 0.018801,-0.009293 0.034851,-0.0175814 0.035665,-0.0184204 8.143e-4,-8.3904e-4 0.00231,-0.005742 0.00331,-0.0109055 0.00101,-0.005163 0.00217,-0.009657 0.00259,-0.0100001 4.199e-4,-3.4098e-4 0.012366,-0.001415 0.026547,-0.002379 l 0.025782,-0.001755 7.312e-4,0.008894 c 7.249e-4,0.008762 6.107e-4,0.009183 -0.00791,0.0291659 -0.00719,0.0168484 -0.011581,0.0246616 -0.026018,0.0462344 -0.00955,0.014278 -0.017445,0.0260487 -0.017532,0.0261593 -2.968e-4,3.7564e-4 -0.049835,8.3463e-4 -0.053118,4.9218e-4 l -0.00327,-3.4131e-4 z"
       id="path71981" />
    <path
       style="fill:#ff91ff;fill-opacity:1;stroke:#ffffff;stroke-width:0.000662913;stroke-miterlimit:4;stroke-dasharray:none;stroke-opacity:1"
       d="m -1.4056635,1.029578 c -2.567e-4,-0.00142 -9.731e-4,-0.02036 -0.00159,-0.0420704 l -0.00113,-0.0394743 0.00614,-0.009293 c 0.00338,-0.005117 0.010688,-0.0160046 0.016258,-0.0242019 l 0.010121,-0.0149055 0.00155,0.0265365 0.00155,0.0265365 -0.00557,0.002646 c -0.00501,0.002383 -0.00554,0.003092 -0.00523,0.007095 1.872e-4,0.002443 0.00121,0.0186772 0.00228,0.0360732 l 0.00194,0.0316298 -0.00988,5.878e-4 c -0.00543,3.225e-4 -0.011247,7.774e-4 -0.012918,0.00101 -0.00215,3.033e-4 -0.00317,-3.311e-4 -0.0035,-0.00216 z"
       id="path72020" />
    <path
       style="fill:#3100ff;fill-opacity:1;stroke:#ffffff;stroke-width:0.000662913;stroke-miterlimit:4;stroke-dasharray:none;stroke-opacity:1"
       d="m -0.56031353,1.2308011 c -0.00177,-0.017362 -7.4001e-4,-0.040418 0.003715,-0.083125 l 0.00484,-0.046401 0.0204624,0.013494 c 0.0112547,0.00742 0.0208261,0.013942 0.0212707,0.014489 8.3519e-4,0.00103 0.003471,0.1019715 0.002679,0.1026042 -4.4328e-4,3.539e-4 -0.0491798,0.00246 -0.0514511,0.00222 -6.5664e-4,-6.85e-5 -0.001339,-0.00155 -0.001516,-0.00328 z"
       id="path75487" />
    <path
       style="fill:#3100ff;fill-opacity:1;stroke:#ffffff;stroke-width:0.000662913;stroke-miterlimit:4;stroke-dasharray:none;stroke-opacity:1"
       d="m -0.53337076,1.0994543 -0.018678,-0.012548 -0.0222217,-0.030708 -0.0222217,-0.030708 0.001499,-0.00617 c 0.003405,-0.014016 8.3581e-4,-0.016222 0.0360745,0.030948 0.0177504,0.023761 0.0354738,0.047496 0.0393852,0.052745 0.003911,0.00525 0.006601,0.00942 0.005976,0.00927 -6.249e-4,-1.489e-4 -0.009541,-0.00592 -0.0198133,-0.012829 z"
       id="path79078" />
    <path
       style="fill:#3100ff;fill-opacity:1;stroke:#ffffff;stroke-width:0.000662913;stroke-miterlimit:4;stroke-dasharray:none;stroke-opacity:1"
       d="m -0.59684952,1.1408491 c -0.0137682,-0.02176 -0.0256646,-0.03966 -0.0264361,-0.03978 -7.7273e-4,-1.225e-4 -0.002016,-0.014379 -0.002768,-0.031757 -0.00107,-0.024711 -9.6945e-4,-0.031731 4.6507e-4,-0.032423 0.001007,-4.859e-4 0.005992,-0.00156 0.0110773,-0.00238 l 0.009246,-0.0015 0.002494,0.00379 c 0.001372,0.00208 0.0111075,0.015649 0.021635,0.030142 l 0.019141,0.026351 -0.00491,0.043558 -0.00491,0.043558 z"
       id="path79117" />
    <path
       style="fill:#3100ff;fill-opacity:1;stroke:#ffffff;stroke-width:0.000662913;stroke-miterlimit:4;stroke-dasharray:none;stroke-opacity:1"
       d="m -0.57878029,1.2923574 c 2.2071e-4,-0.012546 8.0593e-4,-0.022928 0.0013,-0.023072 4.9431e-4,-1.433e-4 7.1674e-4,-0.00527 4.9534e-4,-0.011411 l -4.0346e-4,-0.01115 0.0293075,-0.00121 c 0.0161189,-6.614e-4 0.029477,-0.00106 0.029685,-8.852e-4 0.001081,8.931e-4 -0.026955,0.044558 -0.0306264,0.047699 -0.002367,0.00203 -0.0101218,0.00799 -0.0172318,0.01326 l -0.012928,0.00958 z"
       id="path79156" />
    <path
       style="fill:#ff91ff;fill-opacity:1;stroke:#ffffff;stroke-width:0.000662913;stroke-miterlimit:4;stroke-dasharray:none;stroke-opacity:1"
       d="m -0.8732026,1.4398045 c 0.006888,-0.00859 0.0105669,-0.012048 0.0134696,-0.012637 0.003677,-7.426e-4 0.0110527,-0.00625 0.056392,-0.042068 l 0.0160988,-0.012719 0.0344009,0.00461 0.034401,0.00461 -0.0814738,0.035078 c -0.0448106,0.019292 -0.081765,0.035048 -0.0821207,0.035011 -3.5577e-4,-3.71e-5 0.003619,-0.00539 0.008832,-0.011894 z"
       id="path79195" />
    <path
       style="fill:#0091ff;fill-opacity:1;stroke:#ffffff;stroke-width:0.000662913;stroke-miterlimit:4;stroke-dasharray:none;stroke-opacity:1"
       d="m -1.2887569,1.0652152 c -0.00673,-0.014801 -0.00742,-0.01718 -0.00567,-0.019428 0.00467,-0.00598 0.05272,-0.0466334 0.053418,-0.045187 7.022e-4,0.00145 0.022919,0.00304 0.028926,0.00207 0.00318,-5.155e-4 0.017942,0.036363 0.018195,0.045448 l 1.897e-4,0.00677 -0.032802,0.010223 c -0.01804,0.00562 -0.037704,0.011742 -0.043696,0.013599 l -0.010894,0.00338 z"
       id="path80480" />
    <path
       style="fill:#0091ff;fill-opacity:1;stroke:#ffffff;stroke-width:0.000662913;stroke-miterlimit:4;stroke-dasharray:none;stroke-opacity:1"
       d="m -1.3978247,1.1187296 -0.014812,-0.011086 -8.452e-4,-0.013681 c -4.615e-4,-0.00753 -5.184e-4,-0.014116 -1.211e-4,-0.014648 3.959e-4,-5.316e-4 0.00253,-7.813e-4 0.00476,-5.489e-4 0.00477,4.979e-4 0.00463,0.00122 0.00392,-0.019139 -2.95e-4,-0.00855 -3.368e-4,-0.015664 -8.9e-5,-0.015824 2.492e-4,-1.594e-4 0.00927,-9.337e-4 0.020044,-0.00173 l 0.01959,-0.00144 0.028979,0.00619 c 0.015938,0.0034 0.029152,0.00641 0.029365,0.00668 2.122e-4,2.756e-4 0.00469,0.010091 0.00994,0.021817 l 0.00955,0.021315 -0.018385,0.014758 -0.018385,0.014758 -0.028677,0.00203 c -0.015772,0.00111 -0.02898,0.00193 -0.02935,0.00183 -3.707e-4,-1.12e-4 -0.00734,-0.00519 -0.015486,-0.011287 z"
       id="path81999" />
    <path
       style="fill:#0091ff;fill-opacity:1;stroke:#ffffff;stroke-width:0.000662913;stroke-miterlimit:4;stroke-dasharray:none;stroke-opacity:1"
       d="m -1.3330655,1.1501786 c 2.76e-4,-0.00265 0.00893,-0.012585 0.010804,-0.01239 0.00126,1.317e-4 0.012869,-0.00834 0.025784,-0.018836 0.021966,-0.017846 0.023384,-0.019275 0.021969,-0.022173 -8.276e-4,-0.0017 -9.534e-4,-0.00349 -2.669e-4,-0.00396 0.00325,-0.00225 0.079963,-0.025076 0.080724,-0.024013 0.00143,0.00199 0.00157,0.042386 1.501e-4,0.043385 -7.145e-4,5.046e-4 -0.017069,0.00833 -0.036343,0.01739 l -0.035044,0.016472 -0.030755,0.00199 c -0.016915,0.00109 -0.032181,0.00217 -0.033922,0.00239 -0.00174,2.225e-4 -0.00314,1.052e-4 -0.0031,-2.605e-4 z"
       id="path82038" />
    <path
       style="fill:#0091ff;fill-opacity:1;stroke:#ffffff;stroke-width:0.000662913;stroke-miterlimit:4;stroke-dasharray:none;stroke-opacity:1"
       d="m -1.472546,1.1680181 c -0.00203,-0.00504 -0.0024,-0.00755 -0.00127,-0.00847 0.00113,-9.176e-4 6.902e-4,-0.0014 -0.00149,-0.00162 -0.0034,-3.548e-4 -0.00271,-8.634e-4 0.036215,-0.026586 l 0.020471,-0.013528 0.016536,0.012216 0.016536,0.012216 0.01951,-0.00138 c 0.010731,-7.609e-4 0.020957,-0.00157 0.022728,-0.00181 l 0.00322,-4.213e-4 -0.00335,0.00517 -0.00335,0.00517 -0.040126,0.00851 c -0.057006,0.012093 -0.079676,0.016929 -0.081315,0.017343 -7.843e-4,1.989e-4 -0.00272,-0.00286 -0.00431,-0.0068 z"
       id="path82077" />
    <path
       style="fill:#0091ff;fill-opacity:1;stroke:#ffffff;stroke-width:0.000662913;stroke-miterlimit:4;stroke-dasharray:none;stroke-opacity:1"
       d="m -1.4561402,1.2062253 c -0.00466,-0.010917 -0.0083,-0.019981 -0.00808,-0.020142 7.127e-4,-5.373e-4 0.1152472,-0.024621 0.1154869,-0.024284 6.668e-4,9.368e-4 -1.631e-4,0.049761 -8.552e-4,0.050323 -9.541e-4,7.739e-4 -0.093832,0.014395 -0.096358,0.014131 -9.416e-4,-9.82e-5 -0.00552,-0.00911 -0.010186,-0.020027 z"
       id="path82116" />
    <path
       style="fill:#0091ff;fill-opacity:1;stroke:#ffffff;stroke-width:0.000662913;stroke-miterlimit:4;stroke-dasharray:none;stroke-opacity:1"
       d="m -1.3315213,1.2185784 c -0.00306,-0.00181 -0.00553,-0.00373 -0.0055,-0.00427 3.54e-5,-5.398e-4 6.9e-5,-0.012229 7.51e-5,-0.025975 6.2e-6,-0.013747 2.231e-4,-0.025177 4.778e-4,-0.025401 8.084e-4,-6.918e-4 0.061536,-0.00471 0.062038,-0.0041 2.596e-4,3.131e-4 -9.167e-4,0.00636 -0.00262,0.013441 l -0.00309,0.012871 -0.021451,0.018636 c -0.011798,0.010249 -0.022112,0.018514 -0.022919,0.018366 -8.068e-4,-1.47e-4 -0.00397,-0.00175 -0.00703,-0.00356 z"
       id="path82155" />
    <path
       style="fill:#0091ff;fill-opacity:1;stroke:#ffffff;stroke-width:0.000662913;stroke-miterlimit:4;stroke-dasharray:none;stroke-opacity:1"
       d="m -1.2600609,1.274208 c -0.00342,-0.00288 -0.00694,-0.00939 -0.013935,-0.025709 l -0.00936,-0.021851 -0.011525,-0.0016 -0.011525,-0.0016 0.014639,-0.012492 0.014639,-0.012492 0.040266,-0.00937 c 0.022146,-0.00515 0.041161,-0.00936 0.042254,-0.00934 0.00142,1.89e-5 0.00233,0.00346 0.00321,0.011956 6.626e-4,0.00656 0.00113,0.012935 0.00105,0.014166 -1.505e-4,0.00205 -0.061982,0.071361 -0.064172,0.071942 -5.246e-4,1.391e-4 -0.00301,-0.00148 -0.00553,-0.0036 z"
       id="path82194" />
    <path
       style="fill:#0091ff;fill-opacity:1;stroke:#ffffff;stroke-width:0.000662913;stroke-miterlimit:4;stroke-dasharray:none;stroke-opacity:1"
       d="m -1.3909047,1.3534274 c -0.011577,-0.00533 -0.021323,-0.010026 -0.02166,-0.010433 -3.351e-4,-4.13e-4 0.00252,-0.010951 0.00634,-0.023416 l 0.00696,-0.022664 0.019239,-0.00326 0.019239,-0.00326 0.022238,-0.027304 0.022238,-0.027304 0.012576,0.00123 0.012576,0.00123 0.00802,0.01886 c 0.00441,0.010373 0.00775,0.019369 0.00743,0.01999 -0.00142,0.00272 -0.091494,0.086508 -0.09275,0.086281 -7.674e-4,-1.429e-4 -0.010869,-0.00461 -0.022447,-0.00993 z"
       id="path82233" />
    <path
       style="fill:#0091ff;fill-opacity:1;stroke:#ffffff;stroke-width:0.000662913;stroke-miterlimit:4;stroke-dasharray:none;stroke-opacity:1"
       d="m -1.3649902,1.4044484 c 0.00101,-0.00887 0.00259,-0.019586 0.00353,-0.023814 l 0.00169,-0.00769 0.046708,-0.043947 c 0.02569,-0.02417 0.047398,-0.043595 0.048242,-0.043165 8.433e-4,4.294e-4 0.01181,0.00917 0.024369,0.019438 l 0.022835,0.018657 -0.00374,0.0033 c -0.00206,0.00182 -0.024627,0.022051 -0.050151,0.044973 -0.025523,0.022922 -0.047976,0.043018 -0.049895,0.044658 -0.003,0.00256 -0.00608,0.00307 -0.022044,0.00356 -0.010204,3.231e-4 -0.019637,4.854e-4 -0.020961,3.675e-4 -0.00217,-1.848e-4 -0.00222,-0.00182 -5.787e-4,-0.016333 z"
       id="path82272" />
    <path
       style="fill:#0091ff;fill-opacity:1;stroke:#ffffff;stroke-width:0.000662913;stroke-miterlimit:4;stroke-dasharray:none;stroke-opacity:1"
       d="m -1.2303306,1.2983726 c -0.00781,-0.00634 -0.014169,-0.011961 -0.014123,-0.012479 4.61e-5,-5.178e-4 0.014906,-0.017242 0.033022,-0.037164 0.02042,-0.022456 0.033042,-0.037401 0.033212,-0.039325 1.463e-4,-0.0017 -5.104e-4,-0.010047 -0.00146,-0.018524 -0.00113,-0.010011 -0.00121,-0.015673 -2.472e-4,-0.016138 9.825e-4,-4.735e-4 0.0013,-0.00315 9.386e-4,-0.0079 l -5.475e-4,-0.00719 0.026377,-0.00552 c 0.014508,-0.00304 0.026471,-0.00539 0.026585,-0.00523 1.14e-4,1.617e-4 -0.00129,0.016816 -0.00312,0.037009 l -0.00333,0.036714 -0.040525,0.043151 c -0.022288,0.023733 -0.040985,0.043372 -0.041546,0.043642 -5.614e-4,2.713e-4 -0.00741,-0.00469 -0.015227,-0.011049 z"
       id="path82311" />
    <path
       style="fill:#0091ff;fill-opacity:1;stroke:#ffffff;stroke-width:0.000662913;stroke-miterlimit:4;stroke-dasharray:none;stroke-opacity:1"
       d="m -1.1802145,1.1447474 c -8.79e-4,-0.00507 -0.00149,-0.022259 -0.00106,-0.029848 l 4.404e-4,-0.0077 0.011155,-0.00649 c 0.00613,-0.00357 0.021249,-0.012437 0.033585,-0.019705 l 0.022429,-0.013216 0.016757,0.013257 c 0.00921,0.0073 0.016737,0.013604 0.016713,0.014027 -2.33e-5,4.238e-4 -0.00931,0.00976 -0.020634,0.020759 l -0.02059,0.01999 -0.026838,0.00538 c -0.014761,0.00296 -0.027889,0.00556 -0.029173,0.00576 -0.00142,2.309e-4 -0.00252,-6.416e-4 -0.00278,-0.00222 z"
       id="path82350" />
    <path
       style="fill:#0091ff;fill-opacity:1;stroke:#ffffff;stroke-width:0.000662913;stroke-miterlimit:4;stroke-dasharray:none;stroke-opacity:1"
       d="m -1.2669112,1.1815488 c 1.453e-4,-0.0014 0.00148,-0.00746 0.00296,-0.013451 0.00236,-0.00955 0.00317,-0.011115 0.00653,-0.012625 0.0021,-9.473e-4 0.017377,-0.00816 0.03394,-0.01603 l 0.030114,-0.014305 0.00125,0.020621 0.00125,0.020621 -0.036368,0.00843 c -0.020002,0.00464 -0.037169,0.00863 -0.038148,0.00886 -0.00101,2.414e-4 -0.00167,-6.777e-4 -0.00152,-0.00213 z"
       id="path82389" />
    <path
       style="fill:#0091ff;fill-opacity:1;stroke:#ffffff;stroke-width:0.000662913;stroke-miterlimit:4;stroke-dasharray:none;stroke-opacity:1"
       d="m -1.1189954,1.2011642 c 6.966e-4,-0.0067 0.00187,-0.02181 0.00261,-0.03357 l 0.00135,-0.021383 0.023296,-0.022663 0.023296,-0.022663 0.018991,-4.723e-4 c 0.010445,-2.578e-4 0.019257,-1.532e-4 0.01958,2.525e-4 6.04e-4,7.448e-4 -0.01501,0.074403 -0.015872,0.074859 -2.633e-4,1.401e-4 -0.016304,0.0082 -0.035646,0.017917 -0.019342,0.00971 -0.036001,0.018169 -0.037021,0.018789 -0.00145,8.844e-4 -0.00158,-0.00153 -5.858e-4,-0.01106 z"
       id="path82428" />
    <path
       style="fill:#0091ff;fill-opacity:1;stroke:#ffffff;stroke-width:0.000662913;stroke-miterlimit:4;stroke-dasharray:none;stroke-opacity:1"
       d="m -1.4332987,1.2757837 c -0.015731,-0.00477 -0.028547,-0.0092 -0.028481,-0.00984 6.66e-5,-6.381e-4 0.00419,-0.00716 0.00914,-0.014512 l 0.00902,-0.013351 0.048991,-0.00704 0.048992,-0.00704 0.00632,0.00353 c 0.00348,0.00194 0.00587,0.00411 0.00532,0.00483 -5.498e-4,7.125e-4 -3.64e-5,0.00139 0.00114,0.00152 0.00117,1.224e-4 0.00211,5.401e-4 0.00206,9.276e-4 -4.04e-5,3.874e-4 -0.00827,0.010593 -0.018297,0.022678 l -0.018224,0.021973 -0.015957,0.00287 c -0.00878,0.00158 -0.017189,0.0027 -0.018695,0.00249 -0.00151,-2.095e-4 -0.01561,-0.00427 -0.03134,-0.00905 z"
       id="path82467" />
    <path
       style="fill:#c65402;fill-opacity:1;stroke:#ffffff;stroke-width:0.000662913;stroke-miterlimit:4;stroke-dasharray:none;stroke-opacity:1"
       d="m -1.8123421,1.2126834 c -2.061e-4,-9.755e-4 -7.601e-4,-0.016812 -0.00124,-0.03519 -4.76e-4,-0.018379 -0.00125,-0.03438 -0.00172,-0.035558 -8.626e-4,-0.00214 0.010391,-0.023371 0.013172,-0.024863 7.476e-4,-3.996e-4 0.016096,-0.017184 0.034106,-0.037298 0.018011,-0.020114 0.033139,-0.036033 0.033617,-0.035373 0.00141,0.00194 0.00287,0.0496 0.00223,0.072402 -4.872e-4,0.017395 -9.579e-4,0.021425 -0.00273,0.023407 -0.00441,0.00494 -0.075814,0.074379 -0.076425,0.074316 -3.502e-4,-3.65e-5 -8.052e-4,-8.653e-4 -0.00101,-0.00185 z"
       id="path82506" />
    <path
       style="fill:#c65402;fill-opacity:1;stroke:#ffffff;stroke-width:0.000662913;stroke-miterlimit:4;stroke-dasharray:none;stroke-opacity:1"
       d="m -1.7790258,1.2455956 c -0.012948,-0.011314 -0.023495,-0.021028 -0.023437,-0.021589 2.303e-4,-0.00221 0.072621,-0.071883 0.073972,-0.071196 7.937e-4,4.032e-4 0.00907,0.00695 0.018388,0.014533 0.010758,0.00876 0.01686,0.014657 0.016713,0.016148 -1.284e-4,0.00129 -0.00274,0.013489 -0.00581,0.027107 l -0.00559,0.024759 -0.007,-7.304e-4 -0.007,-7.303e-4 -0.018233,0.01615 c -0.010025,0.00888 -0.018282,0.016142 -0.018342,0.016134 -6.19e-5,-8.5e-6 -0.010703,-0.00927 -0.023651,-0.020585 z"
       id="path84142" />
    <path
       style="fill:#fb9101;fill-opacity:1;stroke:#ffffff;stroke-width:0.000662913;stroke-miterlimit:4;stroke-dasharray:none;stroke-opacity:1"
       d="m -1.8026915,1.0993652 c 5.15e-5,-6.953e-4 -3.663e-4,-0.014032 -9.403e-4,-0.029639 l -0.00103,-0.028376 0.020371,-0.029315 0.020371,-0.0293149 0.017156,-0.008965 0.017156,-0.008965 1.431e-4,0.007294 c 7.92e-5,0.00401 -8.353e-4,0.0172655 -0.00203,0.0294487 l -0.00217,0.02215 -0.033975,0.037953 c -0.038085,0.042545 -0.035179,0.039417 -0.035054,0.037725 z"
       id="path84181" />
    <path
       style="fill:#fb9101;fill-opacity:1;stroke:#ffffff;stroke-width:0.000662913;stroke-miterlimit:4;stroke-dasharray:none;stroke-opacity:1"
       d="m -1.8414575,1.1252686 c 0.00164,-0.015708 0.00838,-0.03494 0.018252,-0.052064 0.00389,-0.00676 0.00721,-0.011725 0.00735,-0.011036 1.481e-4,6.888e-4 6.458e-4,0.01222 0.0011,0.025624 l 8.262e-4,0.02437 -0.00743,0.013126 -0.00743,0.013127 -0.007,-3.097e-4 -0.007,-3.097e-4 z"
       id="path86051" />
    <path
       style="fill:#ff91ff;fill-opacity:1;stroke:#ffffff;stroke-width:0.000662913;stroke-miterlimit:4;stroke-dasharray:none;stroke-opacity:1"
       d="m -1.4516439,1.4616507 c -0.013715,-0.011284 -0.026836,-0.021781 -0.029156,-0.023332 l -0.00422,-0.00282 0.00202,-0.019386 0.00202,-0.019391 0.026666,-0.020058 c 0.014667,-0.011032 0.028117,-0.020979 0.029892,-0.022106 0.0031,-0.00197 0.00413,-0.00164 0.027267,0.00887 l 0.024041,0.010913 -0.00156,0.013949 c -8.631e-4,0.00767 -0.00251,0.018849 -0.00367,0.024839 l -0.0021,0.01089 -0.022212,0.028231 c -0.012217,0.015527 -0.022627,0.028611 -0.023132,0.029076 -5.061e-4,4.646e-4 -0.012142,-0.00838 -0.025856,-0.019669 z"
       id="path86090" />
    <path
       style="fill:#ff91ff;fill-opacity:1;stroke:#ffffff;stroke-width:0.000662913;stroke-miterlimit:4;stroke-dasharray:none;stroke-opacity:1"
       d="m -1.4906445,1.3538511 c -0.00564,-0.014145 -0.01037,-0.026482 -0.010512,-0.027418 -1.433e-4,-9.355e-4 0.00688,-0.012463 0.01561,-0.025617 l 0.01587,-0.023916 0.00967,0.00292 c 0.00532,0.0016 0.018154,0.00543 0.028525,0.00852 0.01037,0.00308 0.019191,0.00603 0.019601,0.00656 9.848e-4,0.00126 -0.012278,0.044456 -0.014058,0.045807 -0.031928,0.024087 -0.052435,0.039082 -0.05332,0.03899 -6.195e-4,-6.46e-5 -0.00574,-0.011689 -0.01138,-0.025834 z"
       id="path87999" />
    <path
       style="fill:#ff91ff;fill-opacity:1;stroke:#ffffff;stroke-width:0.000662913;stroke-miterlimit:4;stroke-dasharray:none;stroke-opacity:1"
       d="m -1.5525844,1.3887053 -0.053973,-0.037324 -0.011013,-3.914e-4 -0.011013,-3.915e-4 1.791e-4,-0.011357 c 9.72e-5,-0.00624 6.175e-4,-0.011714 0.00116,-0.01215 5.377e-4,-4.361e-4 0.00536,0.00198 0.010724,0.00536 0.00536,0.00338 0.011021,0.00629 0.012581,0.00645 0.00156,1.629e-4 0.022652,-7.643e-4 0.046872,-0.00206 0.024221,-0.00129 0.044543,-0.0023 0.04516,-0.00224 6.175e-4,6.44e-5 0.0056,0.011441 0.011085,0.025281 l 0.00996,0.025164 -0.00143,0.013564 c -0.00155,0.014733 -0.00417,0.027928 -0.00549,0.0276 -4.545e-4,-1.103e-4 -0.025115,-0.017001 -0.0548,-0.037529 z"
       id="path88038" />
    <path
       style="fill:#ff91ff;fill-opacity:1;stroke:#ffffff;stroke-width:0.000662913;stroke-miterlimit:4;stroke-dasharray:none;stroke-opacity:1"
       d="m -1.6138396,1.3205175 c -0.00639,-0.00396 -0.012343,-0.00701 -0.013225,-0.00677 -0.0011,2.961e-4 -0.0016,-0.00971 -0.00159,-0.031884 3.8e-6,-0.017774 1.228e-4,-0.033663 2.543e-4,-0.035309 2.013e-4,-0.00243 0.01352,-0.010169 0.070545,-0.041 0.038664,-0.020904 0.070891,-0.037738 0.071613,-0.037411 7.23e-4,3.279e-4 0.00774,0.015674 0.015589,0.034104 l 0.014275,0.033509 -0.02847,0.042764 c -0.015658,0.023521 -0.028678,0.043138 -0.028932,0.043595 -2.541e-4,4.573e-4 -0.019307,0.00179 -0.04234,0.00295 -0.023033,0.00117 -0.042827,0.00224 -0.043989,0.00239 -0.00116,1.428e-4 -0.00734,-0.00298 -0.013731,-0.00694 z"
       id="path88077" />
    <path
       style="fill:#c65402;fill-opacity:1;stroke:#ffffff;stroke-width:0.000662913;stroke-miterlimit:4;stroke-dasharray:none;stroke-opacity:1"
       d="m -1.570372,1.148863 c 3.04e-5,-2.922e-4 0.00972,-0.013502 0.021529,-0.029355 0.011811,-0.015852 0.021927,-0.029713 0.02248,-0.0308 7.503e-4,-0.00148 0.013027,-0.00277 0.048371,-0.00513 0.026052,-0.00174 0.048388,-0.00332 0.049638,-0.00352 0.00185,-3.012e-4 0.00238,0.00165 0.00284,0.010481 3.09e-4,0.00596 7.293e-4,0.01219 9.407e-4,0.013827 3.147e-4,0.00249 -0.00561,0.00694 -0.035681,0.026826 l -0.036058,0.023851 -0.011971,-3.542e-4 c -0.013239,-3.922e-4 -0.06217,-0.00499 -0.062083,-0.00583 z"
       id="path88116" />
    <path
       style="fill:#fb9101;fill-opacity:1;stroke:#ffffff;stroke-width:0.000662913;stroke-miterlimit:4;stroke-dasharray:none;stroke-opacity:1"
       d="m -1.6494509,1.4310935 c -0.00599,-0.00297 -0.010847,-0.00584 -0.010792,-0.00636 5.59e-5,-5.356e-4 0.00545,-0.00121 0.011971,-0.0015 0.00685,-3.012e-4 0.012387,-0.00125 0.013094,-0.00225 9.699e-4,-0.00138 0.00443,-1.983e-4 0.016677,0.00566 0.0085,0.00407 0.015241,0.00757 0.01498,0.00779 -5.834e-4,4.732e-4 -0.031783,0.00259 -0.03367,0.00228 -7.51e-4,-1.203e-4 -0.00627,-0.00264 -0.012259,-0.00561 z"
       id="path89596" />
    <path
       style="fill:#b90005;fill-opacity:1;stroke:#ffffff;stroke-width:0.000662913;stroke-miterlimit:4;stroke-dasharray:none;stroke-opacity:1"
       d="m -1.2969107,1.4891514 c -0.00929,-0.00604 -0.017,-0.010993 -0.017117,-0.011005 -4.528e-4,-4.73e-5 -1.337e-4,-0.043349 3.616e-4,-0.048002 4.776e-4,-0.00456 0.00436,-0.00838 0.050418,-0.049589 0.027445,-0.024557 0.051481,-0.045966 0.053415,-0.047576 l 0.00351,-0.00293 0.012391,0.00576 c 0.00682,0.00316 0.012828,0.00626 0.013363,0.00689 5.351e-4,6.234e-4 0.00235,0.014595 0.00403,0.03105 0.00168,0.016454 0.00332,0.030239 0.00364,0.030633 3.192e-4,3.936e-4 0.010843,-6.54e-5 0.023386,-0.00102 0.012543,-9.54e-4 0.023,-0.00155 0.023238,-0.00133 2.372e-4,2.258e-4 -0.00234,0.010482 -0.00572,0.022792 l -0.00615,0.022381 -0.026569,0.020489 -0.026569,0.020489 -0.043563,0.00497 c -0.023959,0.00273 -0.043923,0.00541 -0.044362,0.00597 -4.397e-4,5.501e-4 -0.00841,-0.00394 -0.017704,-0.00998 z"
       id="path91661" />
    <path
       style="fill:#b90005;fill-opacity:1;stroke:#ffffff;stroke-width:0.000662913;stroke-miterlimit:4;stroke-dasharray:none;stroke-opacity:1"
       d="m -1.4000056,1.5083213 c -0.00963,-0.00879 -0.017408,-0.016585 -0.01729,-0.017336 2.26e-4,-0.00146 0.043532,-0.057089 0.044985,-0.05779 0.00128,-6.174e-4 0.046185,-0.00175 0.046528,-0.00117 1.624e-4,2.714e-4 1.667e-4,0.011415 1.11e-5,0.024764 l -2.794e-4,0.024271 -0.026939,0.021837 c -0.014817,0.012011 -0.027518,0.021737 -0.028227,0.021614 -7.084e-4,-1.262e-4 -0.00916,-0.00741 -0.018792,-0.016193 z"
       id="path94389" />
    <path
       style="fill:#b90005;fill-opacity:1;stroke:#ffffff;stroke-width:0.000662913;stroke-miterlimit:4;stroke-dasharray:none;stroke-opacity:1"
       d="m -1.3972997,1.5629992 c -0.00936,-0.00958 -0.013432,-0.01474 -0.013307,-0.016863 1.018e-4,-0.00168 4.063e-4,-0.00913 6.801e-4,-0.016546 2.776e-4,-0.00742 6.645e-4,-0.01347 8.612e-4,-0.013448 4.153e-4,4.44e-5 0.019461,0.017179 0.021126,0.019006 9.107e-4,10e-4 0.0051,0.040881 0.00434,0.041476 -1.222e-4,9.72e-5 -0.00629,-0.00603 -0.013709,-0.013627 z"
       id="path94428" />
    <path
       style="fill:#b90005;fill-opacity:1;stroke:#ffffff;stroke-width:0.000662913;stroke-miterlimit:4;stroke-dasharray:none;stroke-opacity:1"
       d="m -1.1630012,1.3901083 c -2.331e-4,-9.783e-4 -0.00145,-0.012265 -0.00269,-0.02508 l -0.00226,-0.0233 0.05975,-0.027636 c 0.032863,-0.0152 0.060534,-0.027736 0.061491,-0.027859 0.00145,-1.874e-4 0.00652,0.00665 0.022264,0.029982 0.00145,0.00216 -0.00376,0.0064 -0.046475,0.037813 l -0.048116,0.03538 -0.019525,0.00147 c -0.022404,0.00169 -0.023855,0.00164 -0.024432,-7.789e-4 z"
       id="path94467" />
    <path
       style="fill:#b90005;fill-opacity:1;stroke:#ffffff;stroke-width:0.000662913;stroke-miterlimit:4;stroke-dasharray:none;stroke-opacity:1"
       d="m -1.0228572,1.2972305 c -0.00659,-0.00973 -0.012688,-0.018822 -0.01356,-0.020214 -0.00138,-0.00219 8.695e-4,-0.00693 0.016889,-0.035564 0.013177,-0.02356 0.019301,-0.033272 0.021354,-0.03387 0.00296,-8.57e-4 0.0860259,-0.00364 0.0866281,-0.0029 1.8487e-4,2.278e-4 6.7835e-4,0.00661 0.001104,0.014184 8.3862e-4,0.014998 4.1287e-4,0.015995 -0.006486,0.015341 -0.002907,-2.718e-4 -0.009059,0.00588 -0.0402037,0.040261 -0.0349682,0.038602 -0.0369818,0.040565 -0.0411562,0.04013 -0.00242,-2.521e-4 -0.00623,-2.847e-4 -0.00849,-7.26e-5 -0.00384,3.599e-4 -0.00487,-7.539e-4 -0.016075,-0.017298 z"
       id="path94506" />
    <path
       style="fill:#b90005;fill-opacity:1;stroke:#ffffff;stroke-width:0.000662913;stroke-miterlimit:4;stroke-dasharray:none;stroke-opacity:1"
       d="m -0.89787883,1.2316945 c -2.0799e-4,-9.758e-4 -6.618e-4,-0.00792 -0.001014,-0.015435 l -6.3647e-4,-0.013659 0.01872,-0.030779 0.0187201,-0.030779 0.0220155,-0.00657 c 0.0121082,-0.00361 0.0222562,-0.00655 0.0225496,-0.00652 2.9371e-4,3.07e-5 -0.001373,0.018339 -0.003704,0.040685 l -0.004238,0.04063 -0.0147097,0.012718 -0.0147097,0.012718 -0.0181763,-2.872e-4 c -0.0227273,-3.597e-4 -0.0243564,-5.397e-4 -0.0248219,-0.00272 z"
       id="path94545" />
    <path
       style="fill:#73000b;fill-opacity:1;stroke:#ffffff;stroke-width:0.000662913;stroke-miterlimit:4;stroke-dasharray:none;stroke-opacity:1"
       d="m -0.88637325,1.1145055 c -0.008602,-0.00891 -0.0164288,-0.016279 -0.0173847,-0.016379 -9.5561e-4,-9.96e-5 -0.001682,-6.446e-4 -0.001623,-0.00121 2.8213e-4,-0.00255 0.0248448,-0.048493 0.0263025,-0.049196 8.9938e-4,-4.34e-4 0.005274,-8.273e-4 0.009724,-8.859e-4 l 0.008083,-9.42e-5 6.1518e-4,-0.0059 c 7.3241e-4,-0.00702 0.001733,-0.00747 0.0139003,-0.0062 l 0.008762,9.139e-4 0.0196702,0.031559 c 0.0108187,0.017357 0.0196266,0.031977 0.0195743,0.032488 -5.267e-5,5.108e-4 -0.003385,0.00402 -0.007411,0.00781 -0.007079,0.00666 -0.008216,0.00715 -0.0352553,0.015173 -0.015368,0.00456 -0.0282507,0.00825 -0.0286266,0.0082 -3.7676e-4,-4.89e-5 -0.007726,-0.00738 -0.0163326,-0.016286 z"
       id="path94584" />
    <path
       style="fill:#73000b;fill-opacity:1;stroke:#ffffff;stroke-width:0.000662913;stroke-miterlimit:4;stroke-dasharray:none;stroke-opacity:1"
       d="m -0.89718087,1.2312387 c 4.97e-5,-4.765e-4 -2.3813e-4,-0.00698 -6.4434e-4,-0.014451 l -7.3469e-4,-0.013585 0.0186301,-0.03065 0.0186302,-0.03065 0.0213853,-0.00625 0.0213853,-0.00625 -0.00423,0.040083 -0.00423,0.040083 -0.0142491,0.011935 -0.014249,0.011935 -0.0149533,-5.15e-5 c -0.016829,-5.62e-5 -0.0268824,-8.735e-4 -0.0267482,-0.00216 z"
       id="path96337" />
    <path
       style="fill:#73000b;fill-opacity:1;stroke:#ffffff;stroke-width:0.000662913;stroke-miterlimit:4;stroke-dasharray:none;stroke-opacity:1"
       d="m -0.94916623,1.1703945 -0.002135,-0.023195 0.004408,-0.00399 c 0.002421,-0.0022 0.010201,-0.00883 0.0172779,-0.014745 0.0123707,-0.010333 0.0127921,-0.010864 0.0107801,-0.01361 -0.002024,-0.00276 -0.001851,-0.00288 0.005214,-0.00353 l 0.007308,-6.654e-4 0.0147984,0.015457 c 0.008142,0.0085 0.0147808,0.015625 0.0147593,0.015832 -1.1204e-4,0.00107 -0.0290634,0.048492 -0.0301762,0.049425 -0.001045,8.777e-4 -0.0323458,0.00277 -0.03856,0.00233 -8.937e-4,-6.19e-5 -0.002426,-0.0098 -0.003672,-0.023304 z"
       id="path96376" />
    <path
       style="fill:#ff91ff;fill-opacity:1;stroke:#ffffff;stroke-width:0.000662913;stroke-miterlimit:4;stroke-dasharray:none;stroke-opacity:1"
       d="m -1.1873176,1.0265463 c -0.00888,-0.021173 -0.011628,-0.0291526 -0.010547,-0.0305651 6.317e-4,-8.2542e-4 0.014564,-0.0173306 0.030961,-0.036677 l 0.029811,-0.0351762 0.012555,-0.001103 c 0.0069,-6.0744e-4 0.012755,-8.5136e-4 0.012998,-5.345e-4 2.435e-4,3.1637e-4 0.00382,0.0164893 0.00795,0.0359408 l 0.00751,0.0353659 -0.017347,0.0191438 -0.017346,0.019145 -0.025404,0.00183 c -0.013973,0.00101 -0.02584,0.00181 -0.026371,0.00176 -5.316e-4,-3.46e-5 -0.00267,-0.00415 -0.00477,-0.00914 z"
       id="path96415" />
    <path
       style="fill:#ff91ff;fill-opacity:1;stroke:#ffffff;stroke-width:0.000662913;stroke-miterlimit:4;stroke-dasharray:none;stroke-opacity:1"
       d="m -1.1812949,1.0875769 c -5.825e-4,-0.011864 -9.588e-4,-0.03968 -5.478e-4,-0.039957 2.455e-4,-1.641e-4 0.011753,-0.00107 0.025574,-0.00201 0.01939,-0.00132 0.025311,-0.0013 0.025925,8.99e-5 4.372e-4,9.893e-4 0.00238,0.00444 0.00431,0.00767 l 0.00352,0.00587 -0.028346,0.016828 c -0.01559,0.00926 -0.028757,0.01681 -0.029261,0.016789 -5.037e-4,-2.12e-5 -0.00103,-0.00239 -0.00117,-0.00527 z"
       id="path97973" />
    <path
       style="fill:#ff91ff;fill-opacity:1;stroke:#ffffff;stroke-width:0.000662913;stroke-miterlimit:4;stroke-dasharray:none;stroke-opacity:1"
       d="m -1.088742,1.0726748 c -0.011539,-0.00921 -0.021364,-0.016961 -0.021832,-0.017234 -0.00122,-7.15e-4 -0.00965,-0.015477 -0.00953,-0.016682 5.8e-5,-5.563e-4 0.00769,-0.0093 0.016954,-0.019433 0.00927,-0.010131 0.017725,-0.0199528 0.018798,-0.0218246 0.00186,-0.003235 0.00439,-0.003705 0.051681,-0.009578 0.027353,-0.003401 0.050061,-0.005714 0.0504636,-0.005151 0.001457,0.002032 0.00749,0.0749997 0.006278,0.0758858 -6.827e-4,4.995e-4 -0.005869,0.00152 -0.0115323,0.00227 l -0.010292,0.00136 -0.00758,0.012682 -0.00758,0.012682 -0.023936,6.705e-4 c -0.013164,3.663e-4 -0.025508,7.679e-4 -0.027428,8.793e-4 -0.00262,1.623e-4 -0.00875,-0.00397 -0.024475,-0.016519 z"
       id="path98012" />
    <path
       style="fill:#ff91ff;fill-opacity:1;stroke:#ffffff;stroke-width:0.000662913;stroke-miterlimit:4;stroke-dasharray:none;stroke-opacity:1"
       d="m -1.094097,0.94665891 c -0.00539,-0.0253628 -0.00835,-0.0364586 -0.00992,-0.0372456 -0.00205,-0.001023 -0.00179,-0.002157 0.00301,-0.013077 l 0.00526,-0.011957 0.029774,-0.002143 c 0.016376,-0.001178 0.03061,-0.002035 0.031632,-0.001899 0.00102,1.3171e-4 0.011358,0.009379 0.02297,0.0205518 l 0.021113,0.0203119 -9.125e-4,0.0243648 c -5.024e-4,0.0134012 -0.0013,0.0246786 -0.00177,0.0250613 -4.724e-4,3.8316e-4 -0.021696,0.003277 -0.047162,0.006424 l -0.046303,0.005727 z"
       id="path98051" />
    <path
       style="fill:#ff91ff;fill-opacity:1;stroke:#ffffff;stroke-width:0.000662913;stroke-miterlimit:4;stroke-dasharray:none;stroke-opacity:1"
       d="m -0.97026874,0.98010443 c -1.8306e-4,-0.005589 -7.4521e-4,-0.007025 -0.002844,-0.007244 -0.001442,-1.5043e-4 -0.002551,-8.9089e-4 -0.002473,-0.001645 7.881e-5,-7.5551e-4 -9.9068e-4,-0.001491 -0.002383,-0.001636 -0.002307,-2.4068e-4 -0.002436,-0.002577 -0.001499,-0.0268866 5.6954e-4,-0.0146419 6.1203e-4,-0.0269781 8.453e-5,-0.0274152 -5.2384e-4,-4.365e-4 -0.009622,-0.009178 -0.0202189,-0.0194153 -0.017076,-0.0165045 -0.018887,-0.0186821 -0.015921,-0.019153 0.00184,-2.9207e-4 0.01513,-0.001388 0.02953,-0.00243 0.0241414,-0.001755 0.0263581,-0.001705 0.0284022,5.5949e-4 0.001216,0.001353 0.0152011,0.009166 0.031072,0.0173571 0.0158709,0.008191 0.0290944,0.0151882 0.0293847,0.0155473 2.9123e-4,3.5905e-4 -0.00211,0.008085 -0.00534,0.0171707 l -0.005865,0.0165186 0.001264,0.0195003 c 6.9115e-4,0.0107246 0.001055,0.0196706 7.9217e-4,0.0198774 -5.3478e-4,4.3376e-4 -0.0607016,0.006575 -0.0625387,0.006384 -6.6618e-4,-6.949e-5 -0.001318,-0.003264 -0.001441,-0.007098 z"
       id="path98090" />
    <path
       style="fill:#ff91ff;fill-opacity:1;stroke:#ffffff;stroke-width:0.000662913;stroke-miterlimit:4;stroke-dasharray:none;stroke-opacity:1"
       d="m -0.94692465,1.0824852 -0.0154588,-0.018167 -0.00306,-0.032643 c -0.001687,-0.017954 -0.002965,-0.032684 -0.002839,-0.0327342 0.00254,-0.001022 0.0629806,-0.005618 0.0633651,-0.004821 3.0151e-4,6.2475e-4 3.6898e-4,0.006584 1.4594e-4,0.0132526 -3.8784e-4,0.01158 -1.3744e-4,0.012692 0.005742,0.025145 0.003384,0.00717 0.00577,0.013984 0.005297,0.01515 -0.003746,0.00931 -0.026369,0.051202 -0.0282877,0.052371 -0.00567,0.00346 -0.009051,0.00108 -0.0249062,-0.017556 z"
       id="path98129" />
    <path
       style="fill:#ff91ff;fill-opacity:1;stroke:#ffffff;stroke-width:0.000662913;stroke-miterlimit:4;stroke-dasharray:none;stroke-opacity:1"
       d="m -1.0176793,1.1842195 c -0.00767,-0.00565 -0.014216,-0.010612 -0.014552,-0.011019 -5.419e-4,-6.681e-4 0.011074,-0.056243 0.014473,-0.069257 0.00123,-0.00472 0.00165,-0.00504 0.00602,-0.00458 0.00459,4.783e-4 0.0049,1.799e-4 0.01326,-0.013007 l 0.00857,-0.013496 0.008574,-0.00114 0.008574,-0.00114 0.008683,0.00996 c 0.004777,0.00549 0.0135358,0.015724 0.0194695,0.022764 l 0.0107884,0.012799 -0.0144725,0.012535 c -0.008787,0.00761 -0.0145909,0.01367 -0.0147734,0.01542 -1.6495e-4,0.00158 7.0167e-4,0.013419 0.001933,0.026295 l 0.002233,0.023412 -0.00297,3.29e-4 c -0.005595,6.23e-4 -0.0348876,0.00124 -0.0383724,8.035e-4 -0.00192,-2.313e-4 -0.00976,-0.00505 -0.017424,-0.010695 z"
       id="path98168" />
    <path
       style="fill:#b90005;fill-opacity:1;stroke:#ffffff;stroke-width:0.000662913;stroke-miterlimit:4;stroke-dasharray:none;stroke-opacity:1"
       d="m -1.1895653,1.3253123 c -0.00803,-0.0036 -0.014664,-0.00717 -0.014755,-0.00792 -8.94e-5,-7.592e-4 0.018813,-0.021583 0.042004,-0.046275 l 0.042167,-0.044896 0.037547,-0.018995 c 0.020651,-0.010447 0.039289,-0.01988 0.041419,-0.020962 0.00382,-0.00194 0.00402,-0.00186 0.01608,0.00699 0.00672,0.00492 0.012443,0.00925 0.012734,0.0096 2.891e-4,3.569e-4 -0.00844,0.016741 -0.019415,0.036411 l -0.019941,0.035763 -0.055795,0.025776 c -0.030687,0.014177 -0.058418,0.026964 -0.061625,0.028415 l -0.00583,0.00264 z"
       id="path98207" />
  </g>
</svg>
