<?xml version="1.0" encoding="UTF-8" standalone="no"?>
<!-- Created with Inkscape (http://www.inkscape.org/) -->

<svg
   xmlns:dc="http://purl.org/dc/elements/1.1/"
   xmlns:cc="http://creativecommons.org/ns#"
   xmlns:rdf="http://www.w3.org/1999/02/22-rdf-syntax-ns#"
   xmlns:svg="http://www.w3.org/2000/svg"
   xmlns="http://www.w3.org/2000/svg"
   xmlns:sodipodi="http://sodipodi.sourceforge.net/DTD/sodipodi-0.dtd"
   xmlns:inkscape="http://www.inkscape.org/namespaces/inkscape"
   width="1.7300321in"
   height="1.9999628in"
   viewBox="0 0 1.7300321 1.9999628"
   version="1.1"
   id="SVGRoot"
   sodipodi:docname="sbsp-hex.svg"
   inkscape:version="0.92.5 (2060ec1f9f, 2020-04-08)"
   inkscape:export-filename="/home/areshenk/Documents/repositories/grp-core/areshenk.github.io/content/project/sbsp/sbsp-hex.png"
   inkscape:export-xdpi="250"
   inkscape:export-ydpi="250">
  <defs
     id="defs2468">
    <marker
       inkscape:stockid="Arrow1Mstart"
       orient="auto"
       refY="0"
       refX="0"
       id="Arrow1Mstart"
       style="overflow:visible"
       inkscape:isstock="true">
      <path
         id="path4188"
         d="M 0,0 5,-5 -12.5,0 5,5 Z"
         style="fill:#c82f2f;fill-opacity:1;fill-rule:evenodd;stroke:#c82f2f;stroke-width:1pt;stroke-opacity:1"
         transform="matrix(0.4,0,0,0.4,4,0)" />
    </marker>
    <marker
       inkscape:stockid="Arrow1Sstart"
       orient="auto"
       refY="0"
       refX="0"
       id="Arrow1Sstart"
       style="overflow:visible"
       inkscape:isstock="true">
      <path
         id="path4194"
         d="M 0,0 5,-5 -12.5,0 5,5 Z"
         style="fill:#9fcce8;fill-opacity:1;fill-rule:evenodd;stroke:#9fcce8;stroke-width:1pt;stroke-opacity:1"
         transform="matrix(0.2,0,0,0.2,1.2,0)" />
    </marker>
    <clipPath
       clipPathUnits="userSpaceOnUse"
       id="clipPath3373">
      <rect
         style="opacity:1;fill:none;fill-opacity:0.760784;stroke:#b1b1b1;stroke-width:0.0556299;stroke-linecap:round;stroke-linejoin:miter;stroke-miterlimit:4;stroke-dasharray:none;stroke-dashoffset:0;stroke-opacity:1"
         id="rect3375"
         width="2.5190687"
         height="0.94465083"
         x="-1.1795232"
         y="-1.1374961"
         transform="scale(1,-1)" />
    </clipPath>
    <clipPath
       clipPathUnits="userSpaceOnUse"
       id="clipPath3513">
      <path
         sodipodi:type="star"
         style="opacity:1;fill:none;fill-opacity:0.760784;stroke:#b1b1b1;stroke-width:0.0546979;stroke-linecap:round;stroke-linejoin:miter;stroke-miterlimit:4;stroke-dasharray:none;stroke-dashoffset:0;stroke-opacity:1"
         id="path3515"
         sodipodi:sides="6"
         sodipodi:cx="0.86408043"
         sodipodi:cy="1.0022459"
         sodipodi:r1="0.96617424"
         sodipodi:r2="0.83673149"
         sodipodi:arg1="0.52359878"
         sodipodi:arg2="1.0471976"
         inkscape:flatsided="true"
         inkscape:rounded="0"
         inkscape:randomized="0"
         d="M 1.7008119,1.485333 0.86408042,1.9684201 0.02734899,1.485333 l 0,-0.96617422 0.83673144,-0.48308712 0.83673147,0.48308712 z"
         transform="matrix(0.93856409,0,0,-0.94275889,-0.81259422,2.108613)" />
    </clipPath>
    <clipPath
       clipPathUnits="userSpaceOnUse"
       id="clipPath3824">
      <path
         sodipodi:type="star"
         style="opacity:1;fill:none;fill-opacity:0.760784;stroke:#e6b1b1;stroke-width:0.0546979;stroke-linecap:round;stroke-linejoin:miter;stroke-miterlimit:4;stroke-dasharray:none;stroke-dashoffset:0;stroke-opacity:1"
         id="path3826"
         sodipodi:sides="6"
         sodipodi:cx="0.86408043"
         sodipodi:cy="1.0022459"
         sodipodi:r1="0.96617424"
         sodipodi:r2="0.83673149"
         sodipodi:arg1="0.52359878"
         sodipodi:arg2="1.0471976"
         inkscape:flatsided="true"
         inkscape:rounded="0"
         inkscape:randomized="0"
         d="M 1.7008119,1.485333 0.86408042,1.9684201 0.02734899,1.485333 l 0,-0.96617422 0.83673144,-0.48308712 0.83673147,0.48308712 z"
         transform="matrix(0.93856409,0,0,-0.94275889,-0.81812125,2.1011045)" />
    </clipPath>
    <marker
       inkscape:stockid="Arrow1Mstart"
       orient="auto"
       refY="0"
       refX="0"
       id="Arrow1Mstart-3"
       style="overflow:visible"
       inkscape:isstock="true">
      <path
         id="path4188-6"
         d="M 0,0 5,-5 -12.5,0 5,5 Z"
         style="fill:#c82f2f;fill-opacity:1;fill-rule:evenodd;stroke:#c82f2f;stroke-width:1pt;stroke-opacity:1"
         transform="matrix(0.4,0,0,0.4,4,0)" />
    </marker>
  </defs>
  <sodipodi:namedview
     id="base"
     pagecolor="#ffffff"
     bordercolor="#666666"
     borderopacity="1.0"
     inkscape:pageopacity="0.0"
     inkscape:pageshadow="2"
     inkscape:zoom="2.6666666"
     inkscape:cx="7.1212162"
     inkscape:cy="86.027181"
     inkscape:document-units="in"
     inkscape:current-layer="layer1"
     showgrid="false"
     inkscape:window-width="1877"
     inkscape:window-height="1048"
     inkscape:window-x="43"
     inkscape:window-y="0"
     inkscape:window-maximized="1"
     inkscape:snap-global="true"
     inkscape:pagecheckerboard="0"
     inkscape:snap-bbox="true"
     inkscape:snap-bbox-midpoints="true">
    <inkscape:grid
       type="xygrid"
       id="grid962" />
  </sodipodi:namedview>
  <metadata
     id="metadata2471">
    <rdf:RDF>
      <cc:Work
         rdf:about="">
        <dc:format>image/svg+xml</dc:format>
        <dc:type
           rdf:resource="http://purl.org/dc/dcmitype/StillImage" />
        <dc:title />
      </cc:Work>
    </rdf:RDF>
  </metadata>
  <g
     inkscape:label="Layer 1"
     inkscape:groupmode="layer"
     id="layer1"
     transform="translate(2.0578213,0.01142655)">
    <path
       id="path3723"
       sodipodi:type="arc"
       sodipodi:start="1.5707963"
       sodipodi:ry="1.0416666"
       sodipodi:rx="0.001"
       sodipodi:open="true"
       sodipodi:end="4.712389"
       sodipodi:cy="-2.1571603"
       sodipodi:cx="0.86741745"
       style="fill:none;stroke:#35ce5a;stroke-width:0;stroke-miterlimit:4;stroke-dasharray:none;stroke-opacity:1"
       d="m 0.86741745,-1.1154937 a 0.001,1.0416666 0 0 1 -8.6602e-4,-0.5208333 0.001,1.0416666 0 0 1 0,-1.0416666 0.001,1.0416666 0 0 1 8.6602e-4,-0.5208333"
       transform="scale(1,-1)"
       sodipodi:arc-type="arc" />
    <path
       id="path3725"
       sodipodi:type="arc"
       sodipodi:start="1.5707963"
       sodipodi:ry="1.0416666"
       sodipodi:rx="0.25434411"
       sodipodi:open="true"
       sodipodi:end="4.712389"
       sodipodi:cy="-2.2273204"
       sodipodi:cx="0.66693181"
       transform="matrix(0.99582695,-0.09126159,-0.09126159,-0.99582695,0,0)"
       style="fill:none;stroke:#35ce5a;stroke-width:0;stroke-miterlimit:4;stroke-dasharray:none;stroke-opacity:1"
       d="m 0.66693181,-1.1856538 a 0.25434411,1.0416666 0 0 1 -0.22026846,-0.5208333 0.25434411,1.0416666 0 0 1 0,-1.0416666 0.25434411,1.0416666 0 0 1 0.22026846,-0.5208334"
       sodipodi:arc-type="arc" />
    <path
       id="path3729"
       sodipodi:type="arc"
       sodipodi:start="1.5707963"
       sodipodi:ry="1.0416666"
       sodipodi:rx="0.69314897"
       sodipodi:open="true"
       sodipodi:end="4.712389"
       sodipodi:cy="-2.3217905"
       sodipodi:cx="0.12264989"
       transform="matrix(0.94618865,-0.32361557,-0.32361557,-0.94618865,0,0)"
       style="fill:none;stroke:#35ce5a;stroke-width:0;stroke-miterlimit:4;stroke-dasharray:none;stroke-opacity:1"
       d="m 0.12264989,-1.2801238 a 0.69314897,1.0416666 0 0 1 -0.60028461,-0.5208333 0.69314897,1.0416666 0 0 1 0,-1.0416667 0.69314897,1.0416666 0 0 1 0.60028461,-0.5208333"
       sodipodi:arc-type="arc" />
    <path
       id="path3731"
       sodipodi:type="arc"
       sodipodi:start="1.5707963"
       sodipodi:ry="1.0416666"
       sodipodi:rx="0.84870595"
       sodipodi:open="true"
       sodipodi:end="4.712389"
       sodipodi:cy="-2.2980497"
       sodipodi:cx="-0.35315967"
       transform="matrix(0.86036561,-0.50967737,-0.50967737,-0.86036561,0,0)"
       style="fill:none;stroke:#35ce5a;stroke-width:0;stroke-miterlimit:4;stroke-dasharray:none;stroke-opacity:1"
       d="m -0.35315967,-1.2563831 a 0.84870595,1.0416666 0 0 1 -0.73500093,-0.5208333 0.84870595,1.0416666 0 0 1 0,-1.0416666 0.84870595,1.0416666 0 0 1 0.73500093,-0.5208333"
       sodipodi:arc-type="arc" />
    <path
       id="path3735"
       sodipodi:type="arc"
       sodipodi:start="1.5707963"
       sodipodi:ry="1.0416666"
       sodipodi:rx="0.97984648"
       sodipodi:open="true"
       sodipodi:end="4.712389"
       sodipodi:cy="-0.86741745"
       sodipodi:cx="-2.1571603"
       transform="matrix(0,-1,-1,0,0,0)"
       style="fill:none;stroke:#35ce5a;stroke-width:0;stroke-miterlimit:4;stroke-dasharray:none;stroke-opacity:1"
       d="m -2.1571603,0.17424917 a 0.97984648,1.0416666 0 0 1 -0.8485719,-0.5208333 0.97984648,1.0416666 0 0 1 0,-1.04166667 0.97984648,1.0416666 0 0 1 0.8485719,-0.5208333"
       sodipodi:arc-type="arc" />
    <path
       id="path3737"
       sodipodi:type="arc"
       sodipodi:start="4.712389"
       sodipodi:ry="1.0416666"
       sodipodi:rx="0.94649309"
       sodipodi:open="true"
       sodipodi:end="1.5707963"
       sodipodi:cy="-0.64751863"
       sodipodi:cx="2.2330413"
       transform="matrix(0.61670964,0.78719071,0.78719071,-0.61670964,0,0)"
       style="fill:none;stroke:#35ce5a;stroke-width:0;stroke-miterlimit:4;stroke-dasharray:none;stroke-opacity:1"
       d="M 2.2330413,-1.6891853 A 0.94649309,1.0416666 0 0 1 3.1795344,-0.64751863 0.94649309,1.0416666 0 0 1 2.2330413,0.39414799"
       sodipodi:arc-type="arc" />
    <path
       id="path3739"
       sodipodi:type="arc"
       sodipodi:start="4.712389"
       sodipodi:ry="1.0416666"
       sodipodi:rx="0.84870595"
       sodipodi:open="true"
       sodipodi:end="1.5707963"
       sodipodi:cy="-1.4138435"
       sodipodi:cx="1.845752"
       transform="matrix(0.86036561,0.50967737,0.50967737,-0.86036561,0,0)"
       style="fill:none;stroke:#35ce5a;stroke-width:0;stroke-miterlimit:4;stroke-dasharray:none;stroke-opacity:1"
       d="M 1.845752,-2.4555101 A 0.84870595,1.0416666 0 0 1 2.6944579,-1.4138435 0.84870595,1.0416666 0 0 1 1.845752,-0.37217689"
       sodipodi:arc-type="arc" />
    <path
       id="path3741"
       sodipodi:type="arc"
       sodipodi:start="4.712389"
       sodipodi:ry="1.0416666"
       sodipodi:rx="0.69314897"
       sodipodi:open="true"
       sodipodi:end="1.5707963"
       sodipodi:cy="-1.7603709"
       sodipodi:cx="1.5188313"
       transform="matrix(0.94618865,0.32361557,0.32361557,-0.94618865,0,0)"
       style="fill:none;stroke:#35ce5a;stroke-width:0;stroke-miterlimit:4;stroke-dasharray:none;stroke-opacity:1"
       d="m 1.5188313,-2.8020375 a 0.69314897,1.0416666 0 0 1 0.6931489,1.0416666 0.69314897,1.0416666 0 0 1 -0.6931489,1.04166668"
       sodipodi:arc-type="arc" />
    <path
       id="path3743"
       sodipodi:type="arc"
       sodipodi:start="4.712389"
       sodipodi:ry="1.0416666"
       sodipodi:rx="0.49042323"
       sodipodi:open="true"
       sodipodi:end="1.5707963"
       sodipodi:cy="-1.9482549"
       sodipodi:cx="1.2688801"
       transform="matrix(0.98105595,0.19372462,0.19372462,-0.98105595,0,0)"
       style="fill:none;stroke:#35ce5a;stroke-width:0;stroke-miterlimit:4;stroke-dasharray:none;stroke-opacity:1"
       d="m 1.2688801,-2.9899216 a 0.49042323,1.0416666 0 0 1 0.4904233,1.0416667 0.49042323,1.0416666 0 0 1 -0.4904233,1.04166658"
       sodipodi:arc-type="arc" />
    <path
       id="path3745"
       sodipodi:type="arc"
       sodipodi:start="4.712389"
       sodipodi:ry="1.0416666"
       sodipodi:rx="0.25434411"
       sodipodi:open="true"
       sodipodi:end="1.5707963"
       sodipodi:cy="-2.0689967"
       sodipodi:cx="1.0606636"
       transform="matrix(0.99582695,0.09126159,0.09126159,-0.99582695,0,0)"
       style="fill:none;stroke:#35ce5a;stroke-width:0;stroke-miterlimit:4;stroke-dasharray:none;stroke-opacity:1"
       d="M 1.0606636,-3.1106633 A 0.25434411,1.0416666 0 0 1 1.3150077,-2.0689967 0.25434411,1.0416666 0 0 1 1.0606636,-1.02733"
       sodipodi:arc-type="arc" />
    <path
       id="path3775"
       sodipodi:type="arc"
       sodipodi:start="5.7584753"
       sodipodi:ry="0.21041083"
       sodipodi:rx="0.61227632"
       sodipodi:open="true"
       sodipodi:end="3.6663027"
       sodipodi:cy="-2.9490638"
       sodipodi:cx="0.86741745"
       style="fill:none;stroke:#35ce5a;stroke-width:0;stroke-miterlimit:4;stroke-dasharray:none;stroke-opacity:1"
       d="m 1.3973238,-3.0544716 a 0.61227632,0.21041083 0 0 1 -0.136169,0.2665418 0.61227632,0.21041083 0 0 1 -0.78747469,0 0.61227632,0.21041083 0 0 1 -0.13616897,-0.2665418"
       transform="scale(1,-1)"
       sodipodi:arc-type="arc" />
    <path
       id="path3777"
       sodipodi:type="arc"
       sodipodi:start="5.4875165"
       sodipodi:ry="0.16274364"
       sodipodi:rx="0.47290677"
       sodipodi:open="true"
       sodipodi:end="3.9372615"
       sodipodi:cy="-3.029319"
       sodipodi:cx="0.86741745"
       style="fill:none;stroke:#35ce5a;stroke-width:0;stroke-miterlimit:4;stroke-dasharray:none;stroke-opacity:1"
       d="M 1.198361,-3.145572 A 0.47290677,0.16274364 0 0 1 1.3052499,-2.9678127 0.47290677,0.16274364 0 0 1 0.86741745,-2.8665754 0.47290677,0.16274364 0 0 1 0.42958497,-2.9678127 0.47290677,0.16274364 0 0 1 0.53647392,-3.145572"
       transform="scale(1,-1)"
       sodipodi:arc-type="arc" />
    <ellipse
       id="path3779"
       style="fill:none;stroke:#35ce5a;stroke-width:0;stroke-miterlimit:4;stroke-dasharray:none;stroke-opacity:1"
       cx="0.86741745"
       cy="-3.0880988"
       rx="0.32189271"
       ry="0.11109379"
       transform="scale(1,-1)" />
    <ellipse
       id="path3781"
       style="fill:none;stroke:#35ce5a;stroke-width:0;stroke-miterlimit:4;stroke-dasharray:none;stroke-opacity:1"
       cx="0.86741745"
       cy="-3.1239557"
       rx="0.16295257"
       ry="0.056733061"
       transform="scale(1,-1)" />
    <path
       style="opacity:1;fill:#e9f0e7;fill-opacity:1;stroke:none;stroke-width:0.708053;stroke-linecap:round;stroke-linejoin:miter;stroke-miterlimit:4;stroke-dasharray:none;stroke-dashoffset:0;stroke-opacity:1"
       d=""
       id="path3966"
       inkscape:connector-curvature="0"
       transform="matrix(0.01041667,0,0,0.01041667,1.570917e-5,5.5249307e-5)" />
    <path
       sodipodi:type="star"
       style="opacity:1;fill:#353535;fill-opacity:1;stroke:#05ffa1;stroke-width:0.0648481;stroke-linecap:round;stroke-linejoin:miter;stroke-miterlimit:4;stroke-dasharray:none;stroke-dashoffset:0;stroke-opacity:1"
       id="path3026-9-9-9-7"
       sodipodi:sides="6"
       sodipodi:cx="0.86408043"
       sodipodi:cy="1.0022459"
       sodipodi:r1="0.96617424"
       sodipodi:r2="0.83673149"
       sodipodi:arg1="0.52359878"
       sodipodi:arg2="1.0471976"
       inkscape:flatsided="true"
       inkscape:rounded="0"
       inkscape:randomized="0"
       transform="matrix(0.93856409,0,0,0.94275889,-2.003484,0.04051908)"
       d="M 1.7008119,1.485333 0.86408042,1.9684201 0.02734899,1.485333 l 0,-0.96617422 0.83673144,-0.48308712 0.83673147,0.48308712 z" />
    <path
       sodipodi:type="star"
       style="opacity:1;fill:none;fill-opacity:0.760784;stroke:#b967ff;stroke-width:0.0546979;stroke-linecap:round;stroke-linejoin:miter;stroke-miterlimit:4;stroke-dasharray:none;stroke-dashoffset:0;stroke-opacity:1"
       id="path3026-5"
       sodipodi:sides="6"
       sodipodi:cx="0.86408043"
       sodipodi:cy="1.0022459"
       sodipodi:r1="0.96617424"
       sodipodi:r2="0.83673149"
       sodipodi:arg1="0.52359878"
       sodipodi:arg2="1.0471976"
       inkscape:flatsided="true"
       inkscape:rounded="0"
       inkscape:randomized="0"
       transform="matrix(1.0010828,0,0,1.0022323,-2.0578213,-0.01592839)"
       d="M 1.7008119,1.485333 0.86408042,1.9684201 0.02734899,1.485333 l 0,-0.96617422 0.83673144,-0.48308712 0.83673147,0.48308712 z" />
    <text
       xml:space="preserve"
       style="font-style:normal;font-variant:normal;font-weight:bold;font-stretch:normal;font-size:0.444444px;line-height:1.25;font-family:Laksaman;-inkscape-font-specification:'Laksaman, Bold';font-variant-ligatures:normal;font-variant-caps:normal;font-variant-numeric:normal;text-align:start;letter-spacing:0px;word-spacing:0px;writing-mode:lr-tb;text-anchor:start;fill:#d4d4d7;fill-opacity:1;stroke:none;stroke-width:0.0104167"
       x="-1.6822622"
       y="0.72772336"
       id="text3988-6"><tspan
         sodipodi:role="line"
         id="tspan108252"
         x="-1.6822622"
         y="0.72772336">sbsp</tspan></text>
    <path
       style="fill:none;stroke:#b967ff;stroke-width:0.02;stroke-linecap:butt;stroke-linejoin:miter;stroke-miterlimit:4;stroke-dasharray:none;stroke-opacity:1"
       d="m -0.63594585,0.34009885 0,1.28906295"
       id="path964"
       inkscape:connector-curvature="0"
       sodipodi:nodetypes="cc" />
    <circle
       style="opacity:1;fill:none;fill-opacity:1;stroke:#b967ff;stroke-width:0.02000001;stroke-linecap:butt;stroke-linejoin:bevel;stroke-miterlimit:4;stroke-dasharray:none;stroke-dashoffset:0;stroke-opacity:1"
       id="path966"
       cx="-1.1928053"
       cy="1.2136689"
       r="0.28906259" />
    <path
       style="fill:none;stroke:#05ffa1;stroke-width:0.02;stroke-linecap:butt;stroke-linejoin:miter;stroke-opacity:1;stroke-miterlimit:4;stroke-dasharray:none"
       d="M -1.7882899,1.5588492 -0.39758816,0.75248075"
       id="path970"
       inkscape:connector-curvature="0"
       sodipodi:nodetypes="cc" />
    <path
       style="fill:none;stroke:#05ffa1;stroke-width:0.02;stroke-linecap:butt;stroke-linejoin:miter;stroke-opacity:1;stroke-miterlimit:4;stroke-dasharray:none"
       d="M -1.9885237,1.307736 -0.41227512,1.132227"
       id="path970-3"
       inkscape:connector-curvature="0"
       sodipodi:nodetypes="cc" />
    <circle
       style="opacity:1;fill:#05ffa1;fill-opacity:1;stroke:none;stroke-width:0.02416668;stroke-linecap:butt;stroke-linejoin:bevel;stroke-miterlimit:4;stroke-dasharray:none;stroke-dashoffset:0;stroke-opacity:1"
       id="path989"
       cx="-0.63073796"
       cy="0.88436961"
       r="0.040050983" />
    <circle
       style="opacity:1;fill:#05ffa1;fill-opacity:1;stroke:none;stroke-width:0.02416668;stroke-linecap:butt;stroke-linejoin:bevel;stroke-miterlimit:4;stroke-dasharray:none;stroke-dashoffset:0;stroke-opacity:1"
       id="path989-0"
       cx="-0.63394022"
       cy="1.1552029"
       r="0.040050983" />
    <circle
       style="opacity:1;fill:#05ffa1;fill-opacity:1;stroke:none;stroke-width:0.02416668;stroke-linecap:butt;stroke-linejoin:bevel;stroke-miterlimit:4;stroke-dasharray:none;stroke-dashoffset:0;stroke-opacity:1"
       id="path989-5"
       cx="-1.2003994"
       cy="1.2199814"
       r="0.040050983" />
  </g>
</svg>
